<?xml version="1.0" encoding="UTF-8"?>
<svg width="441px" height="374px" viewBox="0 0 441 374" version="1.1" xmlns="http://www.w3.org/2000/svg" xmlns:xlink="http://www.w3.org/1999/xlink">
    <!-- Generator: Sketch 52.2 (67145) - http://www.bohemiancoding.com/sketch -->
    <title>230</title>
    <desc>Created with Sketch.</desc>
    <g id="Page-1" stroke="none" stroke-width="1" fill="none" fill-rule="evenodd">
        <g id="230">
            <path d="M150.176,74.854 C150.176,116.167 116.686,149.658 75.373,149.658 C34.06,149.658 0.57,116.167 0.57,74.854 C0.57,33.542 34.06,0.051 75.373,0.051 C116.686,0.051 150.176,33.542 150.176,74.854" id="Fill-198" fill="#0D3F72"></path>
            <path d="M135.216,74.854 C135.216,107.905 108.424,134.698 75.373,134.698 C42.322,134.698 15.53,107.905 15.53,74.854 C15.53,41.804 42.322,15.011 75.373,15.011 C108.424,15.011 135.216,41.804 135.216,74.854" id="Fill-199" fill="#FFFFFF"></path>
            <path d="M119.256,75.413 C119.256,71.83 122.161,68.925 125.745,68.925 C129.328,68.925 132.233,71.83 132.233,75.413 C132.233,78.996 129.328,81.901 125.745,81.901 C122.161,81.901 119.256,78.996 119.256,75.413" id="Fill-200" fill="#0D3F72"></path>
            <path d="M68.885,24.487 C68.885,20.904 71.79,17.999 75.373,17.999 C78.956,17.999 81.861,20.904 81.861,24.487 C81.861,28.07 78.956,30.975 75.373,30.975 C71.79,30.975 68.885,28.07 68.885,24.487" id="Fill-201" fill="#0D3F72"></path>
            <path d="M68.885,126.339 C68.885,122.756 71.79,119.851 75.373,119.851 C78.956,119.851 81.861,122.756 81.861,126.339 C81.861,129.922 78.956,132.827 75.373,132.827 C71.79,132.827 68.885,129.922 68.885,126.339" id="Fill-202" fill="#0D3F72"></path>
            <path d="M17.356,75.413 C17.356,71.83 20.261,68.925 23.844,68.925 C27.428,68.925 30.333,71.83 30.333,75.413 C30.333,78.996 27.428,81.901 23.844,81.901 C20.261,81.901 17.356,78.996 17.356,75.413" id="Fill-203" fill="#0D3F72"></path>
            <path d="M74.819,73.733 C75.118,73.777 75.327,74.059 75.283,74.357 L69.211,115.424 C69.167,115.723 68.886,115.932 68.587,115.888 C68.288,115.843 68.079,115.563 68.123,115.263 L74.195,74.197 C74.239,73.897 74.52,73.689 74.819,73.733" id="Fill-204" fill="#EB5A49"></path>
            <path d="M81.742,75.413 C81.742,79.25 78.632,82.361 74.794,82.361 C70.958,82.361 67.847,79.25 67.847,75.413 C67.847,71.576 70.958,68.465 74.794,68.465 C78.632,68.465 81.742,71.576 81.742,75.413" id="Fill-205" fill="#0D3F72"></path>
            <path d="M75.373,76.837 C74.163,76.837 73.173,75.847 73.173,74.637 L73.173,36.424 C73.173,35.214 74.163,34.224 75.373,34.224 C76.583,34.224 77.573,35.214 77.573,36.424 L77.573,74.637 C77.573,75.847 76.583,76.837 75.373,76.837" id="Fill-206" fill="#0D3F72"></path>
            <path d="M74.893,76.058 C75.143,75.507 75.798,75.261 76.349,75.511 L113.143,92.227 C113.694,92.477 113.939,93.132 113.689,93.683 C113.439,94.233 112.784,94.479 112.233,94.229 L75.439,77.514 C74.888,77.264 74.642,76.608 74.893,76.058" id="Fill-207" fill="#0D3F72"></path>
            <polyline id="Fill-208" fill="#ABC8CC" points="320.304 366.91 232.826 366.91 237.853 329.707 315.277 329.707 320.304 366.91"></polyline>
            <path d="M435.266,331.718 L117.004,331.718 C114.037,331.718 111.631,329.312 111.631,326.345 L111.631,94.768 C111.631,91.8 114.037,89.394 117.004,89.394 L435.266,89.394 C438.234,89.394 440.64,91.8 440.64,94.768 L440.64,326.345 C440.64,329.312 438.233,331.718 435.266,331.718" id="Fill-209" fill="#0D3F72"></path>
            <path d="M111.631,297.531 L111.631,325.885 C111.631,329.106 114.242,331.718 117.463,331.718 L434.807,331.718 C438.028,331.718 440.64,329.106 440.64,325.885 L440.64,297.531 L111.631,297.531" id="Fill-210" fill="#FFFFFF"></path>
            <polygon id="Fill-211" fill="#0095E0" points="122.222 286.471 428.897 286.471 428.897 100.455 122.222 100.455"></polygon>
            <path d="M284.106,317.139 C284.106,321.303 280.73,324.68 276.565,324.68 C272.4,324.68 269.024,321.303 269.024,317.139 C269.024,312.974 272.4,309.598 276.565,309.598 C280.73,309.598 284.106,312.974 284.106,317.139" id="Fill-212" fill="#DCE0E2"></path>
            <path d="M328.348,373.948 L221.766,373.948 C221.766,368.395 226.268,363.894 231.821,363.894 L318.293,363.894 C323.846,363.894 328.348,368.395 328.348,373.948" id="Fill-213" fill="#FFFFFF"></path>
            <path d="M166.184,286.471 L166.184,50.185 C166.184,45.641 169.868,41.957 174.412,41.957 L375.702,41.957 C380.246,41.957 383.93,45.641 383.93,50.185 L383.93,286.471 L166.184,286.471 Z" id="Fill-214" fill="#FFFFFF"></path>
            <path d="M383.93,54.491 L383.93,49.093 C383.93,45.152 380.735,41.957 376.793,41.957 L173.32,41.957 C169.379,41.957 166.184,45.152 166.184,49.093 L166.184,54.491 L383.93,54.491" id="Fill-215" fill="#0D3F72"></path>
            <path d="M356.54,48.033 C356.54,49.778 355.125,51.192 353.381,51.192 C351.636,51.192 350.222,49.778 350.222,48.033 C350.222,46.288 351.636,44.874 353.381,44.874 C355.125,44.874 356.54,46.288 356.54,48.033" id="Fill-216" fill="#EB5A49"></path>
            <path d="M365.485,48.033 C365.485,49.778 364.071,51.192 362.326,51.192 C360.582,51.192 359.167,49.778 359.167,48.033 C359.167,46.288 360.582,44.874 362.326,44.874 C364.071,44.874 365.485,46.288 365.485,48.033" id="Fill-217" fill="#EB5A49"></path>
            <path d="M374.431,48.033 C374.431,49.778 373.017,51.192 371.271,51.192 C369.527,51.192 368.112,49.778 368.112,48.033 C368.112,46.288 369.527,44.874 371.271,44.874 C373.017,44.874 374.431,46.288 374.431,48.033" id="Fill-218" fill="#EB5A49"></path>
            <polygon id="Fill-219" fill="#D3D3D3" points="238.732 119.295 257.278 119.295 257.278 100.749 238.732 100.749"></polygon>
            <polygon id="Fill-220" fill="#D3D3D3" points="265.784 119.295 284.33 119.295 284.33 100.749 265.784 100.749"></polygon>
            <polygon id="Fill-221" fill="#D3D3D3" points="292.835 119.295 311.382 119.295 311.382 100.749 292.835 100.749"></polygon>
            <polygon id="Fill-222" fill="#D3D3D3" points="319.887 119.295 338.434 119.295 338.434 100.749 319.887 100.749"></polygon>
            <polygon id="Fill-223" fill="#EB5A49" points="346.939 119.295 365.485 119.295 365.485 100.749 346.939 100.749"></polygon>
            <polygon id="Fill-224" fill="#D3D3D3" points="184.628 143.4 203.175 143.4 203.175 124.854 184.628 124.854"></polygon>
            <polygon id="Fill-225" fill="#D3D3D3" points="211.68 143.4 230.227 143.4 230.227 124.854 211.68 124.854"></polygon>
            <polygon id="Fill-226" fill="#D3D3D3" points="238.732 143.4 257.278 143.4 257.278 124.854 238.732 124.854"></polygon>
            <polygon id="Fill-227" fill="#D3D3D3" points="265.784 143.4 284.33 143.4 284.33 124.854 265.784 124.854"></polygon>
            <polygon id="Fill-228" fill="#D3D3D3" points="292.835 143.4 311.382 143.4 311.382 124.854 292.835 124.854"></polygon>
            <polygon id="Fill-229" fill="#D3D3D3" points="319.887 143.4 338.434 143.4 338.434 124.854 319.887 124.854"></polygon>
            <polygon id="Fill-230" fill="#EB5A49" points="346.939 143.4 365.485 143.4 365.485 124.854 346.939 124.854"></polygon>
            <polygon id="Fill-231" fill="#D3D3D3" points="184.628 167.504 203.175 167.504 203.175 148.958 184.628 148.958"></polygon>
            <polygon id="Fill-232" fill="#D3D3D3" points="211.68 167.504 230.227 167.504 230.227 148.958 211.68 148.958"></polygon>
            <polygon id="Fill-233" fill="#D3D3D3" points="238.732 167.504 257.278 167.504 257.278 148.958 238.732 148.958"></polygon>
            <polygon id="Fill-234" fill="#D3D3D3" points="265.784 167.504 284.33 167.504 284.33 148.958 265.784 148.958"></polygon>
            <polygon id="Fill-235" fill="#D3D3D3" points="292.835 167.504 311.382 167.504 311.382 148.958 292.835 148.958"></polygon>
            <polygon id="Fill-236" fill="#D3D3D3" points="319.887 167.504 338.434 167.504 338.434 148.958 319.887 148.958"></polygon>
            <polygon id="Fill-237" fill="#EB5A49" points="346.939 167.504 365.485 167.504 365.485 148.958 346.939 148.958"></polygon>
            <polygon id="Fill-238" fill="#D3D3D3" points="184.628 191.609 203.175 191.609 203.175 173.063 184.628 173.063"></polygon>
            <polygon id="Fill-239" fill="#D3D3D3" points="211.68 191.609 230.227 191.609 230.227 173.063 211.68 173.063"></polygon>
            <polygon id="Fill-240" fill="#D3D3D3" points="238.732 191.609 257.278 191.609 257.278 173.063 238.732 173.063"></polygon>
            <polygon id="Fill-241" fill="#D3D3D3" points="265.784 191.609 284.33 191.609 284.33 173.063 265.784 173.063"></polygon>
            <polygon id="Fill-242" fill="#D3D3D3" points="292.835 191.609 311.382 191.609 311.382 173.063 292.835 173.063"></polygon>
            <polygon id="Fill-243" fill="#D3D3D3" points="319.887 191.609 338.434 191.609 338.434 173.063 319.887 173.063"></polygon>
            <polygon id="Fill-244" fill="#EB5A49" points="346.939 191.609 365.485 191.609 365.485 173.063 346.939 173.063"></polygon>
            <polygon id="Fill-245" fill="#D3D3D3" points="184.628 215.714 203.175 215.714 203.175 197.168 184.628 197.168"></polygon>
            <polygon id="Fill-246" fill="#D3D3D3" points="211.68 215.714 230.227 215.714 230.227 197.168 211.68 197.168"></polygon>
            <polygon id="Fill-247" fill="#D3D3D3" points="238.732 215.714 257.278 215.714 257.278 197.168 238.732 197.168"></polygon>
            <polygon id="Fill-248" fill="#D3D3D3" points="265.784 215.714 284.33 215.714 284.33 197.168 265.784 197.168"></polygon>
            <path d="M248.005,198.212 C239.251,198.212 232.13,191.09 232.13,182.336 C232.13,173.582 239.251,166.46 248.005,166.46 C256.759,166.46 263.88,173.582 263.88,182.336 C263.88,186.575 262.229,190.562 259.23,193.561 C258.235,194.558 256.621,194.558 255.625,193.561 C254.63,192.567 254.63,190.953 255.625,189.957 C257.661,187.921 258.782,185.214 258.782,182.336 C258.782,176.393 253.948,171.559 248.005,171.559 C242.062,171.559 237.228,176.393 237.228,182.336 C237.228,188.279 242.062,193.113 248.005,193.113 C249.413,193.113 250.554,194.255 250.554,195.663 C250.554,197.07 249.413,198.212 248.005,198.212" id="Fill-249" fill="#EB5A49"></path>
            <polyline id="Fill-258" fill="#0D3F72" points="301.904 237.415 285.571 219.162 294.288 211.2 255.721 191.731 268.576 234.686 278.197 225.898 294.461 244.075 301.904 237.415"></polyline>
            <text id="IMPORTANT-DATES" font-family="CaviarDreams-Bold, Caviar Dreams" font-size="21.9482" font-weight="bold" fill="#E84155">
                <tspan x="180.346358" y="82">IMPORTANT DATES</tspan>
            </text>
        </g>
    </g>
</svg>