<?xml version="1.0" encoding="UTF-8"?>
<svg width="264px" height="311px" viewBox="0 0 264 311" version="1.1" xmlns="http://www.w3.org/2000/svg" xmlns:xlink="http://www.w3.org/1999/xlink">
    <!-- Generator: Sketch 52.2 (67145) - http://www.bohemiancoding.com/sketch -->
    <title>Submit</title>
    <desc>Created with Sketch.</desc>
    <g id="Page-1" stroke="none" stroke-width="1" fill="none" fill-rule="evenodd">
        <g id="Submit" transform="translate(0.000000, -1.000000)">
            <g id="Group" transform="translate(132.000000, 156.400000) scale(-1, 1) rotate(-180.000000) translate(-132.000000, -156.400000) translate(0.000000, 0.400000)">
                <path d="M133.7,306.9 C122.1,300.9 110.8,293.9 100.9,286.3 C91,278.8 71.6,260.1 66.9,253.6 C65.1,251 61.1,245.5 58.2,241.4 C43.7,221.1 32.8,191.3 31,167.1 C29.4,145 32.4,123.3 39.5,106.9 C45.2,93.6 48.6,87.6 55.9,77.9 C60,72.4 73.8,58 78.6,54.3 C87.6,47.3 106,36.9 114.8,33.8 C129.3,28.7 133.3,27.4 139.1,26 C154.9,22.2 181.4,21.1 200.5,23.4 C213.8,25 234.2,30.1 244.5,34.4 C245.6,34.8 249.5,36.4 253.3,38 C257,39.5 260,41.1 260,41.6 C260,42 260.9,42.4 262,42.4 C263.1,42.4 264,42.9 264,43.5 C264,44.1 263.2,44.3 262.2,44 C250.1,40.1 223.7,35 222.5,36.3 C221.6,37.1 222,64.4 222.9,64.4 C223.4,64.4 227.2,62.2 231.4,59.4 C235.6,56.7 239.4,54.4 239.7,54.4 C240.1,54.4 241.4,53.4 242.6,52.3 C245,50 248,50.3 248,52.8 C248,54 240.2,59.8 236.5,61.3 C236,61.5 232.5,63.7 228.8,66.1 L222,70.4 L222,78.4 C222,82.8 222.4,86.4 222.8,86.4 C223.3,86.4 228.4,83.3 234.3,79.4 C240.8,75.2 245.5,72.7 246.5,73 C248.8,73.9 248.3,75.9 245.3,77.5 C243.7,78.3 242.1,79.2 241.5,79.7 C238.7,81.8 230,87.4 229.5,87.4 C229.2,87.4 227.4,88.4 225.5,89.7 L222,91.9 L222,100.2 C222,104.7 222.3,108.4 222.7,108.4 C223.1,108.4 228.2,105.2 234,101.4 C241,96.7 245.2,94.6 246.3,95 C247.3,95.3 248,96 248,96.4 C248,97.5 242.9,101.1 231.8,107.9 L222.1,113.9 L222,121.7 C222,130.1 222.6,130.8 227,127.4 C228.4,126.3 229.9,125.4 230.3,125.4 C230.8,125.4 234,123.4 237.6,120.9 C244,116.4 248,115.2 248,117.8 C248,119.1 243.1,123.4 241.6,123.4 C241.2,123.4 240.4,123.9 239.7,124.4 C239,125 234.8,127.7 230.3,130.5 L222,135.5 L222,144 C222,149.7 221.6,152.4 220.8,152.4 C220.2,152.4 215.4,149.8 210.1,146.6 C196.7,138.5 196,138 196,137.3 C196,137 198,135.4 200.5,133.8 C204.1,131.5 205,130.5 205,128.1 C205,125.9 204.6,125.3 203.5,125.8 C201.9,126.4 189.4,134.1 165.5,149.2 C145.4,161.9 146.2,161.4 145.1,161.4 C144.1,161.4 135,156.1 115.3,144 C110.2,140.9 105.6,138.4 105,138.4 C104.5,138.4 104,139.3 104,140.3 C104,142.3 108.9,146 119.5,152 C122.3,153.5 125.9,155.7 127.5,156.9 C129.2,158.1 131.9,159.7 133.5,160.4 C135.2,161.2 136.7,162.1 137,162.5 C137.3,162.8 139.2,164 141.3,165.3 L145,167.6 L145,177.5 C145,183.7 145.4,187.4 146,187.4 C147.2,187.4 148.8,186.5 160.5,178.9 C164.9,176 171.7,171.7 175.5,169.3 C179.4,166.9 182.7,164.6 182.8,164.2 C183,163.7 183.7,163.4 184.3,163.4 C186.3,163.3 195,156.5 195,154.9 C195,152.6 196.7,152.3 200.4,154.1 C204.9,156.2 205,158.4 200.8,160.9 C199,161.9 191.1,166.9 183.2,172.1 C175.4,177.2 167.7,182 166.2,182.9 C164.7,183.7 159.7,186.9 155,189.9 C150.3,192.9 145.8,195.3 145,195.4 C144.1,195.4 138.4,192.3 132.1,188.4 C125.9,184.6 120.7,181.4 120.5,181.4 C120.3,181.4 117.2,179.4 113.7,176.9 C106.4,171.8 104,171.3 104,174.7 C104,176.5 105.5,177.9 110.6,180.9 C122.1,187.8 125.4,189.7 135.3,195.7 L145,201.6 L145,211.5 C145,217.8 145.4,221.4 146.1,221.4 C146.6,221.4 149.8,219.6 153,217.4 C156.2,215.2 159.2,213.4 159.5,213.4 C159.8,213.4 162.4,211.7 165.3,209.6 C168.2,207.4 172,204.9 173.9,203.9 C175.8,203 177.8,201.8 178.4,201.3 C179.4,200.4 182.1,198.7 191.3,193 C192.8,192.1 194.5,190.2 195,188.8 C196.1,185.9 196.1,185.9 201.3,188.5 L205.4,190.7 L202,193.5 C200.1,195.1 198,196.4 197.3,196.4 C196.6,196.4 196,196.9 196,197.4 C196,198 195.6,198.4 195.1,198.4 C194.3,198.4 186.4,203.3 154,224.2 C145.9,229.5 145.3,229.6 140.7,227.3 C138.4,226.1 134.6,223.8 132.3,222.3 C130,220.7 127.9,219.4 127.5,219.4 C127.1,219.4 124.9,218.1 122.5,216.4 C120.1,214.8 117.7,213.4 117.2,213.4 C116.6,213.4 116,213 115.8,212.6 C115.3,211.2 105.8,206.4 104.9,207 C102.9,208.2 104.2,211 107.8,213 C113,215.9 131.3,226.9 138.8,231.7 L145,235.6 L145,245.4 C145,250.7 144.7,255.3 144.4,255.6 C144.1,255.9 138.3,252.5 131.4,248 C124.6,243.6 112.2,235.5 104,230.1 L89,220.3 L89,152.2 C89,84.7 89,84.1 87,85.9 C81.8,90.6 70.5,109.5 66.3,120.4 C60.1,136.6 58,148.2 57.9,166 C57.9,181.8 59.8,197.7 62.7,205.4 C63,206.2 63.5,207.8 63.7,208.9 C65.4,218.2 74.6,236.8 85.7,253.6 C92.7,264.1 97.3,269.7 108,280.4 C120,292.5 135,304.6 141.6,307.6 C144.1,308.8 145.6,311.4 143.7,311.4 C143,311.4 138.6,309.4 133.7,306.9 Z M152.4,149.7 C159,145.7 189,126.5 192.8,123.9 C194.8,122.5 195,121.5 195,113.6 C195,108.8 195.4,104.4 195.8,103.9 C196.2,103.3 198.4,101.6 200.8,100 C204.1,97.7 205,96.5 205,94.3 C205,92.7 204.6,91.4 204.1,91.4 C203.6,91.4 197,95.3 189.6,100.2 C176.1,108.8 163.4,117 160.2,118.9 C159.3,119.5 156.6,121.1 154.3,122.7 C152,124.2 149.7,125.4 149.1,125.4 C148.5,125.4 148,125.9 148,126.4 C148,128.1 142.6,127.4 140,125.4 C138.6,124.3 136.9,123.4 136.3,123.4 C135.6,123.4 135,123 135,122.5 C135,122 134.2,121.4 133.3,121 C132.3,120.7 128.6,118.6 125,116.3 C121.4,114 117.2,111.4 115.5,110.4 C113.9,109.5 110.9,107.7 109,106.6 C104.6,103.8 104,103.9 104,106.8 C104,108.5 104.9,109.7 106.8,110.7 C112.8,113.8 143.5,132.8 144.2,133.8 C144.6,134.4 145,139.1 145,144.2 C145,149.2 145.3,153.4 145.6,153.4 C146,153.4 149,151.7 152.4,149.7 Z M153.1,116.2 C156.9,113.8 160,111.6 160,111.2 C160,110.7 160.4,110.4 161,110.4 C162.2,110.4 193.2,90.4 194.2,88.9 C194.6,88.4 195,76 195,61.5 L195,35.2 L188.3,35.8 C176,36.9 163.3,39.4 151.3,43 L145,44.8 L145,82.6 C145,103.4 145.3,120.4 145.6,120.4 C146,120.4 149.4,118.5 153.1,116.2 Z" id="Shape" fill="#3A70B4" fill-rule="nonzero"></path>
                <path d="M74.5,279.3 C61.9,270.6 52.2,261.8 42.7,250.4 C38.8,245.7 35.1,241.5 34.5,240.9 C30.9,237.6 18.4,216.6 14,206.4 C12.3,202.3 10.2,197.6 9.4,196 C8.6,194.4 8,192.4 8,191.4 C8,190.5 7.6,189.4 7.1,188.9 C6.6,188.3 4.9,182.5 3.4,175.9 C0.7,164.7 0.5,162.5 0.5,142.9 C0.5,123.3 0.7,121.2 3.3,110.9 C7.7,93.4 13.2,80.6 21.9,67.9 C33.1,51.4 35.4,48.8 48.9,37.5 C51.9,35 54.8,32.5 55.4,32 C56.5,30.9 60.2,28.5 68.5,23.2 C76.8,18 90.2,12.1 102.5,8.4 C104.7,7.7 107.4,6.8 108.5,6.3 C109.6,5.9 112.3,5.3 114.5,4.9 C116.7,4.5 120.5,3.8 123,3.3 C139.6,0.1 159.7,-0.3 174.5,2.4 C194.9,6.1 201.7,7.7 213.5,11.7 C223.5,15 240,22.4 240,23.6 C240,24 240.7,24.4 241.5,24.4 C243,24.4 250.3,28.7 252.8,31.1 C254.6,32.8 253.5,32.7 249.2,30.8 C245.1,29 244.1,28.6 235,25 C228.8,22.6 217.7,19.2 209.8,17.3 C207.7,16.8 204.3,16 202.3,15.4 C196.9,14 187.7,13.2 171,12.7 C157.1,12.3 145.3,13.4 131,16.4 C128.5,16.9 125.2,17.6 123.5,17.9 C121.9,18.3 119.6,18.9 118.5,19.4 C117.4,19.8 112.9,21.7 108.5,23.4 C92.9,29.6 78.8,37.7 67,47.2 C53.2,58.3 38.6,76.4 31.3,91.4 C24.8,104.6 21.8,114.1 18.1,132.2 C16.6,139.7 16.8,164.1 18.5,175.4 C20.8,191.1 24.3,202.5 31.5,217.9 C35.5,226.4 43.6,240.8 45.9,243.6 C46.5,244.3 48.4,246.7 50.1,248.9 C58.5,259.9 68.6,270.7 78.4,279.2 C84.6,284.6 82.3,284.6 74.5,279.3 Z" id="Path" fill="#193559"></path>
            </g>
        </g>
    </g>
</svg>