<svg xmlns="http://www.w3.org/2000/svg" xmlns:xlink="http://www.w3.org/1999/xlink" width="399" height="439"><style><![CDATA[.B{fill:#eae8e4}.C{fill:#d2d0ca}.D{fill:#d2d6d3}.E{fill:#adafab}.F{fill:#456e7f}.G{fill:#a2a5a2}.H{fill:#f6c8a6}.I{fill:#89908e}.J{fill:#d9d8d2}.K{fill:#dc9339}]]></style><g fill-rule="evenodd"><path d="M227.712 23.468h-38.13A19.01 19.01 0 0 1 194.261 12h28.772a19.01 19.01 0 0 1 4.679 11.468zm-25.612-.096h13.093v-.667H202.1v.667zm6.546-9.812c-3.616 0-6.546 2.93-6.546 6.546v2.6h13.093v-2.6c0-1.806-.73-3.444-1.917-4.63s-2.823-1.916-4.63-1.916zm13.103-2.893h-26.204c3.42-3.227 8.03-5.205 13.1-5.205a19.03 19.03 0 0 1 13.103 5.205z" class="B"/><path d="M223.033 12H194.26l1.284-1.333h26.204L223.033 12" class="D"/><path d="M202.1 23.372h13.093v-.667H202.1zm-12.552 1.188v-.667l.008-.426A19 19 0 0 1 193.705 12h.556a19.01 19.01 0 0 0-4.679 11.468h-.026l-.008.426v.654m38.198-.654l-.008-.426h-.026A19.01 19.01 0 0 0 223.033 12h.556a19 19 0 0 1 4.149 11.468l.008.426m-5.324-13.227h-.673a19.03 19.03 0 0 0-13.103-5.205c-5.07 0-9.682 1.978-13.1 5.205h-.673c3.475-3.62 8.362-5.872 13.774-5.872s10.3 2.253 13.776 5.872" class="B"/><path d="M223.59 12h-.556l-1.284-1.333h.673L223.59 12m-29.328 0h-.556l1.167-1.333h.673L194.26 12" class="D"/><g class="B"><path d="M227.746 25h-38.198v-1.097l.008-.426h38.182l.008.426V25m22.814 2.48h-83.828a3.68 3.68 0 0 1 3.172-1.811h77.483c1.35 0 2.53.727 3.173 1.8"/><path d="M250.87 27.47h-.31c-.642-1.084-1.823-1.81-3.173-1.81h-77.483a3.68 3.68 0 0 0-3.172 1.811h-.31c.5-1.443 1.87-2.48 3.48-2.48h77.483c1.612 0 2.982 1.036 3.482 2.48"/></g><g class="D"><path d="M95.54 333.706l-5.874-1.04h8.616l-.534.75-2.208.29"/><path d="M97.203 334H43.776l.236-1.333h45.654L97.203 334m5.66 22.498l.146-.83H103l-.147.83m-.003 0l-4.698-.83h4.845l-.147.83"/></g><path d="M167.616 228.8l-1.336-9.215a4.56 4.56 0 0 0-5.165-3.858l-1.943-13.41c-.37-2.56-2.748-4.336-5.31-3.965l-.627.09-1.743-12.03a7.6 7.6 0 0 0-8.61-6.431l-38.033 5.51a6.13 6.13 0 0 0-2.022.665l-34.49 18.462-2.5 8.207 57.26 43.232c.977-1.735 2.703-2.968 4.733-3.262l27.656-4.006a8.96 8.96 0 0 0 7.603-9.983l-.395-3.145a1.56 1.56 0 0 1 1.257-1.728 4.56 4.56 0 0 0 3.663-5.133" fill="#e6b395"/><path d="M88.464 218.085c-.76 0-1.494-.42-1.857-1.15-.51-1.025-.094-2.27.93-2.78l19.986-9.96v4.633l-18.137 9.04c-.297.148-.612.218-.923.218" fill="#db9a7a"/><path d="M286.053 27.47H117.24a9.72 9.72 0 0 0-9.717 9.717v229.4a9.72 9.72 0 0 0 9.717 9.718h168.812a9.72 9.72 0 0 0 9.716-9.718v-229.4a9.72 9.72 0 0 0-9.716-9.717" fill="#ed9c3b"/><path d="M287.33 46.782V230.66l-31.267 35.927H125.556c-5.297 0-9.592-4.294-9.592-9.595v-210.2c0-5.3 4.295-9.595 9.592-9.595h152.18c5.297 0 9.592 4.295 9.592 9.595" fill="#fffffe"/><path d="M146.33 106.652c-4.26 0-7.715-3.453-7.715-7.715s3.454-7.714 7.715-7.714 7.715 3.454 7.715 7.714a7.72 7.72 0 0 1-7.715 7.715zm0-20.84a13.13 13.13 0 0 0-13.125 13.125 13.13 13.13 0 0 0 13.125 13.126 13.13 13.13 0 0 0 13.126-13.126 13.13 13.13 0 0 0-13.126-13.125zm0 61.514a7.72 7.72 0 0 1-7.715-7.715 7.72 7.72 0 0 1 7.715-7.715c4.26 0 7.715 3.454 7.715 7.715s-3.454 7.715-7.715 7.715zm0-20.84a13.13 13.13 0 0 0-13.125 13.125 13.13 13.13 0 0 0 13.125 13.126 13.13 13.13 0 0 0 13.126-13.126 13.13 13.13 0 0 0-13.126-13.125zm0 61.757c-4.26 0-7.715-3.454-7.715-7.714a7.72 7.72 0 0 1 7.715-7.715c4.26 0 7.715 3.454 7.715 7.715s-3.454 7.714-7.715 7.714zm0-20.84a13.13 13.13 0 0 0-13.125 13.126 13.13 13.13 0 0 0 13.125 13.125 13.13 13.13 0 0 0 13.126-13.125 13.13 13.13 0 0 0-13.126-13.126z" class="C"/><text font-family="LucidaGrande, Lucida Grande" font-size="21.948" fill="#5a5a5a"><tspan x="171" y="71">Notes</tspan></text><g class="E"><use xlink:href="#B"/><path d="M178.23 101.524h90.627V96.35H178.23z"/><use xlink:href="#B" y="18.212"/><use xlink:href="#B" y="40.674"/><use xlink:href="#B" y="49.779"/><use xlink:href="#B" y="58.885"/><use xlink:href="#B" y="81.592"/><use xlink:href="#B" y="90.697"/><use xlink:href="#B" y="99.802"/></g><path d="M145.368 107.574l-11.48-11.48 4.152-4.152 7.18 7.18 16.223-17.4 4.293 4.005-20.37 21.835m.002 38.45l-11.48-11.48 4.152-4.152 7.18 7.18 16.223-17.4 4.293 4.005L145.366 146m.002 41.02l-11.48-11.48 4.152-4.15 7.18 7.18 16.223-17.4 4.293 4.004L145.366 187" fill="#409b46"/><g class="E"><path d="M195.1 16.106c0-3.616 2.93-6.546 6.547-6.546 1.806 0 3.445.73 4.63 1.916s1.917 2.824 1.917 4.63v2.6H195.1v-2.6zm25.638 3.362A19.1 19.1 0 0 0 201.647.795a19.1 19.1 0 0 0-19.091 18.673l-.008.426v7.576h38.198v-7.576l-.008-.426z"/><path d="M195.1 19.372h13.093v-.667H195.1z"/></g><path d="M220.738 19.468A19.1 19.1 0 0 0 201.647.795a19.1 19.1 0 0 0-19.091 18.673l-.008.426v.667l.008-.426a19.1 19.1 0 0 1 19.091-18.673 19.1 19.1 0 0 1 19.091 18.673 7.48 7.48 0 0 1 .008.426v-.667l-.008-.426" class="C"/><path d="M220.746 19.894v7.576h-38.198v-7.576l.008-.426h38.182l.008.426" class="I"/><path d="M240.104 46.523H163.2a3.97 3.97 0 0 1-3.968-3.968V24.96a3.97 3.97 0 0 1 3.968-3.969h76.914a3.97 3.97 0 0 1 3.967 3.969v17.595a3.97 3.97 0 0 1-3.967 3.968" class="E"/><path d="M240.388 20.99h-77.483c-2.034 0-3.683 1.65-3.683 3.684v.667c0-2.034 1.65-3.684 3.683-3.684h77.483c2.034 0 3.683 1.65 3.683 3.684v-.667c0-2.034-1.65-3.684-3.683-3.684" class="C"/><path d="M240.388 41.95h-77.483c-2.034 0-3.683-1.65-3.683-3.683v4.573c0 2.034 1.65 3.683 3.683 3.683h77.483c2.034 0 3.683-1.65 3.683-3.683v-4.573c0 2.034-1.65 3.683-3.683 3.683" class="I"/><g class="C"><use xlink:href="#C"/><use xlink:href="#C" y="5.8"/><path d="M235.897 39.113h-68.5c-.523 0-.952-.43-.952-.953s.43-.953.952-.953h68.5c.524 0 .953.43.953.953s-.43.953-.953.953"/></g><g class="I"><path d="M235.897 26.687h-68.5c-.523 0-.952-.428-.952-.952s.43-.953.952-.953h68.5c.524 0 .953.43.953.953s-.43.952-.953.952"/><use xlink:href="#C" y="5"/><use xlink:href="#C" y="10.8"/></g><path d="M192.747 241.383v-3.33H139.53v-18.36h49.886v21.7h3.33v-3.33 3.33h3.33V213.03h-63.2v31.684h63.2v-3.33h-3.33m71.994-.001v-3.33h-53.217v-18.36H261.4v21.7h3.33v-3.33 3.33h3.33V213.03h-63.2v31.684h63.2v-3.33h-3.33" class="C"/><path d="M256.062 266.587h-5.315l-4.98-21.873h22.305v-13.12l19.257-.933-31.267 35.927m5.348-28.535h-13.624c1.892-2.855 4.955-4.866 8.505-5.35l1.993-.278c1.04-.15 2.082-.282 3.126-.393v6.02" fill="#bdbdb8"/><path d="M268.072 244.714h-22.305c.01-2.462.752-4.75 2.02-6.662H261.4v-6.02l3.9-.304 2.772-.135v13.12m-3.33-3.33v-3.33 3.33" class="G"/><path d="M287.33 230.66h-21.673c-5.298 0-9.594 4.296-9.594 9.595v26.332l31.267-35.927" class="C"/><g class="F"><path d="M182.585 221.432l-1.606.65a18.81 18.81 0 0 1 1.384 7.077c-.002 7.465-4.455 14.537-11.8 17.5-2.325.94-4.72 1.384-7.077 1.384-7.465-.002-14.537-4.456-17.508-11.802-.94-2.325-1.385-4.72-1.385-7.077.002-7.464 4.455-14.537 11.802-17.508a18.81 18.81 0 0 1 7.076-1.384c7.465.002 14.537 4.455 17.5 11.8l3.212-1.3c-3.52-8.7-11.886-13.97-20.72-13.967a22.29 22.29 0 0 0-8.376 1.638c-8.692 3.52-13.97 11.885-13.968 20.72 0 2.793.528 5.635 1.638 8.378 3.52 8.7 11.886 13.97 20.72 13.967 2.793 0 5.635-.528 8.377-1.638 8.7-3.52 13.97-11.886 13.967-20.72 0-2.793-.528-5.635-1.638-8.377l-1.606.65m-8.357-4.513c-2.968-2.6-6.8-4.062-10.774-4.063a16.24 16.24 0 0 0-6.097 1.192c-5.908 2.392-9.64 7.858-10.124 13.798l-.23 2.803 29.34-11.876-2.115-1.854-1.143 1.303-.65-1.606-24.125 9.765.65 1.607 1.727.14c.387-4.7 3.318-8.987 7.97-10.868a12.74 12.74 0 0 1 4.797-.939 12.91 12.91 0 0 1 8.489 3.203l1.142-1.303-.65-1.606.65 1.606 1.143-1.303zm-20.42 23.138l-1.15 1.296a16.37 16.37 0 0 0 10.85 4.13 16.21 16.21 0 0 0 6.095-1.192c5.942-2.406 9.682-7.92 10.13-13.9l.2-2.785-29.377 11.9 2.1 1.854 1.15-1.296.65 1.606 24.2-9.795-.65-1.606-1.728-.13c-.36 4.72-3.297 9.055-7.976 10.948a12.77 12.77 0 0 1-4.795.939c-3.148 0-6.205-1.174-8.55-3.258l-1.15 1.296.65 1.606-.65-1.606"/><path d="M184.178 225.37L146.5 240.62l1.3 3.212 37.678-15.252m-42.165 4.167l37.678-15.25-1.3-3.212-37.68 15.25"/></g><path d="M147.162 206.68c3.256-4.832 2.072-11.446-2.646-14.787-4.368-3.092-10.314-2.323-13.79 1.785l-27.094 31.99c-2.03 2.394-5.408 3.034-8.14 1.54l-13.38-7.32c-3.698-2.022-6.906-4.863-9.39-8.316l-4.478-6.22-11.172 6.114a6.29 6.29 0 0 0-3.133 4.312l-10.83 55.118a5.65 5.65 0 0 0-.018 2.083l7.098 39.515L46.258 339l44.41-5.94c6.35-9.134 8.49-11.283 11.32-15.824 5.735-9.195 10.338-19.08 13.1-29.615l7.34-28.095c.143-.548.363-1.06.628-1.54l2.718-19.558 21.398-31.75" class="H"/><path d="M102.253 350.76c3.734.44 3.266 7.24 2.61 9.552L82.212 439 0 430.157l24.903-88.27c.747-2.31 4.085-3.22 7.834-2.78l69.516 11.65z" class="F"/><path d="M95.862 352.498l3.115-17.61c.315-1.786-.876-3.49-2.662-3.806L41.63 321.41c-1.786-.316-3.5.876-3.805 2.663l-3.116 17.6 61.153 10.816" class="C"/><path d="M95.86 352.498l.844-4.77-61.152-10.817-.844 4.77 61.152 10.816" class="E"/><path d="M341.71 260.852c-6.637-4.075-22.67-13.864-23.48-13.864-.025 0-.036.01-.03.03l-1.747-1.823-.89-3.194h7.035l19.482 17.278-.78 1.196.41.378m-20.616-20.185H315.2l-1.935-6.95 7.838 6.95" class="B"/><path d="M322.596 242h-7.035l-.37-1.333h5.903l1.503 1.333" class="D"/><path d="M351.29 245.15l-3.587-3.15h4.417l.477 1.147-1.307 2.004m.275-4.484h-5.38L321.522 219h9.13l14.868 7.137 6.046 14.53m-23.69-23h-7.87l-9.48-8.328 17.35 8.328" class="B"/><path d="M330.652 219h-9.13l-1.517-1.333h7.87l2.777 1.333m21.468 23h-4.417l-1.517-1.333h5.38l.555 1.333m-26.705-46H302.77v-1.333h17.153l5.494 1.333" class="D"/><path d="M302.77 202.526l-7-6.15V196h7v6.526m0-7.86h-7v-5.09a4.62 4.62 0 0 1 1.531-.26c.368 0 .745.043 1.125.135l4.344 1.055v4.16" class="J"/><path fill="#c5c9c5" d="M295.77 196h7v-1.333h-7z"/><path d="M295.77 196.377l-3.138-2.757c.153-1.88 1.433-3.445 3.138-4.044v6.8" class="K"/><path d="M366.586 279.277a5.15 5.15 0 0 1-3.428-1.302L348.53 265h25.357l.182.16c2.078 1.827 2.352 4.965.62 7.123l-4.066 5.06c-1.025 1.276-2.524 1.933-4.035 1.933m5.783-15.6h-25.343L322.596 242h25.108l24.665 21.667m-26.182-23h-25.094l-7.838-6.95-.49-1.76L307.8 219h13.72l24.665 21.667m-26.182-23H307.3l-.912-2.38c-.763-2-2.028-3.67-3.61-4.928v-7.832l17.236 15.14" class="B"/><path d="M321.522 219H307.8l-.5-1.333h12.715l1.517 1.333m26.182 23h-25.108l-1.503-1.333h25.094l1.517 1.333m26.172 23H348.53l-1.503-1.333h25.343l1.517 1.333" class="D"/><path d="M302.77 210.358a11.61 11.61 0 0 0-7-2.528v-11.453l7 6.15v7.832" class="J"/><path d="M287.567 210.933l-.238-.21v-21.76l8.44 7.415v11.453l-.23-.002a11.59 11.59 0 0 0-1.624.114l-2.836.398c-1.37.643-2.55 1.533-3.513 2.593" class="K"/><path d="M287.33 210.722l-20.86-18.502h2.4v-5.035l7.24-8.1 11.232 9.867v21.76" class="B"/><path d="M268.858 192.22h-2.4l-1.18-1.046 3.57-3.99v5.035" class="G"/><path d="M268.858 187.185v-.137h-5.547l-1.886-3.933h7.433v-5.172h-5.755l1.286-1.558 11.708 2.7-7.24 8.1m-9.913-9.242l-1.52-3.17 1.52 3.17" class="B"/><path d="M268.858 183.115h-7.433l-.952-1.987 2.63-3.185h5.755v5.172m-3.568 8.06l-1.978-4.126h5.547v.137l-3.57 4" class="G"/><path d="M263.103 177.943h-4.158l-1.52-3.17 6.965 1.612-.001.001-1.286 1.558" class="B"/><path d="M260.473 181.128l-1.528-3.185h4.158l-2.63 3.185" class="G"/><path d="M307.8 219h-5.032v-1.333h4.52l.51 1.333" class="D"/><path d="M293.486 280.295l-.062-.262a8.23 8.23 0 0 1-.22-1.624l-.176-5.056c1.697-1.75 2.74-4.136 2.74-6.766V265h7v5.587a9.72 9.72 0 0 1-9.283 9.708zm2.283-16.628h7V242h-7v21.667zm0-23h7V219h-7v21.667zm7-23h-7v-9.837a11.61 11.61 0 0 1 7 2.528v7.31z" class="J"/><path d="M295.77 219h7v-1.333h-7zm0 23h7v-1.333h-7zm0 23h7v-1.333h-7z" fill="#c5c9c5"/><path d="M293.028 273.353l-.893-25.648-3.695-18.378-1.11-2.528v-15.596l.238-.27c.962-1.06 2.143-1.95 3.513-2.593l2.836-.398a11.59 11.59 0 0 1 1.624-.114l.23.002v58.757c0 2.63-1.044 5.016-2.74 6.766" class="K"/><path d="M287.33 226.8l-1.716-3.907c-1.774-4.037-.956-8.546 1.716-11.69V226.8" class="B"/><path d="M299.293 230.594l11.904 12.423c-.21-.812 26.35 15.58 26.35 15.58l12.15-18.632-7.6-18.3-46.928-22.525-8.153-.212c-.11 1.312 12.286 31.655 12.286 31.655" fill="#e6b395"/><path d="M307.438 351.112l-2.788-19.455a3.25 3.25 0 0 1 2.755-3.676l54.366-7.787c1.775-.255 3.42.978 3.675 2.754l2.786 19.455-60.794 8.71" class="C"/><path d="M306.962 346l-.962-4.778L367.038 335l.962 4.778L306.962 346" class="E"/><path d="M370.566 339.07l-67.788 5.61c-3.69.337-6.233 2.338-5.71 4.494L317.777 435 399 428.345l-20.884-86.552c-.614-2.156-3.845-3.063-7.55-2.725" class="F"/><path d="M354.716 200.808l-63.29-15.357c-3.28-.795-6.306 2.025-5.74 5.354l1.586 9.342a3.38 3.38 0 0 1 .024.845l7.583.197 43.642 20.948 7.078 17-11.3 17.327 1.203 1.105a1.31 1.31 0 0 1-.142 2.039l-11.252 6.122c1.578 9.237 5.15 19.77 11.908 26.852 5.377 5.637 13.248 8.397 20.294 11.58l20.818-32.703a10.2 10.2 0 0 0 1.531-6.953l-2.153-15.315-20.604-47.396a1.74 1.74 0 0 0-1.185-.997z" class="H"/><path d="M367.068 261.16l-97.97-86.065-10.808 12.08 97.87 86.8c2.21 1.96 5.613 1.673 7.463-.63l4.066-5.06c1.733-2.158 1.46-5.296-.62-7.123" class="F"/><path d="M258.29 187.174l-7.864-16.402 18.672 4.323-10.808 12.08" class="H"/><path d="M250.425 170.772l3.048 6.356 3.917-4.743-6.965-1.613" class="F"/><path d="M324.183 265.748l-6.213-.893c-.435-.063-.808-.34-.995-.737l-3.21-6.8-.083-.23-2.375-9.218-5.54-19.904-6.388-16.67c-1.936-5.05-7.105-8.098-12.462-7.344l-2.836.398c-5.444 2.557-7.906 9-5.467 14.552l2.826 6.435 3.696 18.378 1.07 30.704a8.25 8.25 0 0 0 .22 1.625l4.66 19.497c.36 1.503 1.068 2.9 2.07 4.08l10.32 12.148a4.97 4.97 0 0 1 1.074 2.181l2.973 13.882 50.69-7.127-2.04-14.502c-.098-.692-.03-1.386.154-2.048-15.898-7.183-29.308-21.807-32.142-38.396" class="H"/></g><defs ><path id="B" d="M178.23 92.418h90.627v-5.172H178.23z"/><path id="C" d="M235.897 27.5h-68.5c-.523 0-.952-.43-.952-.953s.43-.952.952-.952h68.5c.524 0 .953.428.953.952s-.43.953-.953.953"/></defs></svg>