<?xml version="1.0" encoding="UTF-8"?>
<svg width="1412px" height="1103px" viewBox="0 0 1412 1103" version="1.1" xmlns="http://www.w3.org/2000/svg" xmlns:xlink="http://www.w3.org/1999/xlink">
    <!-- Generator: Sketch 52.2 (67145) - http://www.bohemiancoding.com/sketch -->
    <title>59914</title>
    <desc>Created with Sketch.</desc>
    <defs>
        <polygon id="path-1" points="0.12 0.088 278.12 0.088 278.12 369.94 0.12 369.94"></polygon>
    </defs>
    <g id="Page-1" stroke="none" stroke-width="1" fill="none" fill-rule="evenodd">
        <g id="59914">
            <path d="M1207.05,533 C1207.05,827.121 968.62,1065.55 674.5,1065.55 C380.379,1065.55 141.947,827.121 141.947,533 C141.947,238.879 380.379,0.447 674.5,0.447 C968.62,0.447 1207.05,238.879 1207.05,533" id="Fill-3" fill="#D1E7F5"></path>
            <path d="M910.39,996.05 L411.12,996.05 L411.12,277.671 L965.24,277.671 L965.24,949.259 C965.24,975.1 940.68,996.05 910.39,996.05" id="Fill-4" fill="#FFFFFF"></path>
            <polygon id="Fill-5" fill="#145566" points="410.991 311.023 964.19 311.023 964.19 277.671 410.991 277.671"></polygon>
            <path d="M825.51,672.75 C832.97,672.75 832.97,664.315 825.51,664.315 C732.952,664.315 640.394,664.315 547.837,664.315 C540.375,664.315 540.375,672.75 547.837,672.75 L825.51,672.75" id="Fill-6" fill="#D1E7F5"></path>
            <path d="M675.533,334.155 C631.04,334.155 591.219,353.859 564.224,384.993 L675.533,481.442 L786.842,384.993 C759.846,353.859 720.025,334.155 675.533,334.155" id="Fill-7" fill="#C8D6A1"></path>
            <path d="M831.92,459.858 L686.143,480.818 L686.143,628.106 C767.553,628.106 833.43,562.23 833.43,480.818 C833.43,473.698 832.9,466.707 831.92,459.858" id="Fill-8" fill="#145566"></path>
            <path d="M564.381,385.481 C511.91,447.726 519.819,540.554 582.066,593.024 C587.51,597.614 593.199,601.712 599.064,605.381 L676.996,480.409 L564.381,385.481" id="Fill-9" fill="#D1E7F5"></path>
            <path d="M676.794,627.895 C649.194,627.902 621.501,620.197 597.171,604.505 L676.809,480.613 L676.794,627.895" id="Fill-10" fill="#3ABABA"></path>
            <path d="M839.41,451.745 C835.34,423.082 823.02,397.108 804.941,376.256 L693.632,472.705 L839.41,451.745" id="Fill-11" fill="#B5D6CA"></path>
            <polygon id="Fill-12" fill="#3ABABA" points="476.266 963.77 530.374 963.77 530.374 833.447 476.266 833.447"></polygon>
            <polygon id="Fill-13" fill="#B5D6CA" points="476.266 844.226 530.374 844.226 530.374 782.982 476.266 782.982"></polygon>
            <polygon id="Fill-14" fill="#3ABABA" points="832.47 969.65 886.58 969.65 886.58 839.327 832.47 839.327"></polygon>
            <polygon id="Fill-15" fill="#B5D6CA" points="832.47 850.106 886.93 850.106 886.93 729.333 832.47 729.333"></polygon>
            <polygon id="Fill-16" fill="#3ABABA" points="713.737 966.71 767.845 966.71 767.845 829.037 713.737 829.037"></polygon>
            <polygon id="Fill-17" fill="#B5D6CA" points="713.737 908.165 767.845 908.165 767.845 816.789 713.737 816.789"></polygon>
            <polygon id="Fill-18" fill="#3ABABA" points="595.002 965.98 649.109 965.98 649.109 781.084 595.002 781.084"></polygon>
            <polygon id="Fill-19" fill="#B5D6CA" points="595.002 857.375 649.109 857.375 649.109 709.49 595.002 709.49"></polygon>
            <path d="M432.126,290.734 C428.857,290.734 426.197,293.394 426.197,296.663 C426.197,299.933 428.857,302.593 432.126,302.593 C435.396,302.593 438.056,299.933 438.056,296.663 C438.056,293.394 435.396,290.734 432.126,290.734 Z M432.126,303.779 C428.203,303.779 425.011,300.587 425.011,296.663 C425.011,292.74 428.203,289.548 432.126,289.548 C436.05,289.548 439.242,292.74 439.242,296.663 C439.242,300.587 436.05,303.779 432.126,303.779 Z" id="Fill-20" fill="#FFFFFF"></path>
            <path d="M454.065,290.734 C450.796,290.734 448.136,293.394 448.136,296.663 C448.136,299.933 450.796,302.593 454.065,302.593 C457.335,302.593 459.995,299.933 459.995,296.663 C459.995,293.394 457.335,290.734 454.065,290.734 Z M454.065,303.779 C450.142,303.779 446.95,300.587 446.95,296.663 C446.95,292.74 450.142,289.548 454.065,289.548 C457.989,289.548 461.181,292.74 461.181,296.663 C461.181,300.587 457.989,303.779 454.065,303.779 Z" id="Fill-21" fill="#FFFFFF"></path>
            <path d="M476.005,290.734 C472.735,290.734 470.075,293.394 470.075,296.663 C470.075,299.933 472.735,302.593 476.005,302.593 C479.274,302.593 481.934,299.933 481.934,296.663 C481.934,293.394 479.274,290.734 476.005,290.734 Z M476.005,303.779 C472.081,303.779 468.889,300.587 468.889,296.663 C468.889,292.74 472.081,289.548 476.005,289.548 C479.928,289.548 483.12,292.74 483.12,296.663 C483.12,300.587 479.928,303.779 476.005,303.779 Z" id="Fill-22" fill="#FFFFFF"></path>
            <path d="M426.039,1016.97 L72.83,1016.97 L72.83,471.468 L145.463,471.468 C143.142,491.652 141.947,512.194 141.947,533 C141.947,731.312 250.345,904.309 411.12,995.97 L411.12,996.05 L411.258,996.05 C421.476,1001.87 431.915,1007.37 442.542,1012.52 C437.695,1015.35 432.056,1016.97 426.039,1016.97" id="Fill-23" fill="#ABCCC3"></path>
            <path d="M442.542,1012.52 C431.915,1007.37 421.476,1001.87 411.258,996.05 L456.62,996.05 C453.917,1003 448.913,1008.8 442.542,1012.52 M411.12,995.97 C250.345,904.309 141.947,731.312 141.947,533 C141.947,512.194 143.142,491.652 145.463,471.468 L411.12,471.468 L411.12,995.97" id="Fill-24" fill="#C5DCEB"></path>
            <path d="M456.62,996.05 L411.12,996.05 L411.12,471.468 L458.838,471.468 L458.838,984.17 C458.838,988.36 458.052,992.37 456.62,996.05" id="Fill-25" fill="#F0F2F4"></path>
            <path d="M397.11,1001.71 L28.972,1001.71 L28.972,430.198 L444.901,430.198 L444.901,953.92 C444.901,980.31 423.504,1001.71 397.11,1001.71" id="Fill-26" fill="#C8D6A1"></path>
            <polygon id="Fill-27" fill="#FFFFFF" points="73.117 688.748 409.821 688.748 409.821 475.832 73.117 475.832"></polygon>
            <path d="M286.41,549.675 C287.806,552.491 290.224,554.9 294.8,556.608 C303.326,559.791 314.788,557.493 319.703,550.355 C327.919,538.421 325.609,521.343 334.45,508.944 C338.037,503.912 343.51,499.831 349.959,497.992 C356.408,496.152 363.809,496.691 369.548,499.852 C378.897,505.002 382.132,515.643 382.223,525.3 C382.398,543.848 379.805,563.021 376.464,581.324 C374.847,590.18 372.358,599.279 365.939,606.277 C357.233,615.767 342.898,619.72 329.19,621.832 C294.504,627.178 258.928,623.91 223.908,620.628 C195.739,617.988 167.57,615.348 139.401,612.708 C131.461,611.964 108.08,613.165 103.326,607.663 C98.684,602.291 102.332,584.083 105.047,578.465 C111.092,565.95 127.629,558.888 143.149,559.682 C178.158,561.474 164.319,524.914 175.524,507.554 C181.477,498.332 194.586,491.704 205.877,495.547 C216.645,499.213 221.142,510.021 226.449,518.991 C229.204,523.648 233.118,528.475 239.007,529.483 C249.019,531.195 257.372,521.018 267.565,521.408 C273.601,521.64 278.736,525.713 281.342,530.475 C284.887,536.952 283.65,544.109 286.41,549.675" id="Fill-28" fill="#D1E7F5"></path>
            <path d="M387.815,677.195 C387.8,677.194 387.87,661.87 387.873,661.028 C387.955,638.16 387.952,615.29 387.98,592.421 C388.007,570.57 389.808,548.727 389.454,526.931 C389.296,516.848 384.94,511.578 374.321,514.283 C363.867,516.945 354.303,523.15 347.723,531.712 C343.266,537.511 339.561,544.773 332.63,547.108 C320.242,551.283 310.106,537.33 298.982,530.465 C287.003,523.074 270.329,524.318 259.581,533.406 C246.592,544.39 243.613,563.38 232.621,576.362 C220.522,590.65 198.545,595.487 181.566,587.599 C174.591,584.358 168.596,579.309 161.721,575.862 C134.453,562.193 96.542,581.861 92.017,612.025 L92.017,674.444 C92.017,674.444 388.365,677.745 387.815,677.195" id="Fill-29" fill="#B5D6CA"></path>
            <polygon id="Fill-30" fill="#EAC5B0" points="78.619 746.516 103.927 746.516 103.927 721.208 78.619 721.208"></polygon>
            <polygon id="Fill-31" fill="#FFD559" points="78.619 783.928 103.927 783.928 103.927 758.62 78.619 758.62"></polygon>
            <polygon id="Fill-32" fill="#FFFFFF" points="124.833 736.613 198.556 736.613 198.556 728.911 124.833 728.911"></polygon>
            <polygon id="Fill-33" fill="#FFFFFF" points="123.733 777.326 197.456 777.326 197.456 769.623 123.733 769.623"></polygon>
            <polygon id="Fill-34" fill="#FFFFFF" points="81.92 835.403 403.219 835.403 403.219 827.081 81.92 827.081"></polygon>
            <polygon id="Fill-35" fill="#FFFFFF" points="81.92 965.28 224.964 965.28 224.964 851.255 81.92 851.255"></polygon>
            <polygon id="Fill-36" fill="#FFFFFF" points="246.971 902.008 403.219 902.008 403.219 852.355 246.971 852.355"></polygon>
            <polygon id="Fill-37" fill="#FFFFFF" points="245.32 964.73 401.569 964.73 401.569 915.075 245.32 915.075"></polygon>
            <path d="M264.78,194.015 L1.904,194.015 C0.891,194.015 0.07,194.909 0.07,196.013 L0.07,335.273 C0.07,369.606 25.613,397.438 57.124,397.438 L166.119,397.438 L210.685,459.964 C211.877,461.636 214.511,460.815 214.541,458.762 L215.456,397.438 L264.78,397.438 C265.793,397.438 266.614,396.543 266.614,395.44 L266.614,196.013 C266.614,194.909 265.793,194.015 264.78,194.015" id="Fill-38" fill="#7FCF6F"></path>
            <polygon id="Fill-39" fill="#FFFFFF" points="34.494 234.117 198.24 234.117 198.24 227.295 34.494 227.295"></polygon>
            <polygon id="Fill-40" fill="#FFFFFF" points="34.494 286.141 229.795 286.141 229.795 279.318 34.494 279.318"></polygon>
            <polygon id="Fill-41" fill="#FFFFFF" points="34.494 338.164 229.795 338.164 229.795 331.341 34.494 331.341"></polygon>
            <path d="M435.812,259.307 L240.835,259.307 L240.835,121.096 L423.413,121.096 L462.515,162.395 L462.515,230.768 C462.515,246.53 450.56,259.307 435.812,259.307" id="Fill-42" fill="#3ABABA"></path>
            <polyline id="Fill-43" fill="#FFD559" points="462.361 162.724 423.105 163.711 423.105 121.096 462.361 162.724"></polyline>
            <polygon id="Fill-44" fill="#FFFFFF" points="294.305 162.889 418.692 162.889 418.692 156.965 294.305 156.965"></polygon>
            <polygon id="Fill-45" fill="#FFFFFF" points="274.6 191.518 418.692 191.518 418.692 185.595 274.6 185.595"></polygon>
            <polygon id="Fill-46" fill="#FFFFFF" points="274.6 220.148 418.692 220.148 418.692 214.224 274.6 214.224"></polygon>
            <path d="M828.54,535.95 C827.8,535.95 827.16,535.406 827.06,534.654 C826.78,532.63 826.6,530.57 826.51,528.534 C826.48,527.706 827.13,527.008 827.95,526.975 C828.78,526.944 829.48,527.587 829.51,528.415 C829.59,530.354 829.76,532.316 830.03,534.245 C830.14,535.066 829.57,535.823 828.75,535.936 L828.54,535.95" id="Fill-47" fill="#145566"></path>
            <path d="M1201.5,381.197 C1201.22,381.197 1200.94,381.119 1200.69,380.958 C1199.99,380.51 1199.79,379.582 1200.24,378.885 C1202.31,375.669 1204.31,372.232 1206.2,368.67 C1206.59,367.938 1207.5,367.661 1208.23,368.048 C1208.96,368.437 1209.24,369.345 1208.85,370.077 C1206.92,373.713 1204.87,377.222 1202.76,380.508 C1202.47,380.953 1201.99,381.197 1201.5,381.197 M1186.62,399.859 C1186.24,399.859 1185.85,399.713 1185.56,399.419 C1184.97,398.833 1184.97,397.883 1185.56,397.298 C1188.25,394.611 1190.88,391.649 1193.38,388.497 C1193.9,387.848 1194.84,387.738 1195.49,388.253 C1196.14,388.767 1196.25,389.711 1195.73,390.36 C1193.16,393.603 1190.45,396.652 1187.68,399.421 C1187.39,399.714 1187,399.859 1186.62,399.859 M1167.58,414.188 C1167.05,414.188 1166.53,413.902 1166.26,413.399 C1165.87,412.669 1166.14,411.76 1166.87,411.367 C1170.24,409.551 1173.56,407.416 1176.72,405.023 C1177.38,404.522 1178.32,404.652 1178.82,405.312 C1179.32,405.973 1179.19,406.913 1178.53,407.414 C1175.25,409.901 1171.8,412.12 1168.29,414.009 C1168.07,414.13 1167.82,414.188 1167.58,414.188 M1002,417.517 C1001.2,417.517 1000.54,416.885 1000.5,416.078 C1000.47,415.25 1001.11,414.552 1001.94,414.518 C1005.86,414.358 1009.89,414.253 1013.94,414.206 C1014.75,414.218 1015.44,414.86 1015.45,415.688 C1015.46,416.517 1014.8,417.196 1013.97,417.206 C1009.96,417.252 1005.95,417.357 1002.06,417.516 L1002,417.517 M1037.87,417.55 L1037.81,417.549 C1033.78,417.393 1029.77,417.285 1025.89,417.227 C1025.06,417.215 1024.4,416.533 1024.41,415.705 C1024.42,414.877 1025.1,414.189 1025.93,414.227 C1029.84,414.285 1033.88,414.394 1037.92,414.551 C1038.75,414.583 1039.4,415.28 1039.36,416.108 C1039.33,416.916 1038.67,417.55 1037.87,417.55 M1061.74,418.985 L1061.62,418.981 C1057.6,418.659 1053.6,418.378 1049.72,418.143 C1048.89,418.093 1048.26,417.382 1048.31,416.555 C1048.36,415.728 1049.07,415.104 1049.9,415.148 C1053.8,415.384 1057.82,415.667 1061.86,415.99 C1062.68,416.056 1063.3,416.779 1063.23,417.605 C1063.17,418.39 1062.51,418.985 1061.74,418.985 M978.16,419.267 C977.4,419.267 976.75,418.698 976.67,417.929 C976.58,417.105 977.17,416.365 978,416.276 C981.9,415.854 985.92,415.491 989.96,415.197 C990.78,415.137 991.5,415.757 991.56,416.583 C991.62,417.409 991,418.128 990.17,418.189 C986.17,418.48 982.19,418.84 978.32,419.258 L978.16,419.267 M1085.54,421.287 L1085.38,421.278 L1081.82,420.89 C1079.05,420.591 1076.28,420.306 1073.5,420.035 C1072.68,419.955 1072.08,419.222 1072.16,418.397 C1072.24,417.573 1072.97,416.967 1073.79,417.05 C1076.58,417.321 1079.37,417.607 1082.14,417.907 L1085.7,418.296 C1086.53,418.386 1087.12,419.127 1087.03,419.95 C1086.95,420.718 1086.3,421.287 1085.54,421.287 M1145.09,422.045 C1144.39,422.045 1143.76,421.547 1143.62,420.83 C1143.46,420.017 1144,419.23 1144.81,419.073 C1148.76,418.309 1152.57,417.295 1156.15,416.059 C1156.93,415.788 1157.79,416.204 1158.06,416.987 C1158.33,417.77 1157.91,418.624 1157.13,418.894 C1153.42,420.177 1149.47,421.227 1145.38,422.018 C1145.28,422.036 1145.19,422.045 1145.09,422.045 M954.51,422.754 C953.8,422.754 953.17,422.253 953.04,421.533 C952.88,420.719 953.42,419.934 954.23,419.78 C958.09,419.048 962.08,418.379 966.08,417.792 C966.9,417.673 967.66,418.238 967.78,419.058 C967.9,419.878 967.34,420.64 966.52,420.76 C962.56,421.341 958.61,422.003 954.79,422.728 C954.69,422.745 954.6,422.754 954.51,422.754 M1109.35,423.548 L1109.25,423.545 C1105.68,423.312 1101.77,422.984 1097.29,422.541 C1096.46,422.46 1095.86,421.726 1095.94,420.901 C1096.02,420.077 1096.76,419.471 1097.58,419.556 C1102.03,419.995 1105.91,420.321 1109.45,420.551 C1110.27,420.605 1110.9,421.319 1110.85,422.145 C1110.79,422.939 1110.13,423.548 1109.35,423.548 M1122.5,424.009 L1121.29,424.004 C1120.46,423.998 1119.79,423.322 1119.8,422.494 C1119.8,421.665 1120.45,420.988 1121.31,421.005 L1122.5,421.009 C1126.21,421.009 1129.79,420.878 1133.13,420.619 C1133.95,420.558 1134.68,421.172 1134.74,421.998 C1134.81,422.824 1134.19,423.546 1133.36,423.61 C1129.94,423.875 1126.29,424.009 1122.5,424.009 M931.25,428.259 C930.6,428.259 930,427.831 929.81,427.173 C929.58,426.377 930.04,425.546 930.84,425.317 C934.63,424.227 938.54,423.204 942.47,422.277 C943.28,422.086 944.09,422.586 944.28,423.392 C944.47,424.198 943.97,425.006 943.16,425.197 C939.28,426.113 935.41,427.124 931.66,428.2 C931.53,428.24 931.39,428.259 931.25,428.259 M908.65,436.044 C908.06,436.044 907.5,435.69 907.26,435.108 C906.95,434.34 907.32,433.465 908.09,433.153 C911.75,431.665 915.55,430.245 919.36,428.933 C920.14,428.664 921,429.081 921.27,429.864 C921.54,430.647 921.12,431.501 920.34,431.77 C916.57,433.064 912.83,434.465 909.22,435.933 C909.03,436.008 908.84,436.044 908.65,436.044 M887.06,446.295 C886.53,446.295 886.02,446.015 885.74,445.518 C885.34,444.792 885.61,443.879 886.34,443.481 C889.82,441.565 893.43,439.721 897.06,437.998 C897.81,437.644 898.71,437.962 899.06,438.711 C899.42,439.459 899.1,440.354 898.35,440.709 C894.77,442.406 891.21,444.223 887.78,446.11 C887.55,446.236 887.3,446.295 887.06,446.295 M867.08,459.409 C866.63,459.409 866.19,459.212 865.9,458.835 C865.39,458.184 865.5,457.241 866.15,456.729 C869.29,454.26 872.6,451.888 875.97,449.679 C876.66,449.225 877.59,449.419 878.05,450.112 C878.5,450.804 878.31,451.734 877.61,452.188 C874.31,454.351 871.08,456.672 868,459.088 C867.73,459.304 867.4,459.409 867.08,459.409 M849.71,475.808 C849.36,475.808 849.01,475.687 848.73,475.439 C848.1,474.895 848.04,473.947 848.58,473.323 C851.18,470.348 854,467.417 856.98,464.61 C857.58,464.043 858.53,464.071 859.1,464.674 C859.67,465.277 859.64,466.226 859.04,466.794 C856.13,469.533 853.37,472.393 850.84,475.294 C850.55,475.634 850.13,475.808 849.71,475.808 M836.19,495.464 C835.96,495.464 835.72,495.41 835.5,495.297 C834.77,494.917 834.48,494.012 834.86,493.276 C836.66,489.78 838.77,486.281 841.13,482.877 C841.6,482.196 842.53,482.027 843.21,482.498 C843.89,482.97 844.06,483.904 843.59,484.585 C841.31,487.883 839.27,491.27 837.52,494.651 C837.26,495.167 836.73,495.464 836.19,495.464 M828.69,518.049 L828.46,518.032 C827.64,517.908 827.08,517.143 827.2,516.324 C827.8,512.385 828.77,508.398 830.09,504.473 C830.36,503.688 831.21,503.266 831.99,503.53 C832.78,503.794 833.2,504.645 832.94,505.43 C831.67,509.191 830.74,513.007 830.17,516.774 C830.06,517.517 829.42,518.049 828.69,518.049" id="Fill-48" fill="#145566"></path>
            <path d="M1212.77,360.05 C1212.57,360.05 1212.36,360.009 1212.17,359.922 C1211.41,359.588 1211.06,358.702 1211.4,357.944 C1212.19,356.162 1212.96,354.317 1213.71,352.461 C1214.02,351.693 1214.9,351.321 1215.66,351.631 C1216.43,351.941 1216.8,352.814 1216.49,353.583 C1215.73,355.469 1214.94,357.344 1214.14,359.156 C1213.9,359.716 1213.35,360.05 1212.77,360.05" id="Fill-49" fill="#145566"></path>
            <path d="M1286.9,240.478 L1280.63,382.745 L1233.66,333.429 C1233.66,333.429 1287.1,236.489 1287.47,238.092 L1285.42,236.381 C1287,235.929 1228.26,329.752 1228.26,329.752 L1162.33,312.669 L1283.61,238.04 L1286.9,240.478" id="Fill-50" fill="#3ABABA"></path>
            <path d="M1203.82,901.609 L1058.87,901.609 C1062.35,897.983 1065.78,894.301 1069.16,890.578 L1096.32,890.578 L1096.32,891.279 L1096.94,891.279 L1096.94,890.578 L1138.01,890.578 L1138.01,891.279 L1138.63,891.279 L1138.63,890.578 L1179.71,890.578 L1179.71,891.279 L1180.33,891.279 L1180.33,890.578 L1203.82,890.578 L1203.82,901.609" id="Fill-51" fill="#ABCCC3"></path>
            <path d="M1058.87,901.609 L965.24,901.609 L965.24,890.578 L971.25,890.578 L971.25,891.279 L971.87,891.279 L971.87,890.578 L1012.94,890.578 L1012.94,891.279 L1013.56,891.279 L1013.56,890.578 L1054.63,890.578 L1054.63,891.279 L1055.25,891.279 L1055.25,890.578 L1069.16,890.578 C1065.78,894.301 1062.35,897.983 1058.87,901.609" id="Fill-52" fill="#C5DCEB"></path>
            <polyline id="Fill-53" fill="#F0F2F4" points="965.24 901.609 926.59 901.609 926.59 701.196 936.07 701.196 936.07 890.578 965.24 890.578 965.24 901.609"></polyline>
            <polygon id="Fill-54" fill="#7FCF6F" points="936.07 890.578 1215.17 890.578 1215.17 689.568 936.07 689.568"></polygon>
            <polygon id="Fill-55" fill="#B5D6CA" points="936.07 705.569 1214.79 705.569 1214.79 689.568 936.07 689.568"></polygon>
            <path d="M1179.71,891.279 L1180.33,891.279 L1180.33,890.578 L1179.71,890.578 L1179.71,891.279 Z M1138.01,891.279 L1138.63,891.279 L1138.63,890.578 L1138.01,890.578 L1138.01,891.279 Z M1096.32,891.279 L1096.94,891.279 L1096.94,890.578 L1096.32,890.578 L1096.32,891.279 Z" id="Fill-56" fill="#A7C7BE"></path>
            <path d="M1054.63,891.279 L1055.25,891.279 L1055.25,890.578 L1054.63,890.578 L1054.63,891.279 Z M1012.94,891.279 L1013.56,891.279 L1013.56,890.578 L1012.94,890.578 L1012.94,891.279 Z M971.25,891.279 L971.87,891.279 L971.87,890.578 L971.25,890.578 L971.25,891.279 Z" id="Fill-57" fill="#C0D6E5"></path>
            <path d="M1180.33,890.578 L1179.71,890.578 L1179.71,855.933 L1138.63,855.933 L1138.63,890.578 L1138.01,890.578 L1138.01,855.933 L1096.94,855.933 L1096.94,890.578 L1096.32,890.578 L1096.32,855.933 L1055.25,855.933 L1055.25,890.578 L1054.63,890.578 L1054.63,855.933 L1013.56,855.933 L1013.56,890.578 L1012.94,890.578 L1012.94,855.933 L971.87,855.933 L971.87,890.578 L971.25,890.578 L971.25,855.933 L937.04,855.933 L937.04,855.313 L971.25,855.313 L971.25,817.327 L937.04,817.327 L937.04,816.707 L971.25,816.707 L971.25,778.721 L937.04,778.721 L937.04,778.101 L971.25,778.101 L971.25,740.115 L937.04,740.115 L937.04,739.495 L971.25,739.495 L971.25,705.876 L971.87,705.876 L971.87,739.495 L1012.94,739.495 L1012.94,705.876 L1013.56,705.876 L1013.56,739.495 L1054.63,739.495 L1054.63,705.876 L1055.25,705.876 L1055.25,739.495 L1096.32,739.495 L1096.32,705.876 L1096.94,705.876 L1096.94,739.495 L1138.01,739.495 L1138.01,705.876 L1138.63,705.876 L1138.63,739.495 L1179.71,739.495 L1179.71,705.876 L1180.33,705.876 L1180.33,739.495 L1214.59,739.495 L1214.59,740.115 L1180.33,740.115 L1180.33,778.101 L1214.59,778.101 L1214.59,778.721 L1180.33,778.721 L1180.33,816.707 L1214.59,816.707 L1214.59,817.327 L1180.33,817.327 L1180.33,855.313 L1214.59,855.313 L1214.59,855.933 L1180.33,855.933 L1180.33,890.578 Z M1138.63,855.313 L1179.71,855.313 L1179.71,817.327 L1138.63,817.327 L1138.63,855.313 Z M1096.94,855.313 L1138.01,855.313 L1138.01,817.327 L1096.94,817.327 L1096.94,855.313 Z M1055.25,855.313 L1096.32,855.313 L1096.32,817.327 L1055.25,817.327 L1055.25,855.313 Z M1013.56,855.313 L1054.63,855.313 L1054.63,817.327 L1013.56,817.327 L1013.56,855.313 Z M971.87,855.313 L1012.94,855.313 L1012.94,817.327 L971.87,817.327 L971.87,855.313 Z M1138.63,816.707 L1179.71,816.707 L1179.71,778.721 L1138.63,778.721 L1138.63,816.707 Z M1096.94,816.707 L1138.01,816.707 L1138.01,778.721 L1096.94,778.721 L1096.94,816.707 Z M1055.25,816.707 L1096.32,816.707 L1096.32,778.721 L1055.25,778.721 L1055.25,816.707 Z M1013.56,816.707 L1054.63,816.707 L1054.63,778.721 L1013.56,778.721 L1013.56,816.707 Z M971.87,816.707 L1012.94,816.707 L1012.94,778.721 L971.87,778.721 L971.87,816.707 Z M1138.63,778.101 L1179.71,778.101 L1179.71,740.115 L1138.63,740.115 L1138.63,778.101 Z M1096.94,778.101 L1138.01,778.101 L1138.01,740.115 L1096.94,740.115 L1096.94,778.101 Z M1055.25,778.101 L1096.32,778.101 L1096.32,740.115 L1055.25,740.115 L1055.25,778.101 Z M1013.56,778.101 L1054.63,778.101 L1054.63,740.115 L1013.56,740.115 L1013.56,778.101 Z M971.87,778.101 L1012.94,778.101 L1012.94,740.115 L971.87,740.115 L971.87,778.101 Z" id="Fill-58" fill="#F8F8F8"></path>
            <path d="M1185.14,731.338 C1180.44,731.338 1176.62,735.151 1176.62,739.854 C1176.62,742.227 1177.6,744.372 1179.16,745.916 C1169.29,754.42 1159.41,762.924 1149.54,771.427 C1148.79,772.074 1148.04,772.721 1147.28,773.367 C1145.82,772.192 1143.97,771.485 1141.95,771.485 C1137.25,771.485 1133.43,775.298 1133.43,780.001 C1133.43,782.995 1134.98,785.622 1137.32,787.141 C1135.15,792.349 1132.99,797.556 1130.83,802.764 C1129.91,804.985 1128.98,807.205 1128.06,809.426 C1127.44,809.282 1126.8,809.199 1126.14,809.199 C1122.99,809.199 1120.25,810.906 1118.78,813.439 C1109.24,807.41 1099.7,801.38 1090.16,795.349 C1083.09,790.882 1076.02,786.413 1068.95,781.946 C1069.34,780.967 1069.56,779.903 1069.56,778.784 C1069.56,774.081 1065.75,770.268 1061.05,770.268 C1056.35,770.268 1052.53,774.081 1052.53,778.784 C1052.53,779.38 1052.6,779.962 1052.71,780.523 C1039.33,785.984 1025.95,791.445 1012.58,796.905 C1011.26,797.441 1009.95,797.976 1008.64,798.512 C1007.33,795.495 1004.33,793.383 1000.83,793.383 C996.13,793.383 992.31,797.196 992.31,801.899 C992.31,804.341 993.35,806.536 994.99,808.09 C993.01,810.345 991.02,812.599 989.03,814.855 C979.55,825.621 970.06,836.387 960.58,847.152 C959.22,846.233 957.58,845.696 955.82,845.696 C951.11,845.696 947.3,849.509 947.3,854.212 C947.3,858.915 951.11,862.727 955.82,862.727 C960.52,862.727 964.33,858.915 964.33,854.212 C964.33,852.394 963.76,850.713 962.79,849.33 C970.89,840.138 978.98,830.946 987.08,821.753 C990.6,817.765 994.11,813.775 997.62,809.786 C998.61,810.189 999.69,810.415 1000.83,810.415 C1005.53,810.415 1009.34,806.602 1009.34,801.899 C1009.34,801.785 1009.33,801.673 1009.33,801.559 C1009.52,801.48 1009.71,801.401 1009.91,801.322 C1024.57,795.339 1039.22,789.356 1053.88,783.373 C1055.4,785.733 1058.04,787.301 1061.05,787.301 C1063.52,787.301 1065.74,786.243 1067.29,784.564 C1073.7,788.616 1080.11,792.668 1086.52,796.721 C1096.92,803.294 1107.32,809.868 1117.72,816.442 C1117.66,816.858 1117.62,817.281 1117.62,817.715 C1117.62,822.418 1121.43,826.231 1126.14,826.231 C1130.84,826.231 1134.65,822.418 1134.65,817.715 C1134.65,814.771 1133.16,812.177 1130.89,810.648 C1133.98,803.206 1137.07,795.766 1140.16,788.325 C1140.74,788.449 1141.34,788.517 1141.95,788.517 C1146.65,788.517 1150.47,784.704 1150.47,780.001 C1150.47,778.435 1150.04,776.974 1149.3,775.714 C1151.05,774.209 1152.79,772.704 1154.54,771.2 C1162.02,764.757 1169.51,758.315 1176.99,751.872 C1178.6,750.482 1180.22,749.092 1181.83,747.703 C1182.85,748.132 1183.97,748.37 1185.14,748.37 C1189.84,748.37 1193.66,744.557 1193.66,739.854 C1193.66,735.151 1189.84,731.338 1185.14,731.338" id="Fill-59" fill="#FFD559"></path>
            <polyline id="Fill-60" fill="#FFFFFF" points="1238.76 600.903 1205.36 654.401 1015.84 535.008 1049.24 481.51 1238.76 600.903"></polyline>
            <path d="M1304.05,678.406 L1303.66,679.023 C1293.13,695.898 1274.32,703.173 1261.67,695.272 L1116.19,605.979 L1154.42,541.685 L1300.21,633.542 C1312.86,641.444 1314.58,661.53 1304.05,678.406" id="Fill-61" fill="#145566"></path>
            <polyline id="Fill-62" fill="#C6DBE9" points="1038.28 549.665 1032.94 545.78 1038.87 549.512 1038.28 549.665"></polyline>
            <path d="M1038.87,549.512 L1032.94,545.78 L1030.48,543.989 C1038,535.702 1044.88,526.631 1051.02,516.807 C1056.11,508.648 1060.51,500.245 1064.23,491.681 L1121.32,528.11 L1038.87,549.512" id="Fill-63" fill="#F1F2F2"></path>
            <path d="M1028.52,502.758 C980.75,579.266 880.01,602.567 803.503,554.803 C726.996,507.039 703.694,406.298 751.458,329.791 C799.221,253.283 899.96,229.982 976.47,277.745 C1052.98,325.509 1076.28,426.251 1028.52,502.758 M990.52,255.243 C901.58,199.721 784.478,226.808 728.956,315.742 C673.434,404.677 700.52,521.783 789.455,577.306 C878.39,632.828 995.5,605.741 1051.02,516.807 C1106.54,427.872 1079.45,310.765 990.52,255.243" id="Fill-64" fill="#3ABABA"></path>
            <path d="M965.24,561.238 L965.24,420.95 C965.67,420.886 966.09,420.823 966.52,420.76 C967.34,420.64 967.9,419.878 967.78,419.058 C967.67,418.312 967.03,417.776 966.3,417.776 C966.23,417.776 966.15,417.781 966.08,417.792 C965.8,417.833 965.52,417.874 965.24,417.916 L965.24,322.265 C973.54,329.854 980.79,338.722 986.66,348.722 C989.02,352.76 992.69,354.437 996.34,354.437 C1004.16,354.437 1011.93,346.762 1006.85,338.11 C996.21,319.942 981.88,304.847 965.24,293.448 L965.24,277.671 L934.78,277.671 C919.46,271.987 903.12,268.98 886.48,268.98 C876.93,268.98 867.28,269.971 857.67,272.017 C851.05,273.425 844.63,275.325 838.43,277.671 L803.555,277.671 C829.57,261.476 859.66,252.948 890.12,252.944 C890.13,252.944 890.14,252.944 890.14,252.944 C890.15,252.944 890.15,252.944 890.15,252.944 C919.26,252.948 948.73,260.73 975.33,277.04 C975.47,277.126 975.61,277.212 975.75,277.299 C975.79,277.325 975.83,277.35 975.88,277.376 C976,277.451 976.12,277.527 976.24,277.603 C976.32,277.65 976.4,277.699 976.47,277.745 C1025.75,308.513 1052.96,361.27 1053.31,415.365 C1052.17,415.289 1051.03,415.217 1049.9,415.148 C1049.87,415.147 1049.84,415.146 1049.82,415.146 C1049.03,415.146 1048.36,415.756 1048.31,416.555 C1048.26,417.382 1048.89,418.093 1049.72,418.143 C1050.9,418.215 1052.1,418.291 1053.31,418.371 C1052.96,447.271 1044.94,476.449 1028.52,502.758 C1028.49,502.805 1028.45,502.858 1028.42,502.905 C1028.37,502.998 1028.31,503.09 1028.25,503.184 C1028.2,503.263 1028.15,503.342 1028.1,503.421 C1028.09,503.444 1028.07,503.467 1028.06,503.49 C1012.02,528.878 990.13,548.346 965.24,561.238 M990.07,415.193 C990.03,415.193 989.99,415.194 989.96,415.197 C985.92,415.491 981.9,415.854 978,416.276 C977.17,416.365 976.58,417.105 976.67,417.929 C976.75,418.698 977.4,419.267 978.16,419.267 L978.32,419.258 C982.19,418.84 986.17,418.48 990.17,418.189 C991,418.128 991.62,417.409 991.56,416.583 C991.5,415.794 990.85,415.193 990.07,415.193 M1025.87,414.226 C1025.06,414.226 1024.42,414.899 1024.41,415.705 C1024.4,416.533 1025.06,417.215 1025.89,417.227 C1029.77,417.285 1033.78,417.393 1037.81,417.549 L1037.87,417.55 C1038.67,417.55 1039.33,416.916 1039.36,416.108 C1039.4,415.28 1038.75,414.583 1037.92,414.551 C1033.88,414.394 1029.84,414.285 1025.93,414.227 C1025.91,414.226 1025.89,414.226 1025.87,414.226 M1013.94,414.206 C1009.89,414.253 1005.86,414.358 1001.94,414.518 C1001.11,414.552 1000.47,415.25 1000.5,416.078 C1000.54,416.885 1001.2,417.517 1002,417.517 L1002.06,417.516 C1005.95,417.357 1009.96,417.252 1013.97,417.206 C1014.8,417.196 1015.46,416.517 1015.45,415.688 C1015.44,414.86 1014.75,414.218 1013.94,414.206 M1012.8,368.753 C1007.79,368.753 1002.89,371.26 1000.04,375.824 C995.65,382.864 997.79,392.132 1004.83,396.527 C1007.31,398.072 1010.06,398.809 1012.78,398.809 C1017.79,398.809 1022.69,396.303 1025.54,391.738 C1029.93,384.699 1027.79,375.43 1020.75,371.035 C1018.27,369.49 1015.52,368.753 1012.8,368.753" id="Fill-65" fill="#D1E7F5"></path>
            <path d="M889.83,579.605 C889.83,579.605 889.83,579.605 889.82,579.605 C862.98,579.601 835.83,572.985 810.918,559.17 C818.81,546.616 824.86,532.782 828.69,518.049 C829.42,518.046 830.06,517.515 830.17,516.774 C830.74,513.007 831.67,509.191 832.94,505.43 C833.2,504.645 832.78,503.794 831.99,503.53 C831.9,503.498 831.8,503.476 831.7,503.463 C832.84,496.082 833.43,488.52 833.43,480.818 C833.43,473.698 832.9,466.707 831.92,459.858 L737.025,473.502 C736.198,471.286 735.418,469.05 734.688,466.802 L839.41,451.745 C835.34,423.082 823.02,397.108 804.941,376.256 L772.334,404.51 C772.405,402.055 772.552,399.609 772.774,397.183 L786.842,384.993 C783.746,381.422 780.484,378.005 777.063,374.747 C784.705,348.796 801.13,326.123 823.51,311.023 L950.82,311.023 C955.89,314.374 960.72,318.129 965.24,322.265 L965.24,417.916 C961.52,418.473 957.82,419.099 954.23,419.78 C953.42,419.934 952.88,420.719 953.04,421.533 C953.17,422.253 953.8,422.754 954.51,422.754 C954.6,422.754 954.69,422.745 954.79,422.728 C958.2,422.081 961.71,421.484 965.24,420.95 L965.24,561.238 C941.96,573.299 916.04,579.601 889.85,579.605 C889.84,579.605 889.84,579.605 889.83,579.605 M828.01,526.974 C827.99,526.974 827.97,526.975 827.95,526.975 C827.13,527.008 826.48,527.706 826.51,528.534 C826.6,530.57 826.78,532.63 827.06,534.654 C827.16,535.406 827.8,535.95 828.54,535.95 L828.75,535.936 C829.57,535.823 830.14,535.066 830.03,534.245 C829.76,532.316 829.59,530.354 829.51,528.415 C829.48,527.606 828.82,526.974 828.01,526.974 M842.36,482.231 C841.88,482.231 841.42,482.457 841.13,482.877 C838.77,486.281 836.66,489.78 834.86,493.276 C834.48,494.012 834.77,494.917 835.5,495.297 C835.72,495.41 835.96,495.464 836.19,495.464 C836.73,495.464 837.26,495.167 837.52,494.651 C839.27,491.27 841.31,487.883 843.59,484.585 C844.06,483.904 843.89,482.97 843.21,482.498 C842.95,482.318 842.66,482.231 842.36,482.231 M858.01,464.202 C857.64,464.202 857.27,464.338 856.98,464.61 C854,467.417 851.18,470.348 848.58,473.323 C848.04,473.947 848.1,474.895 848.73,475.439 C849.01,475.687 849.36,475.808 849.71,475.808 C850.13,475.808 850.55,475.634 850.84,475.294 C853.37,472.393 856.13,469.533 859.04,466.794 C859.64,466.226 859.67,465.277 859.1,464.674 C858.81,464.36 858.41,464.202 858.01,464.202 M876.79,449.434 C876.51,449.434 876.22,449.513 875.97,449.679 C872.6,451.888 869.29,454.26 866.15,456.729 C865.5,457.241 865.39,458.184 865.9,458.835 C866.19,459.212 866.63,459.409 867.08,459.409 C867.4,459.409 867.73,459.304 868,459.088 C871.08,456.672 874.31,454.351 877.61,452.188 C878.31,451.734 878.5,450.804 878.05,450.112 C877.76,449.672 877.28,449.434 876.79,449.434 M897.7,437.853 C897.49,437.853 897.27,437.9 897.06,437.998 C893.43,439.721 889.82,441.565 886.34,443.481 C885.61,443.879 885.34,444.792 885.74,445.518 C886.02,446.015 886.53,446.295 887.06,446.295 C887.3,446.295 887.55,446.236 887.78,446.11 C891.21,444.223 894.77,442.406 898.35,440.709 C899.1,440.354 899.42,439.459 899.06,438.711 C898.8,438.17 898.27,437.853 897.7,437.853 M919.85,428.851 C919.69,428.851 919.52,428.878 919.36,428.933 C915.55,430.245 911.75,431.665 908.09,433.153 C907.32,433.465 906.95,434.34 907.26,435.108 C907.5,435.69 908.06,436.044 908.65,436.044 C908.84,436.044 909.03,436.008 909.22,435.933 C912.83,434.465 916.57,433.064 920.34,431.77 C921.12,431.501 921.54,430.647 921.27,429.864 C921.05,429.242 920.47,428.851 919.85,428.851 M942.82,422.236 C942.7,422.236 942.59,422.249 942.47,422.277 C938.54,423.204 934.63,424.227 930.84,425.317 C930.04,425.546 929.58,426.377 929.81,427.173 C930,427.831 930.6,428.259 931.25,428.259 C931.39,428.259 931.53,428.24 931.66,428.2 C935.41,427.124 939.28,426.113 943.16,425.197 C943.97,425.006 944.47,424.198 944.28,423.392 C944.11,422.702 943.5,422.236 942.82,422.236 M728.758,442.269 C728.427,440.218 728.132,438.148 727.879,436.085 L751.542,415.581 C752.605,417.066 754.013,418.213 755.596,419.014 L728.758,442.269 M758.153,359.493 C752.674,355.772 746.932,352.412 740.957,349.444 C743.968,342.753 747.464,336.188 751.458,329.791 C751.624,329.525 751.792,329.258 751.959,328.994 C751.98,328.961 751.996,328.935 752.017,328.902 C756.024,322.572 760.4,316.605 765.093,311.023 L788.43,311.023 C775.256,324.847 764.902,341.374 758.153,359.493 M965.24,293.448 C964.89,293.208 964.54,292.968 964.19,292.731 L964.19,277.671 L934.78,277.671 L965.24,277.671 L965.24,293.448" id="Fill-66" fill="#E8F3FA"></path>
            <path d="M950.82,311.023 L823.51,311.023 C833.16,304.507 843.92,299.403 855.57,296.053 C865.85,293.095 876.33,291.674 886.7,291.674 C909.53,291.674 931.9,298.543 950.82,311.023 M788.43,311.023 L765.093,311.023 C776.292,297.7 789.313,286.537 803.555,277.671 L838.43,277.671 C819.26,284.936 802.286,296.484 788.43,311.023 M964.19,292.731 C955,286.561 945.12,281.507 934.78,277.671 L964.19,277.671 L964.19,292.731" id="Fill-67" fill="#739EAE"></path>
            <path d="M727.879,436.085 C727.066,429.47 726.656,422.804 726.656,416.113 C726.657,393.605 731.31,370.885 740.957,349.444 C746.932,352.412 752.674,355.772 758.153,359.493 C754.276,369.905 751.589,380.842 750.242,392.094 C749.57,397.711 749.404,403.378 749.492,409.03 C749.533,411.667 750.304,413.853 751.542,415.581 L727.879,436.085 M772.774,397.183 C773.476,389.512 774.927,382 777.063,374.747 C780.484,378.005 783.746,381.422 786.842,384.993 L772.774,397.183" id="Fill-68" fill="#CDDFCB"></path>
            <path d="M810.918,559.17 C808.424,557.787 805.95,556.331 803.503,554.803 C771.759,534.985 749.174,506.046 737.025,473.502 L831.92,459.858 C832.9,466.707 833.43,473.698 833.43,480.818 C833.43,488.52 832.84,496.082 831.7,503.463 C831.64,503.455 831.58,503.451 831.52,503.451 C830.89,503.451 830.31,503.847 830.09,504.473 C828.77,508.398 827.8,512.385 827.2,516.324 C827.08,517.143 827.64,517.908 828.46,518.032 L828.69,518.049 C824.86,532.782 818.81,546.616 810.918,559.17" id="Fill-69" fill="#739EAE"></path>
            <path d="M734.688,466.802 C732.084,458.785 730.102,450.587 728.758,442.269 L755.596,419.014 C757.412,419.933 759.46,420.398 761.483,420.398 C767.041,420.399 772.411,416.895 772.3,409.695 C772.273,407.96 772.285,406.233 772.334,404.51 L804.941,376.256 C823.02,397.108 835.34,423.082 839.41,451.745 L734.688,466.802" id="Fill-70" fill="#C3DFE0"></path>
            <path d="M828.54,535.95 C827.8,535.95 827.16,535.406 827.06,534.654 C826.78,532.63 826.6,530.57 826.51,528.534 C826.48,527.706 827.13,527.008 827.95,526.975 C827.97,526.975 827.99,526.974 828.01,526.974 C828.82,526.974 829.48,527.606 829.51,528.415 C829.59,530.354 829.76,532.316 830.03,534.245 C830.14,535.066 829.57,535.823 828.75,535.936 L828.54,535.95" id="Fill-71" fill="#739EAE"></path>
            <path d="M828.69,518.049 L828.46,518.032 C827.64,517.908 827.08,517.143 827.2,516.324 C827.8,512.385 828.77,508.398 830.09,504.473 C830.31,503.847 830.89,503.451 831.52,503.451 C831.58,503.451 831.64,503.455 831.7,503.463 C831.8,503.476 831.9,503.498 831.99,503.53 C832.78,503.794 833.2,504.645 832.94,505.43 C831.67,509.191 830.74,513.007 830.17,516.774 C830.06,517.515 829.42,518.046 828.69,518.049 M836.19,495.464 C835.96,495.464 835.72,495.41 835.5,495.297 C834.77,494.917 834.48,494.012 834.86,493.276 C836.66,489.78 838.77,486.281 841.13,482.877 C841.42,482.457 841.88,482.231 842.36,482.231 C842.66,482.231 842.95,482.318 843.21,482.498 C843.89,482.97 844.06,483.904 843.59,484.585 C841.31,487.883 839.27,491.27 837.52,494.651 C837.26,495.167 836.73,495.464 836.19,495.464 M849.71,475.808 C849.36,475.808 849.01,475.687 848.73,475.439 C848.1,474.895 848.04,473.947 848.58,473.323 C851.18,470.348 854,467.417 856.98,464.61 C857.27,464.338 857.64,464.202 858.01,464.202 C858.41,464.202 858.81,464.36 859.1,464.674 C859.67,465.277 859.64,466.226 859.04,466.794 C856.13,469.533 853.37,472.393 850.84,475.294 C850.55,475.634 850.13,475.808 849.71,475.808 M867.08,459.409 C866.63,459.409 866.19,459.212 865.9,458.835 C865.39,458.184 865.5,457.241 866.15,456.729 C869.29,454.26 872.6,451.888 875.97,449.679 C876.22,449.513 876.51,449.434 876.79,449.434 C877.28,449.434 877.76,449.672 878.05,450.112 C878.5,450.804 878.31,451.734 877.61,452.188 C874.31,454.351 871.08,456.672 868,459.088 C867.73,459.304 867.4,459.409 867.08,459.409 M887.06,446.295 C886.53,446.295 886.02,446.015 885.74,445.518 C885.34,444.792 885.61,443.879 886.34,443.481 C889.82,441.565 893.43,439.721 897.06,437.998 C897.27,437.9 897.49,437.853 897.7,437.853 C898.27,437.853 898.8,438.17 899.06,438.711 C899.42,439.459 899.1,440.354 898.35,440.709 C894.77,442.406 891.21,444.223 887.78,446.11 C887.55,446.236 887.3,446.295 887.06,446.295 M908.65,436.044 C908.06,436.044 907.5,435.69 907.26,435.108 C906.95,434.34 907.32,433.465 908.09,433.153 C911.75,431.665 915.55,430.245 919.36,428.933 C919.52,428.878 919.69,428.851 919.85,428.851 C920.47,428.851 921.05,429.242 921.27,429.864 C921.54,430.647 921.12,431.501 920.34,431.77 C916.57,433.064 912.83,434.465 909.22,435.933 C909.03,436.008 908.84,436.044 908.65,436.044 M931.25,428.259 C930.6,428.259 930,427.831 929.81,427.173 C929.58,426.377 930.04,425.546 930.84,425.317 C934.63,424.227 938.54,423.204 942.47,422.277 C942.59,422.249 942.7,422.236 942.82,422.236 C943.5,422.236 944.11,422.702 944.28,423.392 C944.47,424.198 943.97,425.006 943.16,425.197 C939.28,426.113 935.41,427.124 931.66,428.2 C931.53,428.24 931.39,428.259 931.25,428.259 M954.51,422.754 C953.8,422.754 953.17,422.253 953.04,421.533 C952.88,420.719 953.42,419.934 954.23,419.78 C957.82,419.099 961.52,418.473 965.24,417.916 C965.52,417.874 965.8,417.833 966.08,417.792 C966.15,417.781 966.23,417.776 966.3,417.776 C967.03,417.776 967.67,418.312 967.78,419.058 C967.9,419.878 967.34,420.64 966.52,420.76 C966.09,420.823 965.67,420.886 965.24,420.95 C961.71,421.484 958.2,422.081 954.79,422.728 C954.69,422.745 954.6,422.754 954.51,422.754 M978.16,419.267 C977.4,419.267 976.75,418.698 976.67,417.929 C976.58,417.105 977.17,416.365 978,416.276 C981.9,415.854 985.92,415.491 989.96,415.197 C989.99,415.194 990.03,415.193 990.07,415.193 C990.85,415.193 991.5,415.794 991.56,416.583 C991.62,417.409 991,418.128 990.17,418.189 C986.17,418.48 982.19,418.84 978.32,419.258 L978.16,419.267 M1053.31,418.371 C1052.1,418.291 1050.9,418.215 1049.72,418.143 C1048.89,418.093 1048.26,417.382 1048.31,416.555 C1048.36,415.756 1049.03,415.146 1049.82,415.146 C1049.84,415.146 1049.87,415.147 1049.9,415.148 C1051.03,415.217 1052.17,415.289 1053.31,415.365 C1053.32,415.724 1053.32,416.077 1053.32,416.436 C1053.32,417.082 1053.31,417.725 1053.31,418.371 M1037.87,417.55 L1037.81,417.549 C1033.78,417.393 1029.77,417.285 1025.89,417.227 C1025.06,417.215 1024.4,416.533 1024.41,415.705 C1024.42,414.899 1025.06,414.226 1025.87,414.226 C1025.89,414.226 1025.91,414.226 1025.93,414.227 C1029.84,414.285 1033.88,414.394 1037.92,414.551 C1038.75,414.583 1039.4,415.28 1039.36,416.108 C1039.33,416.916 1038.67,417.55 1037.87,417.55 M1002,417.517 C1001.2,417.517 1000.54,416.885 1000.5,416.078 C1000.47,415.25 1001.11,414.552 1001.94,414.518 C1005.86,414.358 1009.89,414.253 1013.94,414.206 C1014.75,414.218 1015.44,414.86 1015.45,415.688 C1015.46,416.517 1014.8,417.196 1013.97,417.206 C1009.96,417.252 1005.95,417.357 1002.06,417.516 L1002,417.517" id="Fill-72" fill="#739EAE"></path>
            <path d="M889.85,579.605 C916.04,579.601 941.96,573.299 965.24,561.238 C990.13,548.346 1012.02,528.878 1028.06,503.49 C997.02,552.635 944.05,579.602 889.85,579.605 M803.503,554.803 C753.893,523.831 726.654,470.584 726.656,416.113 C726.656,422.804 727.066,429.47 727.879,436.085 C728.132,438.148 728.427,440.218 728.758,442.269 C730.102,450.587 732.084,458.785 734.688,466.802 C735.418,469.05 736.198,471.286 737.025,473.502 C749.174,506.046 771.759,534.985 803.503,554.803 M1028.1,503.421 C1028.15,503.342 1028.2,503.263 1028.25,503.184 C1028.2,503.263 1028.15,503.342 1028.1,503.421 M1028.42,502.905 C1028.45,502.858 1028.49,502.805 1028.52,502.758 C1044.94,476.449 1052.96,447.271 1053.31,418.371 C1053.31,417.725 1053.32,417.082 1053.32,416.436 C1053.32,445.969 1045.31,475.861 1028.52,502.758 C1028.49,502.805 1028.45,502.858 1028.42,502.905 M751.458,329.791 C751.624,329.525 751.792,329.258 751.959,328.994 C751.792,329.258 751.624,329.525 751.458,329.791 M752.017,328.902 C783.065,279.863 835.99,252.947 890.12,252.944 C859.66,252.948 829.57,261.476 803.555,277.671 C789.313,286.537 776.292,297.7 765.093,311.023 C760.4,316.605 756.024,322.572 752.017,328.902 M976.24,277.603 C976.12,277.527 976,277.451 975.88,277.376 C976,277.451 976.12,277.527 976.24,277.603 M975.75,277.299 C975.61,277.212 975.47,277.126 975.33,277.04 C975.47,277.126 975.61,277.212 975.75,277.299" id="Fill-73" fill="#86D1D8"></path>
            <path d="M996.34,354.437 C992.69,354.437 989.02,352.76 986.66,348.722 C980.79,338.722 973.54,329.854 965.24,322.265 L965.24,293.448 C981.88,304.847 996.21,319.942 1006.85,338.11 C1011.93,346.762 1004.16,354.437 996.34,354.437 M934.78,277.671 L838.43,277.671 C844.63,275.325 851.05,273.425 857.67,272.017 C867.28,269.971 876.93,268.98 886.48,268.98 C903.12,268.98 919.46,271.987 934.78,277.671" id="Fill-74" fill="#DBECF7"></path>
            <path d="M755.596,419.014 C754.013,418.213 752.605,417.066 751.542,415.581 L772.774,397.183 C772.552,399.609 772.405,402.055 772.334,404.51 L755.596,419.014 M777.063,374.747 C771.2,369.165 764.873,364.057 758.153,359.493 C764.902,341.374 775.256,324.847 788.43,311.023 L823.51,311.023 C801.13,326.123 784.705,348.796 777.063,374.747 M965.24,322.265 C960.72,318.129 955.89,314.374 950.82,311.023 L964.19,311.023 L964.19,292.731 C964.54,292.968 964.89,293.208 965.24,293.448 L965.24,322.265" id="Fill-75" fill="#EDF6FB"></path>
            <path d="M964.19,311.023 L950.82,311.023 C931.9,298.543 909.53,291.674 886.7,291.674 C876.33,291.674 865.85,293.095 855.57,296.053 C843.92,299.403 833.16,304.507 823.51,311.023 L788.43,311.023 C802.286,296.484 819.26,284.936 838.43,277.671 L934.78,277.671 C945.12,281.507 955,286.561 964.19,292.731 L964.19,311.023" id="Fill-76" fill="#92B3C0"></path>
            <path d="M751.542,415.581 C750.304,413.853 749.533,411.667 749.492,409.03 C749.404,403.378 749.57,397.711 750.242,392.094 C751.589,380.842 754.276,369.905 758.153,359.493 C764.873,364.057 771.2,369.165 777.063,374.747 C774.927,382 773.476,389.512 772.774,397.183 L751.542,415.581" id="Fill-77" fill="#D8E6D6"></path>
            <path d="M761.483,420.398 C759.46,420.398 757.412,419.933 755.596,419.014 L772.334,404.51 C772.285,406.233 772.273,407.96 772.3,409.695 C772.411,416.895 767.041,420.399 761.483,420.398" id="Fill-78" fill="#D0E6E7"></path>
            <path d="M1012.78,398.809 C1010.06,398.809 1007.31,398.072 1004.83,396.527 C997.79,392.132 995.65,382.864 1000.04,375.824 C1002.89,371.26 1007.79,368.753 1012.8,368.753 C1015.52,368.753 1018.27,369.49 1020.75,371.035 C1027.79,375.43 1029.93,384.699 1025.54,391.738 C1022.69,396.303 1017.79,398.809 1012.78,398.809" id="Fill-79" fill="#DFEEF8"></path>
            <path d="M1118.12,603.85 L1154.5,542.679 C1155.75,540.578 1155.2,537.872 1153.24,536.417 L1152.6,535.945 C1150.32,534.255 1147.07,534.923 1145.65,537.378 L1109.83,598.975 C1108.49,601.281 1109.3,604.238 1111.63,605.533 L1111.72,605.579 C1113.97,606.83 1116.81,606.064 1118.12,603.85" id="Fill-80" fill="#3ABABA"></path>
            <path d="M1049.29,417.442 C1049.15,456.694 1034.9,494.74 1008.97,524.255 C983.39,553.391 947.76,572.2 909.45,577.632 C870.27,583.185 829.83,573.248 797.1,551.297 C765.219,529.918 741.956,496.936 731.756,460.026 C721.18,421.752 725.558,380.011 743.387,344.598 C760.562,310.484 790.097,283.029 825.32,268.278 C862.08,252.878 903.82,251.953 941.41,264.97 C977.61,277.505 1008.35,303.566 1027.61,336.537 C1041.92,361.026 1049.19,389.134 1049.29,417.442 C1049.31,423.044 1058,423.046 1057.98,417.442 C1057.84,378.117 1044.23,340.251 1019.54,309.693 C995.42,279.858 960.87,258.996 923.45,250.918 C884.63,242.539 843.58,248.375 808.421,266.691 C774.628,284.297 747.375,313.765 731.947,348.535 C715.82,384.879 713.158,426.379 724.01,464.589 C734.496,501.511 757.943,533.808 788.968,556.193 C820.87,579.207 860.72,589.988 899.86,587.294 C938.66,584.624 975.56,568.211 1004.01,541.809 C1038.39,509.918 1057.81,464.201 1057.98,417.442 C1058,411.838 1049.31,411.84 1049.29,417.442" id="Fill-81" fill="#FFFFFF"></path>
            <path d="M1281.55,714.232 C1287.69,698.121 1296.58,666.273 1301.69,650.812 C1290.49,613.149 1267.44,550.238 1265.05,549.546 C1251.09,545.502 1238.64,541.802 1224.71,537.782 C1224.07,537.597 1219.99,558.426 1219.34,558.241 C1218.82,558.091 1218.61,553.931 1218.45,549.168 L1218.45,549.162 L1215.77,522.089 C1215.69,519.826 1214.13,517.884 1211.94,517.314 C1203.78,515.195 1186.16,511.059 1185.4,512.338 C1185.11,512.809 1183.59,536.311 1182.33,543.025 L1179.39,541.491 L1175.55,497.634 C1175.55,497.634 1145.08,489.956 1144.48,491.369 C1143.78,493.031 1137,530.239 1137,530.239 C1137,530.239 1125.21,619.033 1123.87,625.346 C1121.91,634.591 1115.74,642.874 1116.63,652.092 C1117.62,662.386 1122.13,671.941 1126.58,681.315 C1137.33,703.942 1148.08,726.568 1158.83,749.195 C1161.18,764.553 1163.64,799.733 1167.17,814.85 C1206.93,806.827 1246.87,800.756 1291.12,786.671 C1292.37,786.273 1278.9,721.177 1281.55,714.232" id="Fill-82" fill="#EDD0B3"></path>
            <g id="Group-86" transform="translate(1133.000000, 733.000000)">
                <mask id="mask-2" fill="white">
                    <use xlink:href="#path-1"></use>
                </mask>
                <g id="Clip-84"></g>
                <polyline id="Fill-83" fill="#EFEFEF" mask="url(#mask-2)" points="23.24 139.66 14.06 58.951 173.03 0.088 200.66 98.486 23.79 151.292 23.24 139.66"></polyline>
                <path d="M206.77,47.74 C206.77,47.74 43.27,141.175 9.46,150.023 L0.12,370 L278.12,370 L206.77,47.74" id="Fill-85" fill="#145566" mask="url(#mask-2)"></path>
            </g>
            <path d="M1180.85,824.801 C1179.56,829.639 1174.6,832.52 1169.76,831.238 C1164.93,829.955 1162.04,824.994 1163.33,820.156 C1164.61,815.318 1169.57,812.436 1174.41,813.719 C1179.25,815.001 1182.13,819.963 1180.85,824.801" id="Fill-87" fill="#59595B"></path>
            <path d="M1107.5,655.037 L1086.3,621.598 L1055.6,593.014 C1055.6,593.014 1049.64,575.782 1068.87,575.306 C1088.11,574.829 1101.05,590.91 1109.57,603.673 C1113.31,609.286 1131.41,625.622 1145.45,635.617 C1163.83,648.691 1144.63,706.258 1144.63,706.258 C1144.63,706.258 1109.63,658.228 1107.5,655.037" id="Fill-88" fill="#EDD0B3"></path>
        </g>
    </g>
</svg>