<svg xmlns="http://www.w3.org/2000/svg" xmlns:xlink="http://www.w3.org/1999/xlink" width="278" height="274"><style><![CDATA[.B{mask:url(#G)}.C{mask:url(#F)}.D{fill:#7fcf6f}.E{fill:#fcfbfc}.F{fill:#2c312f}.G{fill:#f3d6b6}.H{fill:#cccdc9}.I{fill:#cbe7f1}.J{fill:#85cde7}.K{fill:#efa278}.L{fill:#ed9e93}.M{fill:#222322}.N{fill:#589eca}.O{fill:#434442}.P{fill:#ee9e74}]]></style><defs><path d="M25.726 12.815a12.6 12.6 0 0 1-12.597 12.598A12.6 12.6 0 0 1 .531 12.815 12.6 12.6 0 0 1 13.129.217a12.6 12.6 0 0 1 12.597 12.597" id="A"/><path d="M150.328 97.57H5.672c-2.89 0-5.235-2.233-5.235-4.987V5.6C.437 2.847 2.78.613 5.672.613h144.656c2.89 0 5.235 2.233 5.235 4.987v86.98c0 2.755-2.344 4.987-5.235 4.987" id="B"/><path id="C" d="M178 79a1 1 0 1 1-2 0 1 1 0 1 1 2 0"/><path id="D" d="M15.79 10.953a.49.49 0 1 1-.98 0 .49.49 0 1 1 .98 0"/><path id="E" d="M12.74 17.37l-.093-.06.048-.14c.147-.07.32-.11.5-.11.168 0 .33.033.47.095l.053.137-.137.053c-.113-.05-.247-.077-.387-.077a.94.94 0 0 0-.411.089l-.045.01"/></defs><g fill="none" fill-rule="evenodd"><path d="M241.524 101.878l-42.774 13.945a3.58 3.58 0 0 1-4.514-2.306l-8.06-24.867c-.612-1.887.417-3.914 2.3-4.527l42.774-13.946a3.58 3.58 0 0 1 4.514 2.306l8.06 24.867c.612 1.887-.418 3.915-2.3 4.528" class="D"/><path d="M189.065 98L238 82.277 235.936 76 187 91.723 189.065 98m48.812-1.273a2.5 2.5 0 0 1-1.604 3.15 2.5 2.5 0 0 1-3.149-1.604 2.5 2.5 0 0 1 1.604-3.15 2.5 2.5 0 0 1 3.149 1.604" fill="#3a3b39"/><path fill="#e5e6e3" d="M79 109.187L45.677 143 0 97.886l28.828-29.252L37.3 68 79 109.187"/><path fill="#9ea0a0" d="M29 68.556L33.224 72 38 68l-9 .556"/><path d="M28 100.436L18.564 110 9 100.564 18.436 91 28 100.436m7-23.296L22.168 90 21 88.86 33.832 76 35 77.14m2 2L24.168 92 23 90.86 35.832 78 37 79.14m4 2L28.168 94 27 92.86 39.832 80 41 81.14m2 3L30.168 97 29 95.86 41.832 83 43 84.14m-2 29.296L31.564 123 22 113.564 31.436 104 41 113.436m7-24.296L35.168 102 34 100.86 46.832 88 48 89.14m2 3L37.168 105 36 103.86 48.832 91 50 92.14m4 2L41.168 107 40 105.86 52.832 93 54 94.14m2 3L43.168 110 42 108.86 54.832 96 56 97.14m-3 28.296L43.564 135 34 125.564 43.436 116 53 125.436m8-23.296L48.168 115 47 113.86 59.832 101 61 102.14m2 2L50.168 117 49 115.86 61.832 103 63 104.14m3 2L53.168 119 52 117.86 64.832 105 66 106.14m2 4L55.168 123 54 121.86 66.832 109 68 110.14" class="H"/><path d="M79 106.176L43.063 137 2 87.666 33.09 61l8.422.137L79 106.176" class="E"/><path fill="#9ea0a0" d="M33 61l3.82 4L42 61.127 33 61"/><path d="M29 92.298L18.702 101 10 90.702 20.298 82 29 92.298m10-23.05L25.058 81 24 79.75 37.942 68 39 69.248m2 2.002L27.058 83 26 81.75 39.942 70 41 71.25m3 3L30.058 86 29 84.75 42.942 73 44 74.25m2 3L32.058 89 31 87.75 44.942 76 46 77.25m-5 29.048L30.702 115 22 104.702 32.298 96 41 106.298m9-23.048L36.058 95 35 93.75 48.942 82 50 83.25m2 2L38.058 97 37 95.75 50.942 84 52 85.25m4 3L42.058 100 41 98.75 54.942 87 56 88.25m2 2L44.058 102 43 100.75 56.942 89 58 90.25m-6 30.048L41.702 129 33 118.702 43.3 110l8.7 10.298M62 97.25L48.058 109 47 107.75 60.942 96 62 97.25m2 2L50.058 111 49 109.75 62.942 98 64 99.25m3 3L53.058 114 52 112.75 65.942 101 67 102.25m3 2L56.058 116 55 114.75 68.942 103 70 104.25" class="H"/><path d="M30.967 99.752L26.584 92.1c-1.198-2.092-.492-4.77 1.576-5.98L56.382 69.6c2.07-1.212 4.717-.498 5.915 1.594l31.12 54.33c1.198 2.092.493 4.77-1.576 5.98L56.127 152.4c-2.07 1.21-4.717.498-5.915-1.594l-22.396-39.1c-1.198-2.092-.493-4.77 1.576-5.98s2.774-3.9 1.576-5.982" class="D"/><path d="M53.332 150l-23.39-40.507 2.1-1.226c1.945-1.13 3.03-3.176 3.03-5.28a6.08 6.08 0 0 0-.819-3.048L28 89.092 59.14 71 75 98.466h-.268L59.057 71.32l-30.74 17.857 6.148 10.65a6.31 6.31 0 0 1 .85 3.164c0 2.183-1.128 4.307-3.147 5.48l-1.9 1.1 23.156 40.104 6.43-3.736v.27L53.332 150" fill="#fbd986"/><path d="M64.11 99l-8.758-15.08c-.725-1.248-.298-2.846.954-3.57a2.61 2.61 0 0 1 1.31-.352 2.62 2.62 0 0 1 2.269 1.303L70 98.717h-4.16c-.605 0-1.187.1-1.73.283" fill="#fad477"/><path d="M132.825 24a6.73 6.73 0 0 0 .175-1.52c0-3.7-2.94-6.702-6.565-6.702a6.42 6.42 0 0 0-2.721.608c-.266-2.467-2.313-4.386-4.8-4.386-2.05 0-3.798 1.305-4.5 3.145-.43-.108-.874-.17-1.336-.17-2.17 0-4.046 1.272-4.96 3.123l-.6-.03c-3.37 0-6.146 2.595-6.52 5.934h31.825" class="I"/><path d="M118.535 12a4.65 4.65 0 0 0-1.535.262c1.628.565 2.834 2 3.03 3.738.8-.352 1.663-.555 2.588-.555.13 0 .256.012.383.02-.477-1.985-2.292-3.465-4.465-3.465m7.234 3a6.99 6.99 0 0 0-1.77.235c3.128.808 5.445 3.676 5.445 7.1a7.35 7.35 0 0 1-.192 1.664h3.555c.124-.534.192-1.1.192-1.664 0-4.05-3.237-7.336-7.23-7.336" class="J"/><g class="I"><path d="M123.085 15.93a4.18 4.18 0 0 1 .915-.577 3.2 3.2 0 0 0-1-.283l.085.86M98.96 23a7.95 7.95 0 0 0 .041-.803c0-4.3-3.416-7.77-7.65-7.83-1.12-1.68-2.86-2.895-4.87-3.318C86.087 7.1 82.78 4 78.756 4c-3.5 0-6.442 2.326-7.42 5.527a7.66 7.66 0 0 0-2.091-.296c-3.544 0-6.527 2.4-7.457 5.676a7.66 7.66 0 0 0-4.028-1.147c-4.287 0-7.762 3.5-7.762 7.837A7.93 7.93 0 0 0 50.132 23H98.96"/><path d="M67.608 10.568l.047-.135-.3.07.263.065"/></g><path d="M91.415 14.366c-1.112-1.68-2.836-2.895-4.83-3.318C86.198 7.09 82.918 4 78.93 4a7.56 7.56 0 0 0-1.93.251c3.084.8 5.426 3.494 5.75 6.798 1.993.422 3.718 1.64 4.83 3.318 4.2.06 7.585 3.54 7.585 7.83a8.22 8.22 0 0 1-.04.803h3.835a8.02 8.02 0 0 0 .041-.803c0-4.3-3.386-7.77-7.585-7.83" class="J"/><path d="M57 14.222c.595.17 1.155.434 1.668.778a7.23 7.23 0 0 1 .332-.981l-.46-.02a5.63 5.63 0 0 0-1.541.222" class="I"/><path d="M120.928 29a4.28 4.28 0 0 0 .072-.756c0-2.467-2.082-4.466-4.65-4.466h-3.086a6.4 6.4 0 0 0 .086-1c0-3.407-2.66-6.213-6.092-6.623C106.085 12.032 102.158 9 97.492 9c-4.796 0-8.8 3.202-9.855 7.502-.738-.256-1.53-.403-2.36-.403-3.842 0-6.958 2.99-6.958 6.68a6.48 6.48 0 0 0 .086 1h-2.754c-2.57 0-4.652 2-4.652 4.466a4.28 4.28 0 0 0 .072.756h49.856" stroke="#85cde7" fill="#fffffe"/><path d="M105.94 15.263C104.776 11.078 100.87 8 96.23 8a10.6 10.6 0 0 0-1.23.08c4.087.5 7.42 3.373 8.48 7.182 3.414.416 6.06 3.264 6.06 6.722a6.66 6.66 0 0 1-.086 1.015h2.463c.05-.332.086-.67.086-1.015 0-3.46-2.644-6.306-6.06-6.722m12.625 13.014a4.06 4.06 0 0 1-.07.724h2.432a4 4 0 0 0 .07-.724c0-2.362-2.045-4.276-4.568-4.276H114c2.523 0 4.568 1.914 4.568 4.276" class="J"/><path d="M218.466 207H65.534c-3.056 0-5.534-2.487-5.534-5.555v-96.888c0-3.07 2.478-5.556 5.534-5.556h152.932c3.057 0 5.534 2.487 5.534 5.556v96.888c0 3.068-2.477 5.555-5.534 5.555" class="F"/><path d="M213.77 201H69.23c-2.89 0-5.23-2.234-5.23-5V109c0-2.755 2.342-5 5.23-5H213.77c2.89 0 5.23 2.234 5.23 5V196c0 2.756-2.342 5-5.23 5" fill="#67a9d0"/><g class="F"><path d="M141.5 231.712c-3.778 0-6.84-3.134-6.84-7s3.062-7 6.84-7 6.84 3.134 6.84 7-3.063 7-6.84 7zM131 240h21v-33h-21v33z"/><path d="M109 246h65v-6h-65z"/></g><g fill="#fffffe"><path d="M235 153h1v-1h-1zm4 0h3.333v-1H239v1zm6.667 0H249v-1h-3.333v1zm6.333 0h2v-2h-.78v1.22H252v.78m1-5h1v-2.795h-1V148zm0-5.6h1v-2.795h-1v2.795zm0-5.6h1v-2.795h-1v2.795zm0-5.6h1v-2.795h-1v2.795zm0-5.6h1v-2.795h-1v2.795zm0-5.6h1v-2.795h-1V120zm0-5.6h1v-2.795h-1v2.795zm0-5.6h1v-2.795h-1v2.795zm0-5.6h1v-2.795h-1v2.795zm0-5.6h1v-2.795h-1V97.6zm0-5.6h1v-2.795h-1V92zm0-5.6h1v-2.795h-1V86.4zm0-5.6h1v-2.795h-1V80.8zm0-5.6h1v-2.795h-1V75.2zm0-5.6h1v-2.795h-1V69.6zm0-5.6h1v-2.7h-1v2.795zm0-5.6h1v-2.7h-1v2.795zm0-5.6h1v-2.7h-1v2.795zm0-5.6h1v-2.6h-1v2.795zm0-5.6h1V39h-1v2.795z"/><path d="M254 37v-2h-2v.78h1.22V37h.78m-7.784-1H249v-1h-2.784v1zm-5.567 0h2.784v-1h-2.784v1zm-5.568 0h2.784v-1h-2.784v1zm-5.567 0h2.784v-1h-2.784v1zm-5.567 0h2.784v-1h-2.784v1zm-5.568 0h2.784v-1h-2.784v1zm-5.567 0h2.784v-1h-2.784v1zm-5.567 0h2.784v-1h-2.784v1zm-5.567 0h2.784v-1h-2.784v1zm-5.568 0h2.784v-1H196.1v1zm-5.567 0h2.784v-1h-2.784v1zm-5.567 0h2.784v-1h-2.784v1zm-5.567 0h2.784v-1h-2.784v1zm-5.568 0h2.784v-1h-2.784v1zm-5.567 0h2.784v-1h-2.784v1zm-5.567 0h2.784v-1h-2.784v1zm-5.567 0h2.784v-1h-2.784v1zm-5.568 0h2.784v-1h-2.784v1zM146 36h2.784v-1H146v1zm-4 0h1v-1h-1zm95 118a3 3 0 1 1-6 0 3 3 0 1 1 6 0"/><path d="M142 35a3 3 0 1 1-6 0 3 3 0 1 1 6 0"/></g><path d="M110.554 133.073c2.724-1.077 6.153-1.804 8.33.14 1.138 1.016 1.64 2.545 2.004 4.018.728 2.938 1.102 5.95 1.45 8.954.51 4.413.97 8.88.392 13.286s-2.29 8.8-5.548 11.86c-.776.73-1.673 1.394-2.723 1.597-.76.147-1.543.042-2.3-.064l-7.853-1.086c-.888-.122-1.788-.25-2.615-.59-1.2-.497-2.167-1.417-3.023-2.387-5.447-6.175-6.978-15.094-4.52-22.833 2.17-6.832 10.127-10.407 16.417-12.893" class="K"/><path d="M103 145l3-1.518v1.014l-3 .504m3-1.518V143v.482" fill="#e78f64"/><path d="M105 176h77V76h-77z" class="E"/><path d="M105 82h77v-6h-77z" class="F"/><use xlink:href="#C" fill="#e05e55"/><g fill="#e5e6e3"><use xlink:href="#C" x="-5"/><use xlink:href="#C" x="-9"/></g><path d="M126.337 257H39.663c-.92 0-1.663.672-1.663 1.5s.745 1.5 1.663 1.5h86.673c.918 0 1.663-.67 1.663-1.5s-.745-1.5-1.663-1.5M181.33 60h-53.66c-.923 0-1.67.67-1.67 1.5s.748 1.5 1.67 1.5h53.657c.923 0 1.67-.672 1.67-1.5s-.748-1.5-1.67-1.5m74.003 211h-53.66c-.923 0-1.67.67-1.67 1.5s.748 1.5 1.67 1.5h53.657c.923 0 1.67-.672 1.67-1.5s-.748-1.5-1.67-1.5M59.262 237h-.738c-.002.842-.683 1.523-1.524 1.524A1.53 1.53 0 0 1 55.475 237c.002-.842.683-1.523 1.525-1.524s1.523.682 1.524 1.524H60a3 3 0 1 0-6 0 3 3 0 1 0 6 0h-.738M186.9 49.5h-1.1c-.002 1.28-1.038 2.318-2.32 2.32a2.32 2.32 0 0 1-2.32-2.32c-.002-1.28 1.04-2.318 2.32-2.32s2.317 1.04 2.32 2.32h2.2a4.5 4.5 0 1 0-9 0 4.5 4.5 0 1 0 9 0h-1.1m69 205h-1.1c-.002 1.28-1.038 2.317-2.32 2.32a2.32 2.32 0 0 1-2.32-2.32c.003-1.28 1.04-2.318 2.32-2.32s2.317 1.04 2.32 2.32h2.2a4.5 4.5 0 1 0-9 0 4.5 4.5 0 1 0 9 0h-1.1m-40-250h-1.1c-.002 1.28-1.04 2.318-2.32 2.32s-2.317-1.04-2.32-2.32c.003-1.28 1.04-2.318 2.32-2.32s2.318 1.04 2.32 2.32h2.2a4.5 4.5 0 1 0-9 0 4.5 4.5 0 1 0 9 0h-1.1" class="D"/><path d="M137 102c0 7.18-5.82 13-13 13s-13-5.82-13-13 5.82-13 13-13 13 5.82 13 13" fill="#8a8d8b"/><g transform="translate(111 90)"><mask id="F" fill="#fff"><use xlink:href="#A"/></mask><path d="M14.867 18.932l1.15.255c2.12.47 3.63 2.35 3.63 4.523v1.664a.5.5 0 0 1-.5.5H7.207a.5.5 0 0 1-.5-.5V23.71c0-2.172 1.51-4.053 3.63-4.523l.977-.217.04-.007 1.15-.155.067-.005h1.443l.078.006.743.117.03.006" class="C G"/><g fill="#37a1ce" class="C"><path d="M16.85 19.373l-2-.444-.5-.08-.016 1.24.005-.093-.005.093v.003a1.17 1.17 0 0 1-2.336-.096v-1.12l-.666.1-1.833.407a3.56 3.56 0 0 0-1.261.552v5.95h9.92V19.96c-.383-.276-.825-.48-1.31-.587"/><path d="M8.24 23.52H6.707s-.387-2.292 1.533-3.594v3.594m9.94 0h1.533s.387-2.292-1.533-3.594v3.594"/></g><path d="M14.35 18.817l-.016 1.278.005-.1a1.17 1.17 0 0 1-2.341 0V18.14l.3-.266h.193l1.143-.25.337.07.39.14v.983" class="C G"/><path d="M13.626 17.627l-1.143.25h-.193l-.3.266v.895c.344.228.757.36 1.2.36a2.17 2.17 0 0 0 1.149-.327l.003-.252v-.983l-.39-.14-.337-.07" class="C L"/><path d="M13.184 18.556c-2.582 0-4.675-2.093-4.675-4.675V8.68c0-2.582 2.093-4.675 4.675-4.675S17.86 6.097 17.86 8.68v5.203c0 2.582-2.093 4.675-4.675 4.675" class="C G"/><g fill="#242624" class="C"><use xlink:href="#D"/><use xlink:href="#D" x="-4.103"/></g><g fill="#eea07f" class="C"><path d="M13.263 15.673c-.63.001-1.24-.196-1.683-.49l-.033-.147.15-.023c.413.273.977.456 1.565.455.593.003 1.16-.18 1.575-.457l.15.023-.03.148c-.447.298-1.058.497-1.695.493"/><use xlink:href="#E"/></g><path d="M17.86 10.844c.5 0 .903.405.903.903v.523c0 .5-.405.904-.903.904v-2.33m-9.35 0c-.5 0-.904.405-.904.903v.523c0 .5.405.904.904.904v-2.33m4.616.336l-.363 1.496a.52.52 0 0 0 .507.645.52.52 0 0 0 .507-.645l-.364-1.495c-.037-.15-.25-.15-.286 0" class="L C"/><path d="M11.884 9.702l-.13-.046c-.665-.536-1.073-.05-1.1-.03a.21.21 0 0 1-.292.03c-.09-.07-.102-.203-.03-.292.235-.287.886-.663 1.67-.03.1.072.104.203.032.292-.04.05-.1.077-.162.077m2.7-.001c-.06 0-.12-.027-.162-.077a.21.21 0 0 1 .032-.292c.785-.633 1.437-.257 1.67.03.073.1.06.22-.03.292s-.218.06-.3-.028c-.045-.053-.447-.5-1.1.03l-.13.046" class="M C"/><path d="M15.38 17.218l-.004.132.004-.132" class="C G"/><path d="M18.18 25.413h.583V23.52h-.583zm-10.523 0h.583V23.52h-.583z" class="L C"/><path d="M14.35 18.416v-.007c2.017-.52 3.508-2.35 3.508-4.528V10.69l.014-.162.014.03v.287l-.028-.001v2.33l.028-.001v.707c0 2.19-1.505 4.026-3.536 4.535M12 18.405c-2.01-.524-3.49-2.35-3.49-4.523v-.707.707c0 2.173 1.482 4 3.5 4.523" fill="#9d9088" class="C"/><path d="M13.212 18.556h-.03c-.41 0-.806-.053-1.184-.15a4.69 4.69 0 0 0 1.185.151c.403 0 .795-.05 1.167-.147v.007a4.68 4.68 0 0 1-1.139.14" fill="#ed9e8e" class="C"/><path d="M8.51 10.844v-.286-.001.287" fill="#9d9088" class="C"/><path d="M13.184 18.556a4.69 4.69 0 0 1-1.185-.151c-2.008-.525-3.5-2.35-3.5-4.523v-3.325l.013-.03s.27 4.618 3.868 6.02a2.23 2.23 0 0 0 .807.151c.274 0 .548-.05.807-.15 3.197-1.245 3.767-5.028 3.855-5.858v3.193c0 2.18-1.49 4.01-3.508 4.528-.373.096-.764.147-1.167.147m.013-1.49c-.18 0-.355.038-.5.11l-.048.14.093.06.045-.01a.94.94 0 0 1 .411-.089c.14 0 .273.027.387.077l.137-.053-.053-.137c-.14-.062-.303-.095-.47-.095m2.182.153l-.004.132.004-.132" fill="#f2ccab" class="C"/><use xlink:href="#E" fill="#eea07f" class="C"/><path d="M17.86 13.175v-2.33l.028.001v2.33l-.028.001m-9.35-.002v-2.33 2.33" fill="#ed9e8e" class="C"/><path fill="#f2ccab" d="M15.375 17.35l.004-.132-.004.132" class="C"/><path d="M17.483 4.944c-.67-1.563-2.238-2.895-5.795-2.296-.06.098-.91.13-1.477 1.082-1.045.13-2.427 1.178-1.7 6.59 0 0 .783-6.088 2.82-3.85.662.758 2.412 2.113 6.507 2.21l.027 1.637c1.265-4.085.226-5.113-.38-5.37" class="C M"/><path d="M18.37 8.196c-2.435-.097-4.008-.573-4.935-1-.594-.266-1.113-.7-1.54-1.32a1.4 1.4 0 0 0-1.17-.625c-.114 0-.2.015-.2.016l-.034-.166a1.22 1.22 0 0 1 .218-.017 1.61 1.61 0 0 1 1.325.695c.4.583.906 1.007 1.47 1.26.915.4 2.473.88 4.9.974l-.025.17m.07-1.458c-3.025-.057-4.913-.58-5.347-1.497l-.01-.02c-.597-.815-1.317-.997-1.84-.997-.417 0-.7.115-.715.118l-.065-.157a2.26 2.26 0 0 1 .778-.13c.566 0 1.343.197 1.985 1.075l.02.037c.193.408 1.08 1.32 5.177 1.398l.015.17" fill="#363836" class="C"/></g><g class="M"><path d="M126.9 101h-.1a.8.8 0 1 1-1.6 0 .8.8 0 1 1 1.6 0h.2a1 1 0 1 0-2 0 1 1 0 1 0 2 0h-.1"/><path d="M127 100.7h1v-.397h-1zm-5.9.3h-.1a1 1 0 1 0 2 0 1 1 0 1 0-2 0h.2a.8.8 0 0 1 1.6 0 .8.8 0 0 1-1.6 0h-.1"/><path d="M120 100.7h1v-.397h-1zm3 0h2v-.397h-2z"/></g><path d="M142 98h32v-4h-32zm0 8h32v-4h-32zm0 9h32v-4h-32zm-16 13h49v-4h-49zm0 13h49v-4h-49zm0 11h49v-4h-49zm0 13h49v-4h-49z" class="H"/><path d="M119.67 127.697v-.303h-5.014v-3.788h4.685v4.1h.33v-.303.303h.33V123h-6v5h6v-.303h-.33m-.001 13v-.303h-5.014v-3.788h4.685v4.1h.33v-.303.303h.33V136h-6v5h6v-.303h-.33m-.001 12v-.303h-5.014v-3.788h4.685v4.1h.33v-.303.303h.33V148h-6v5h6v-.303h-.33m-.001 14v-.303h-5.014v-3.788h4.685v4.1h.33v-.303.303h.33V162h-6v5h6v-.303h-.33" fill="#515251"/><g transform="translate(63 105)"><mask id="G" fill="#fff"><use xlink:href="#B"/></mask><path d="M42.31 62.706c-1.188-.88-1.543-2.313-1.616-3.843-.87 3.915-3.41 3.767-4.03 4.1l-.093.067.093-.067c3.753-2.587 4.077-7.13 4.103-7.768.038-4.788-1.388-9.58-4.052-13.56-1.76-2.63-4.317-5.54-2.113-8.703.567-.813 1.45-1.334 2.247-1.923 1.845-1.365 3.345-3.243 4.065-5.423.342-1.036 1.153-6.785-1.033-6.402-.357.063-.663.283-.957.496-2.31 1.665-4.72 3.19-7.213 4.56-2.182 1.2-3.63 1.57-4.46 4.027-2.713 8.014-5.685 15.645-4.05 24.25 1.027 5.402-2.092 11.165-4.954 15.86-.484.795-1.02 1.587-1.214 2.496 4.148 4.9 8.516 9.843 13.765 13.54 1.937-2.678 3.897-5.38 6.393-7.548 2.223-1.93 2.4-2.988 4.967-4.428v-4.735l.153-4.998" fill="#f3b98b" class="B"/><path d="M34.076 26.53c.04.06.084.125.152.15.09.033.186-.01.27-.054.87-.442 1.713-.936 2.524-1.48.363-.244.725-.5 1-.84.39-.477.59-1.085.694-1.693.157-.902.122-1.836-.092-2.726l-5.524 3.562c.04 1.107.5 2.34.974 3.08" fill="#efcaad" class="B"/><path d="M32.492 27.3c-.427-.33-.56-1.723-.627-2.225a7.12 7.12 0 0 1-.058-.878l-.097.055-.42.226c-.03 1.073.397 2.2 1.202 2.822m-1.205 0c-.427-.33-.562-1.723-.627-2.225l-.027-.255-.517.273c.114.87.52 1.703 1.172 2.207" class="K B"/><path d="M19.985 72.07l-2.055-3.18.314-.51c2.482-4.07 5.157-8.947 5.154-13.693-.001-.727-.064-1.45-.2-2.168-.83-4.367-.473-8.483.435-12.526l.138.7c.94 4.92 3.755 9.457 3.856 14.538.112 5.575-3.222 10.56-6.42 15.127l-1.22 1.702" fill="#f1af83" class="B"/><path d="M31.38 33.417c1.14-.13 2.305-.326 3.388-.7.15-.18.3-.35.486-.506l-.65.245c-1.155.53-2.375.885-3.643 1.007l.42-.046m.127 50.017L32.65 81.9a13.69 13.69 0 0 0-1.1-1.172c-2.988-2.8-6.2-5.58-8.63-8.9l6.618 9.007 1.968 2.6" class="K B"/><path d="M15.71 64.88s5.925 12.515 16.94 20.71c.17.48-1.95 3.612-1.95 3.612s-14.028-8.687-18.848-21.334c.48-1.32 3.856-2.987 3.856-2.987" class="B E"/><path d="M10.89 64.88s2.17 13.398 25.07 25.347c-.945-.642-24.106 31.17-24.106 31.17l-35.606-28.26L10.89 64.88" fill="#464644" class="B"/><path d="M35.903 90.197l-.09-.047.09.047m-.1-.052l-.094-.05.094.05m-.098-.05l-.098-.05.098.05m-.098-.052l-4.002-2.247 4.002 2.247" class="B N"/><path d="M31.605 87.795c-2.434-1.456-4.585-2.918-6.485-4.36 1.9 1.443 4.05 2.905 6.485 4.36" fill="#e4e5e5" class="B"/><path d="M29.64 97.57H5.672a5.38 5.38 0 0 1-3.176-1.022L23.26 83.434h1.862c1.9 1.443 4.05 2.905 6.485 4.36l4.1 2.298.098.05.1.052.045.024c-.007-.003-.015-.004-.024-.004-.433 0-2.99 3.103-6.285 7.353" class="B O"/><path d="M35.96 90.226" class="B N"/><path d="M35.96 90.226" class="B O"/><path d="M29.396 91.725c0 1.395-1.13 2.525-2.524 2.525s-2.525-1.13-2.525-2.525 1.13-2.524 2.525-2.524 2.524 1.13 2.524 2.524" fill="#f9ca5b" class="B"/><path d="M118.152 30.695c.643.84 1.08 1.817 1.496 2.79l2.255 5.673c.75 2.038 1.444 4.115 1.695 6.272.163 1.4.137 2.814.11 4.223l-.36 18.52c-.92-1.096-1.46-2.453-1.966-3.79-2.526-6.685-4.582-13.55-6.147-20.522-.51-2.275-.972-4.57-1.764-6.765-.533-1.473-1.21-2.9-1.887-4.303l-3.15-6.55c1.517-.56 3.216.666 4.633 1.195 1.915.715 3.81 1.6 5.087 3.256" class="B P"/><path d="M91.463 32.176c.416.34.94.61 1.202.673.99.232 1.92-.675 2.834-.902.587-.146 1.196-.175 1.8-.205l4.26-.205c.19-.01.393-.017.565.068.183.1.303.27.42.437.548.8 1.187 1.537 1.9 2.192.24.22.5.45.6.76.16.5-.14 1.018-.38 1.488a6.7 6.7 0 0 0-.643 3.946c.03.215.073.44.006.647-.085.263-.322.44-.536.616a6.26 6.26 0 0 0-2.245 4.964 13.07 13.07 0 0 0 5.808-1.017c1.02-.433 2.002-1.013 2.707-1.867.8-.968 1.183-2.225 1.298-3.475s-.02-2.51-.155-3.757c-.125-1.163-.258-2.352-.775-3.4-.506-1.028-1.355-1.857-2.304-2.5-1.3-.878-2.8-1.433-4.333-1.763-2.692-.58-5.64-.92-8.21.188l-4.05 1.747c-.12.052-.25.11-.317.224-.207.353.112.785.546 1.14" fill="#d77245" class="B"/><path d="M105.84 40.912c-.005-.674-.14-1.357.038-2.005.218-.782.852-1.363 1.352-2.002.097-.125.195-.265.2-.425.003-.137-.065-.266-.13-.387-1.353-2.48-1.326-4.95-4.4-5.86-3.143-.932-6.948-.335-10.203-.263-1.063.023-2.316-.15-2.562-1.462-.015-.083-.023-.17.01-.247.036-.083.113-.14.19-.187.533-.33 1.174-.418 1.78-.58 1.655-.447 3.154-1.13 4.85-1.455l7.906-1.515c.374-.07.763-.143 1.133-.052.385.094.706.353 1.013.605l4.335 3.56c1.03.846 2.104 1.75 2.58 2.995.403 1.056.323 2.227.255 3.355-.257 4.25-.273 8.513-.05 12.764.065 1.23.12 2.758-.743 3.75-1.62 1.867-6.293.285-8.055-.734-2.387-1.38-3.197-3.745-1.472-6.032.79-1.048 1.795-2.053 1.953-3.355.02-.155.025-.3.024-.467" class="B P"/><path d="M124.117 59.358c-.474-4.91-.726-9.618-1.657-14.463-.007-.04.026.245.063.53s.08.572.087.53c.323-1.593-.175-3.25-.927-4.69s-1.755-2.736-2.554-4.152c-1.884-3.343-2.58-7.26-4.533-10.562-.47-.796-1.042-1.577-1.86-2.01-.646-.345-1.39-.44-2.118-.533l-7.307-.916c-1.594-.2-3.198-.4-4.802-.314-2.516.135-4.795.827-7.236.204-.505-.13-.993.388-1.017.908s.273 1 .6 1.403c1.18 1.46 2.917 2.456 4.773 2.738 1.355.207 2.747.045 4.1.265 1.204.195 2.338.687 3.45 1.185 1.99.89 3.966 1.82 5.922 2.783.635.313 1.345.73 1.45 1.43.095.63-.347 1.196-.717 1.715-1.743 2.448-2.313 5.694-1.508 8.59.43 1.54-1.443 2.078-2.74 2.298-1.426.243-2.28-.673-3.027-1.884-1.334-2.16-1.856-4.707-2.623-7.13-.032-.165-.11-.335-.168-.493-.45-1.245-1.033-2.452-1.7-3.59-.375-.63-.784-1.24-1.247-1.807-.945-1.16-2.518-1.59-3.91-1.083-.85.31-1.503 1.03-1.91 1.84-.9 1.777-.364 3.5-.05 5.34l.544 3.26c.37 2.255.883 4.513 1.88 6.58 1.58 3.286 2.463 6.575 3.426 10.01 1.015 3.62 3.353 7.145 5.367 10.276 4.22 6.555 9.255 12.638 12.52 19.767 1.763 3.847 2.96 7.92 3.906 12.036.395 1.72 1 10.355 2.658 10.85.753.227 2.613-1.36 3.342-1.637 1.973-.75 4.247-1.075 6.305-1.535 1.3-.29 11.774-3.14 12.345-2.292-8.846-13.166-17.573-29.448-19.12-45.45" fill="#f3b98b" class="B"/><path d="M90.977 34.576s-.325-4.834 4.906-2.44c.2.066 1.3 3.638 1.235 4.5-.135-.267-2.134 1.763-4.88 1.974-.08.107-1.26-4.04-1.26-4.04M92.17 24.1a7.77 7.77 0 0 0 3.545.263l-.285-1.268c-1.25.143-2.482.22-3.75-.033.05.396.13.777.274.926a.49.49 0 0 0 .217.112" fill="#efcaad" class="B"/><path d="M96.876 24.85c-.076-.635-.1-1.276-.054-1.915l-.297.037a10.24 10.24 0 0 0 .35 1.878m.955-.676c-.046-.45.004-.903.075-1.353l-.248.023.001.16a8.26 8.26 0 0 0 .173 1.169m1.207 4.042l.73-.5c.4-.3.826-.583 1.145-.97-.525.633-1.755 1.1-2.527 1.442l.65.038m6.977 2.555c.6-.182 1.183-.423 1.763-.665-.713.295-1.442.434-2.195.467l.432.198m5.647-3.795c-.145-.94-.1-1.876.08-2.797l-.458-.086c-.208 1.045.224 1.894.377 2.883" fill="#efa577" class="B"/><path d="M103.2 45.312a23.25 23.25 0 0 1 .368 5.884c.2-1.77.272-3.585.15-5.375-.184-.145-.357-.317-.52-.51" class="B P"/><path d="M114.775 34.293a20.75 20.75 0 0 1-4.542-1.255c.164.187.282.403.32.656a1.22 1.22 0 0 1-.017.435 9.57 9.57 0 0 0 4.238.164m-16.542 3.192c-1.593 1.093-3.483 1.93-5.4 2.227.8-.417 1.33-.832 2.228-1.066 1-.264 2.298-.563 3.173-1.16m-4.95 3.06c.9.2 1.836.215 2.717-.033.853-.24 1.704-.736 2.244-1.45-.665.38-1.427.555-2.12.873-.894.4-1.87.52-2.84.6" fill="#efa577" class="B"/><path d="M106.68 77.63v3.262s19.628-4.59 22.52-9.066c-.322.185-1.93-2.547-1.93-2.547s-1.98 4.65-20.592 8.35" class="B E"/><path d="M132.895 68.48s-9.013 9.637-30.536 13.252c-.073.24 10.145 36.634 10.145 36.634l39.19-14.58c-.24-.36-18.8-35.305-18.8-35.305" fill="#464644" class="B"/><path d="M102.525 81.703l.115-.02-.115.02m.125-.02l5.52-1.134-5.52 1.134" class="B N"/><path d="M127.76 97.57h-21.07l-4.33-15.834c.02-.007.037-.01.056-.013l.02-.004.035-.006.026-.004.03-.005.115-.02 5.536-1.137c4.123-.914 9.313-2.233 11.6-3.507.25-.004 4.217 10.456 7.983 20.53" class="B O"/><path d="M82.955 22.327S105.6 31.84 126.868 47.7c.138.366.828 2.196-2.348 3.05-.138.123-34.8-21.347-41.565-28.422" class="B F"/><path d="M82.955 22.327s1.947 1.885 3.733 3.265c.02.017 1.332.117 1.097-1.083l-4.83-2.183" fill="#91928e" class="B"/><path d="M82.955 22.327l1.6 1.485s.637-.015.568-.533l-2.177-.953m32.59 17.547c-.3 1.115-1.05 2.4-2.647 3.68l.347.22c1.564-1.267 2.325-2.54 2.67-3.664l-.37-.237" fill="#131412" class="B"/><path d="M113.476 40.997L89.517 25.87s18.297 9.27 24.58 14.272c0 .183-.622.854-.622.854m12.152 8.297l-9.7-6.86.236-.916 10.15 6.497c.295.95-.673 1.28-.673 1.28" fill="#515452" class="B"/><path d="M113.48 86.94c0 1.395-1.13 2.525-2.524 2.525s-2.524-1.13-2.524-2.525 1.13-2.524 2.524-2.524 2.524 1.13 2.524 2.524" fill="#f9ca5b" class="B"/></g><path d="M197 173s-3.337.162-4.996 1.45c-.087-.126 1.4 1.55 1.4 1.55l3.606-3m-31 12s.805-2.42 4-3c0-.17 0 2.13 0 2.13l-4 .86m-91-15.985s1.337-.164 2 1.438c-.014.013-.972.82-1.208 1.557 0 0-.762-2.2-.792-2.995M95.85 190s3.247 2.25 3.15 4l-4-2.46c.142-.122.85-1.54.85-1.54" class="F"/><path d="M111 121.3l4.327 5.7 9.673-7.282-1.23-1.718-8.043 6.054-3.085-4.07L111 121.3m0 13l4.327 5.7 9.673-7.28-1.23-1.72-8.043 6.054-3.085-4.072L111 134.3m0 13l4.327 5.7 9.673-7.28-1.23-1.72-8.043 6.053-3.086-4.07-1.64 1.308M111 161.3l4.327 5.7 9.673-7.282-1.23-1.718-8.043 6.054-3.085-4.07L111 161.3" fill="#3fae6a"/><path d="M236 196l32 11.507-8.557 9.493L236 196m-11 8l7 14.927-7 1.073v-16" class="D"/><path d="M54 205l-20.38 18-5.62-6.96L54 205m-3-4.05L31.927 206 31 197l20 3.95" class="E"/><path d="M265.167 190h-47.334c-7.087 0-12.833-5.82-12.833-13s5.746-13 12.833-13h47.334c7.087 0 12.833 5.82 12.833 13s-5.745 13-12.833 13" class="D"/><text font-family="LucidaGrande, Lucida Grande" font-size="9" letter-spacing=".075" class="E"><tspan x="220" y="182">R</tspan><tspan x="225.765" y="182" letter-spacing=".067">EGISTER</tspan></text><path d="M218.686 21h52.627c.932 0 1.686-.672 1.686-1.5s-.755-1.5-1.686-1.5h-52.627c-.932 0-1.686.67-1.686 1.5s.755 1.5 1.686 1.5" class="D"/></g></svg>