<svg xmlns="http://www.w3.org/2000/svg" xmlns:xlink="http://www.w3.org/1999/xlink" width="501" height="420"><style><![CDATA[.B{fill:#eea886}.C{fill:#eea987}.D{fill:#323657}.E{fill:#ffc955}.F{fill:#a77860}.G{fill:#3a3f47}.H{fill:#254380}.I{fill:#285173}.J{fill:#3c4145}.K{fill:#63a4ff}.L{fill:#252e3b}]]></style><defs><path d="M61.594 112.322c-16.166-11.95-19.583-34.743-7.633-50.91S88.704 41.83 104.87 53.78s19.584 34.743 7.633 50.91-34.742 19.583-50.908 7.633zm86.505-3.13c2.464-6.103 4.01-12.442 4.674-18.83l12.85-4.652-4.402-29.364-13.65-.68a69.42 69.42 0 0 0-9.991-16.63l5.79-12.366-23.876-17.65-10.124 9.162a69.46 69.46 0 0 0-18.828-4.675L85.89.66 56.527 5.063l-.68 13.648c-5.9 2.51-11.518 5.847-16.63 9.992l-12.365-5.79-17.65 23.876 9.163 10.123c-2.464 6.103-4 12.442-4.676 18.83L.84 80.393l4.402 29.363 13.65.68a69.47 69.47 0 0 0 9.992 16.629l-5.79 12.365 23.876 17.65 10.123-9.162c6.102 2.463 12.442 4 18.828 4.674l4.653 12.85 29.364-4.402.68-13.65c5.91-2.51 11.52-5.847 16.63-9.99l12.365 5.8 17.65-23.875-9.162-10.124z" id="A"/><linearGradient x1="0%" y1="50%" x2="100%" y2="50%" id="B"><stop stop-color="#95caff" offset="0%"/><stop stop-color="#5499ff" offset="100%"/></linearGradient><path d="M69.656 101.77c-17.31-.194-31.187-14.386-30.993-31.697S53.05 38.884 70.36 39.08s31.188 14.385 30.994 31.697-14.386 31.187-31.698 30.993zm58.82-45.794c-1.356-5.503-3.472-10.71-6.228-15.504l6.626-9.726L111 12.463l-9.873 6.406c-4.73-2.863-9.888-5.095-15.36-6.575L83.576.742 58.008.455l-2.45 11.5c-5.502 1.356-10.708 3.472-15.503 6.227l-9.727-6.626-18.282 17.876 6.406 9.873c-2.862 4.732-5.095 9.888-6.574 15.36l-11.553 2.2L.04 82.424l11.5 2.45c1.356 5.502 3.472 10.708 6.228 15.503l-6.626 9.726 17.876 18.282 9.873-6.406a59.83 59.83 0 0 0 15.359 6.574l2.2 11.553 25.57.287 2.45-11.5c5.503-1.355 10.708-3.472 15.503-6.227l9.727 6.626 18.282-17.876-6.407-9.873c2.863-4.732 5.095-9.89 6.575-15.36l11.552-2.2.288-25.568-11.5-2.45z" id="C"/><linearGradient x1="0%" y1="50%" x2="99.9992854%" y2="50%" id="D"><stop stop-color="#95caff" offset="0%"/><stop stop-color="#5499ff" offset="100%"/></linearGradient><path id="E" d="M.365.967h315.453v4.995H.365z"/><linearGradient x1="6.3400887e-05%" y1="50.012012%" x2="100.000063%" y2="50.012012%" id="F"><stop stop-color="#95caff" offset="0%"/><stop stop-color="#5499ff" offset="100%"/></linearGradient><linearGradient x1="0%" y1="50.01001%" x2="99.9996112%" y2="50.01001%" id="G"><stop stop-color="#95caff" offset="0%"/><stop stop-color="#5499ff" offset="100%"/></linearGradient><linearGradient x1="52.449421%" y1="55.0197226%" x2="17.8532044%" y2="-15.8881537%" id="H"><stop stop-color="#ff9f54" offset="0%"/><stop stop-color="#ffd254" offset="100%"/></linearGradient><path d="M35.08 64.12a20.83 20.83 0 0 1-4.893-29.04 20.83 20.83 0 0 1 29.041-4.892c9.37 6.668 11.56 19.67 4.892 29.04s-19.67 11.56-29.04 4.892zm49.447-2.685a39.79 39.79 0 0 0 2.48-10.819l7.3-2.793-2.822-16.75-7.814-.25a39.76 39.76 0 0 0-5.887-9.408l3.185-7.133-13.84-9.847-5.695 5.345a39.75 39.75 0 0 0-10.819-2.479L47.822 0l-16.75 2.823-.247 7.813a39.72 39.72 0 0 0-9.408 5.887l-7.133-3.184-9.848 13.84 5.345 5.695a39.75 39.75 0 0 0-2.479 10.819L0 46.486l2.822 16.75 7.814.248c1.497 3.354 3.464 6.527 5.887 9.408l-3.184 7.133 13.84 9.847 5.696-5.345a39.74 39.74 0 0 0 10.817 2.479l2.794 7.302 16.75-2.822.248-7.814c3.355-1.496 6.528-3.463 9.41-5.887l7.132 3.184 9.85-13.84-5.346-5.695z" id="I"/></defs><g fill="none" fill-rule="evenodd"><g transform="translate(216 125)"><mask id="J" fill="#fff"><use xlink:href="#A"/></mask><path d="M61.594 112.322c-16.166-11.95-19.583-34.743-7.633-50.91S88.704 41.83 104.87 53.78s19.584 34.743 7.633 50.91-34.742 19.583-50.908 7.633zm86.505-3.13c2.464-6.103 4.01-12.442 4.674-18.83l12.85-4.652-4.402-29.364-13.65-.68a69.42 69.42 0 0 0-9.991-16.63l5.79-12.366-23.876-17.65-10.124 9.162a69.46 69.46 0 0 0-18.828-4.675L85.89.66 56.527 5.063l-.68 13.648c-5.9 2.51-11.518 5.847-16.63 9.992l-12.365-5.79-17.65 23.876 9.163 10.123c-2.464 6.103-4 12.442-4.676 18.83L.84 80.393l4.402 29.363 13.65.68a69.47 69.47 0 0 0 9.992 16.629l-5.79 12.365 23.876 17.65 10.123-9.162c6.102 2.463 12.442 4 18.828 4.674l4.653 12.85 29.364-4.402.68-13.65c5.91-2.51 11.52-5.847 16.63-9.99l12.365 5.8 17.65-23.875-9.162-10.124z" fill="url(#B)" mask="url(#J)"/></g><path d="M261.2 322.983s.323-1.545 2.58-1.54c3.13.01 3.383 4.46 2.854 7.226-.7 3.67-2.03 5.167.503 14.683 0 0-5.603-11.762-4.723-15.26.646-2.566-1.213-5.1-1.213-5.1" class="G"/><g class="B"><path d="M243.593 352.643s-1.334-.673-1.32-1.402-.32-1.715-.44-2.02c-.162-.407-.22-1.862-.708-1.64s-.015 2.406-.002 2.886-1.577-.82-2.048-.81-2.394 2.97-1.204 3.726 2.89.81 3.13.9l1.145.428 1.447-2.066"/><path d="M239.393 349.762s-3.795-2.057-4.16-1.967-.46.318-.114.526l3.6 2.1-5.202-1.62c-.183.003-.393.432-.217.562s4.93 2.037 4.93 2.037l-4.83-1.422c-.23.076-.33.52 0 .656l4.492 1.792s-3.393-.873-3.576-.662c-.112.13-.3.5.572.688s2.916.892 2.916.892l1.578-3.582m15.678 5.75l-7.4-1.742-4.068-1.127-1.447 2.066 9.495 4.694 5.114 1.892-1.685-5.783"/></g><path d="M228.15 381.267l-1.874 9.25c-.06 1.514-5.297 21.67-5.677 22.673s1.964 1.855 2.63 1.194 5.855-11.902 7.04-14 4.09-6.938 4.254-11.788-6.375-7.338-6.375-7.338" fill="#de9673"/><path d="M226.834 383.604l3.62 8.714c.798 1.288 7.733 20.927 7.98 21.97s2.65.347 2.835-.573-1.792-13.05-1.977-15.444-.58-8.617-3.158-12.728-9.3-1.94-9.3-1.94" class="B"/><path d="M241.4 413.744l-3.244-.8c-.096-.082-.126-.268-.546-.076s-.564.85-.974 1.076-2.934 1.104-4.302 1.864c-.494.275-2.598 1.2-2.874 1.9s-.127 1.72 3.547 1.293 7.733-.1 8.52-.554.137-3.638-.127-4.693m-17.998.706l-2.995-1.486c-.076-.1-.066-.3-.516-.2s-.734.7-1.183.843-3.1.447-4.6.896c-.542.163-2.796.615-3.214 1.238s-.494 1.655 3.185 2.024 7.577 1.552 8.44 1.288.915-3.523.883-4.612m29.972-43.998s-24.35 5.35-26.54 13.15c0 0 4.353-1.22 8.7 1.174l22.666.05c1.417-.003 11.344-2.823 9.805-11.178-1.56-8.467-14.64-3.196-14.64-3.196" class="E"/><path d="M257.51 336.602c.353.34.675.8.956 1.326a13.21 13.21 0 0 1 .691 1.506c.418 1.07.652 1.983.652 1.983s5.758-3.042 4.354-4.192-2.018-5.647-2.018-5.647-5.8 3.91-4.635 5.024" class="C"/><path d="M250.77 325.754s-1.19 1.8.606 5.532c0 0 .523 3.223.197 3.902s1.492.39 1.788.73 1.158 2.082 2.697 2.846 6.696-4.27 6.467-6.24 1.738-11.23-5.044-9.742-6.71 2.97-6.71 2.97" class="B"/><path d="M250.816 329.92s-3.02-7.943 5.288-8.69 6.717 9.3 6.46 12.5c0 0-1.127-4.547-4.973-3.634s-4.878.252-6.776-.177" class="G"/><path d="M257.892 328.78c.245-.96 2-.974 2.165.34s-.793 2.934-1.397 2.445-1.13-1.374-.768-2.785" class="B"/><path d="M258.465 337.928a13.21 13.21 0 0 1 .691 1.506c1.78-1.495 2.51-4.755 2.51-4.755-1.12 1.682-3.2 3.248-3.2 3.248" class="F"/><path d="M258.962 340.444l-5.72 6.268c-.644.46-2.577 4.602 0 7.087 0 0 .234 2.645.695 3.66s.133 11.437-.603 12.633 9.71 5.17 14.682 3.558c0 0-1.4-6.687-1.87-10.092s1.593-13.33 1.64-16-1.805-9.447-3.618-10.186-5.204 3.072-5.204 3.072" fill="#5f8cc9"/><g fill="#6e6760"><path d="M251.26 371.146l-18.417 6.142-.378-1.135L250.88 370l.378 1.136"/><path d="M232.833 377.28l-15.514-11.67.72-.957 15.514 11.672-.72.956"/></g><g class="B"><path d="M237.48 374.548c-.154-.4-.184-1.044 1.012-1.933s3.806-3.344 4.787-3.53 1.72.246 2.117.185.92 2.33.92 2.33l-8.836 2.946"/><path d="M245.397 369.27l6.114-2.578c.9-.43 5.185-1.933 5.553-2.117s2.302-10.25 2.456-12.857.306-8.132 3.252-7.885 3.652 2.178 3.284 5.983-2.547 17.43-3.468 17.89-11.823 2.632-17.04 4.168-.152-2.603-.152-2.603"/></g><path d="M261.506 323.393s1.246 2.244 1.118 3.932c0 0 1.144-2.556-1.118-3.932" fill="#5f8cc9"/><path d="M442.922 248.957h-60.718c-2.874 0-5.204-2.33-5.204-5.204v-34.55c0-2.874 2.33-5.204 5.204-5.204h60.718c2.874 0 5.204 2.33 5.204 5.204v34.55c0 2.875-2.33 5.204-5.204 5.204" fill="#b5deff"/><path d="M8.67 152.584s78.66-29.602 104.193 16.705c20.43 37.052-13.737 40.7-13.737 40.7s-3.275 20.24-39.5-29.828C42.55 156.562 8.67 152.584 8.67 152.584" fill="#bbd070"/><path d="M1.676 26.456S69.788 8.958 109.76 96.228s79.35 95.955 79.35 95.955S36.035 211.927 1.676 26.456" fill="#97a43c"/><path d="M160.972 195.72c-7.27 28-69.335-29.745-73.3-78.98S98.176 32.235 86.85.22c0 0 109.92 57.615 74.12 195.5" fill="#48753a"/><g transform="translate(117 57)"><mask id="K" fill="#fff"><use xlink:href="#C"/></mask><path d="M69.656 101.77c-17.31-.194-31.187-14.386-30.993-31.697S53.05 38.884 70.36 39.08s31.188 14.385 30.994 31.697-14.386 31.187-31.698 30.993zm58.82-45.794c-1.356-5.503-3.472-10.71-6.228-15.504l6.626-9.726L111 12.463l-9.873 6.406c-4.73-2.863-9.888-5.095-15.36-6.575L83.576.742 58.008.455l-2.45 11.5c-5.502 1.356-10.708 3.472-15.503 6.227l-9.727-6.626-18.282 17.876 6.406 9.873c-2.862 4.732-5.095 9.888-6.574 15.36l-11.553 2.2L.04 82.424l11.5 2.45c1.356 5.502 3.472 10.708 6.228 15.503l-6.626 9.726 17.876 18.282 9.873-6.406a59.83 59.83 0 0 0 15.359 6.574l2.2 11.553 25.57.287 2.45-11.5c5.503-1.355 10.708-3.472 15.503-6.227l9.727 6.626 18.282-17.876-6.407-9.873c2.863-4.732 5.095-9.89 6.575-15.36l11.552-2.2.288-25.568-11.5-2.45z" fill="url(#D)" mask="url(#K)"/></g><path d="M53.597 165.996s.957-1.675-.56-6.163c-1.47-4.34-6.55-3.948-8.164-1.166s-1.07 4.508 1.308 7.648 6.43 1.116 7.417-.32M41.795 243.22l-.283 2.12c-.032.278-2.797-.162-2.797-.162l-.225-2.195s2.96-.022 3.305.238" class="B"/><path d="M41.54 245.104s.876 1.11 1.724 1.596 2.18.676 2.68 1.177c.362.36 1.318 1.918-2.202 1.887s-5.217.22-5.594-.377.545-4.408.545-4.408.863.243 2.847.125" fill="#152b3d"/><path d="M60.943 243.22l-.283 2.12c-.03.278-2.797-.162-2.797-.162l-.223-2.195s2.958-.022 3.303.238" class="B"/><path d="M60.69 245.104s.877 1.11 1.725 1.596 3.966.88 4.467 1.383c.362.36.964 1.817-3.99 1.68-3.52-.097-5.217.22-5.594-.377s.546-4.408.546-4.408 1.093.195 2.845.125" fill="#152b3d"/><g class="D"><path d="M42.726 197.32s-1.418 4.407-1.232 8.204-.733 7.953-1.11 11.92c-.42 4.422-2.135 14.89-2.197 17.257s.266 9.92.266 9.92l3.435.083s2.884-18.304 3.632-20.17 4.45-15.182 4.576-16.676-7.37-10.537-7.37-10.537"/><path d="M56.966 196.86l2.333 13.975c.25 2.325.415 11.248.54 12.7s.83 19.008 1.494 21.167h-3.83s-3.932-12.763-3.932-18.8-2.604-13.128-4.285-17.112-5.528-4.08-6.56-11.47c0 0 12.84-2.803 14.24-.46"/></g><path d="M52.207 167.18s-.432 1.257 0 2.154-5.52.36-5.52.36.27-1.854-.508-3.38 6.027.866 6.027.866" class="B"/><path d="M42.45 198.28s2.14 2.2 14.708-.342l-.19-1.077-14.287.538-.23.88" class="D"/><path d="M53.108 169.627l2.826.343c.63.12 4.855-.756 5.722-.845s4.566-2.623 4.685-2.923l2.37-6.858c.12-1.167 2.074-.565 1.907.24-.314 1.503-.717 5.153-.937 6.21-.24 1.142-.877 3.73-1.237 4.047s-3.688 2.85-6.948 3.927-5.713 2.662-5.713 2.662H39.72s-6.25-8.932-6.384-10.278 4.365-10.29 5.262-11.41 2.195.366 2.195.366l-3.047 9.01c-.36 1.12 3.127 6.05 4.084 6.064s3.414-.3 4.505-.344 2.243-.523 2.243-.523l4.53.314" class="B"/><path d="M60.03 175.593s-1.967 1.307-2.146 3.55-.897 5.786-1.256 6.998.314 10.002.404 10.63-12.43 2.12-14.354.627l-.763-10.54c-.224-2.333-1.3-7.984-1.66-8.747s-4.7-6.866-4.9-7.67c0 0 2.25-3.59 3.866-3.634 0 0 2.565 3.006 3.4 3.14s5.962-.804 5.963-.812c0 0 .56.762 3.533-.135l4.118.473c.697.09 5.548-.61 5.548-.61s1.945 3.285 1.604 4.944l-3.37 1.785" class="H"/><path d="M68.598 160.044s.44-2.08-.1-2.675c-.302-.34-1.025-1.24-1.1-1.372s-.843-.578-.843-.793.76-.48 1.42.132 1.074.744 1.34.678.644-2.264.677-2.8.244-1.983.585-1.884.324.727.324.727.396-1.1.66-.876.23.744.23.744.496-.612.628-.165 0 .842 0 .842.512-.28.545.413-.148 2.727-.5 3.454-1.725 2.628-1.887 3.372-2 .212-2 .212m-28.233-3.65s1.495-2.513 2.002-2.737 1.227-.35 1.855-.8 1.458-.822 1.413-.972-.785-.1-1.577.254-1.14.178-1.215-.002.422-1.446.66-1.745 1.945-2.014 1.66-2.267-1.4.687-1.57.88c0 0 .882-1.854.538-1.943s-.986.568-.986.568.074-1.585-1.63.987c0 0 .358-.852-.165-.57s-1.03 1.885-1.196 2.692-.9 3.38-1.547 4 1.757 1.653 1.757 1.653" class="B"/><path d="M46.18 166.315s.788.07 2.463-.51 1.798-3.507 2.16-3.16c.74.708 1.437.22 1.716-.2 0 0-.818-1.077-.44-1.595s.996-.897.996-.897-1.18-5.677-6.538-3.1c-6.28 3.03-.36 9.45-.36 9.45" fill="#353a3d"/><path d="M52.207 169.335l-.188-.82s-3.42-.07-5.29.2l-.196.98s2.4 1.085 5.673-.36" class="H"/><path d="M51.363 161.93c-.3-.517-1.46-.865-1.594.598-.105 1.134 2.053 2.372 2.073 1.316s-.272-1.57-.48-1.914" class="B"/><path d="M68.68 159.572s1.234.03 1.833.572c0 0 .04.343-.1.614 0 0-1.07-.5-1.89-.593 0 0 .014-.45.158-.593" fill="#e55353"/><path d="M70.135 159.88c.114.27-.013.58-.282.696s-.582-.013-.697-.283a.53.53 0 1 1 .979-.413" fill="#353a3d"/><g fill="#fb5"><path d="M35.02 250.292h33.53l-10.57 32.454.99.32 11.01-33.814H34.266L23.36 282.746l.99.32 10.673-32.775"/><path d="M46.432 282.746l-10.568-32.454h33.53l10.672 32.775.99-.32-10.907-33.493H34.433l11 33.814.99-.32"/><path d="M31.9 260.5h41.04v-1.04H31.9zm-4.227 11.285h49.1v-1.04h-49.1z"/></g><path d="M104.7 229.346c.145-10.01 13.473-28.626 13.473-28.626s.616-.262.625-.236c.01.01.688-.095.688-.086.014 0 2.07-1.96 2.083-1.96.5 1.78 4.906 26.923 5.988 41.56-12.518-2.46-22.93-5.878-22.857-10.652zm111.693-45.2c.792-10.697 1.344-20.7 1.657-30.03-2.58-1.367-5.684-2.966-8.165-4.143l-25.262-11.74c-4.02-1.848-7.96-3.197-7.96-3.197l-29.686-2.49c-.703.04-4.135 1.236-8.636 2.953-9.737 3.695-28.51 11.217-31.498 13.364-4.384 3.14-20.067 80.018-20.484 85.24-.407 5.072 21.33 12.01 41.46 17.327l-.348 28.68-.09 4.995h88.084l-.308-4.995-.032-.63c-.335-6.752-1.648-18.844-1.312-30.62 0 0-.213-12.412 1.018-17.757.136-23.595 1.563-46.958 1.563-46.958z" fill="#dbd8e3"/><path d="M218.02 280.1l-1.62-12.418c0-.022-.008-.036-.008-.06l-.476-4.035-.022-.213c-.644-5.62-1.178-11.008-1.563-15.946-.3-3.78-.027-7.477.493-11.1 1.53-25.24 2.292-51.85 2.292-51.85.806-10.892 1.268-21.072 1.576-30.56L181.1 136.7s6.54 15.357 11.444 49.68c1.884 13.183 5.376 35.374 7.9 58.023v.005c1.373 12.222 3.946 24.67 5.902 35.7l.846 4.995h11.54l-.7-4.995M115.314 220.07c-.303-11.485 3.578-19.315 3.578-19.315 1.137 3.936 2.7 15.18 4.094 26.358-4.66-2.346-7.613-4.724-7.672-7.043zm45.306 19.496c1.36-12.762 2.58-25.496 1.992-32.475-4.755-56.102-18.2-70.952-20.162-73.126l-8.93 3.397c-9.203 3.627-27.96 10.276-30.488 12.092-4.384 3.138-21.665 83.736-22.186 88.95-.35 3.523 22.205 10.887 45.215 17.458-.213 6.308-1.685 14.954-3.782 24.247l-1.164 4.995h34.315l2.486-20.6 16.16 4.093s9.034-15.275 11.656-21.46c.45-1.055-11.18-3.85-25.1-7.568z" class="D"/><path d="M145.534 133.423s3.492-6.6 2.528-25.334c-.267-5.2 27.262 12.31 27.262 12.31s-.095 1.79-.153 4.203c-.032 1.005-.05 2.106-.05 3.238l.005.937.018 1.526a55.45 55.45 0 0 0 .068 1.839 31.24 31.24 0 0 0 .14 1.898c.113 1.132.78 3.13 1.02 3.677 1.264 2.912-20.53 3.08-30.837-4.293" class="C"/><g fill="#e8734d"><path d="M168.615 145.34l5.073 6.816s-2.97 3.98-8.25 1.042l3.177-7.858"/><path d="M172.33 152.432s18.59 45.4 14.623 103.07l-5.862 10.64-6.612-9.06s-1.066-76.59-6.342-104.83l4.193.18"/></g><path d="M174.048 138.983l-5.433 6.356s-8.72-1.7-11.278-6.243 16.71-.113 16.71-.113" class="C"/><path d="M175.294 133.42s-.63 4.845-6.68 11.918l6.6 8.87 3.573-18.398-3.495-2.4m-28.1-5.826s12.607 14.26 21.422 17.745l-4.1 10.14-20.12-22.194 2.797-5.7" fill="#c4c1cc"/><path d="M276.79 256.6s-16.733-16.228-27.708-18.928c-5.073-1.25-11.756-8.252-18.106-16.485-2.093-2.712-4.146-5.558-6.1-8.374-7.797-11.26-13.902-22.042-13.902-22.042s-23.028-26.988-4.55-39.018c0 0 7.92-.17 12.264 2.188 4.466 2.425 13.995 22.3 15.6 25.832 1.615 3.516 19.115 36.223 20.287 36.958s3.125 3.424 10.127 7.194c8.573 4.616 22.04 18.125 22.04 18.125l-9.964 14.55" class="D"/><path d="M196.47 275.38s-2.338-.094-3.34-.634l-3.04-1.844-1.02-.515c-1.03-.41-3.42-1-5.62-2.68s-9.373-8.387-9.373-8.387l4.636-7.128 2.14-7.057s16.723 1.663 18.955 2.99a6.25 6.25 0 0 1 .614.412c1.78 1.305 2.557 3.025 3.413 3.816.312.292 3.226 3.4 3.062 4.675-.223 1.756-1.09 2.883-2.18 3.415 0 0-.6 3.42-2.357 4.945 0 0-.443 3.172-3.18 4.446 0 0-.81 3.167-2.71 3.546" fill="#efaa88"/><g class="B"><path d="M169.838 59.753s30.23-7.287 23.862 30.984-13.618 41.38-32.032 33.748-17.135-32.11-18.232-44.087 16.733-20.087 26.402-20.645"/><path d="M153.957 86.257c-.45-3.36-7.123-4.498-7.585.56s3.23 13.865 5.742 12.957 2.462-8.88 1.843-13.516"/></g><path d="M145.2 99.962s.607-12.038 4.993-12.478 5.134 4.394 5.134 4.394l4.448.772s-1.555-10.52 2.803-12.426 28.503 5.385 31.98 2.24 1.505-24.503-4.906-27.335-24.09-9.132-36.848-.222c0 0-10.06-.997-11.43 7.13s1 31.94 3.828 37.926" fill="#16202e"/><path d="M186.556 247.137l-12.48 21.458-40.78-10.695 17.636-20.99s26.002 5.94 35.625 10.228" class="D"/><path d="M175.212 132.14h-.005c-16.213-1.653-22.5-14.134-22.5-14.134 10.2 10.108 22.413 9.832 22.413 9.832l.005.937.018 1.526a55.45 55.45 0 0 0 .068 1.839" class="F"/><path d="M394.318 325.02l-.002.001a3.72 3.72 0 0 1-1.06.216l-.248.004a3.65 3.65 0 0 1-1.009-.156c-.443-.13-.852-.34-1.207-.618a3.58 3.58 0 0 1-.368-.327c-.67-.68-1.08-1.615-1.067-2.644.004-.268.04-.528.096-.78l.1-.36a3.7 3.7 0 0 1 3.552-2.512 3.69 3.69 0 0 1 2.891 1.454c.485.636.77 1.43.76 2.29a3.7 3.7 0 0 1-2.436 3.43zm2.678-6.444a4.92 4.92 0 0 0-3.877-1.965c-2.192-.028-4.07 1.38-4.736 3.35-.162.478-.253.988-.26 1.52-.008.62.1 1.212.3 1.76a4.94 4.94 0 0 0 1.611 2.202 4.91 4.91 0 0 0 2.569 1.012l.388.02.244-.006h.087a4.9 4.9 0 0 0 1.417-.288c1.873-.68 3.22-2.465 3.248-4.574.015-1.137-.356-2.19-.992-3.03z" fill="#4da8f2"/><path d="M210.02 229.5l43.62 43.706 9.705-18.423-37.003-43.105c-4.583 2.247-12.995 7.608-16.323 17.822m-11.607 26.012s5.06 2.444 6.38 3.533 6.674 5.097 7.972 6.04-1.956 3.623-11.528-.52-2.823-9.052-2.823-9.052" class="B"/><g class="E"><path d="M198.854 200.155l-8.818 81.982H306.1l8.817-81.982H198.854"/><path d="M180.8 282.137h19.385v-7.375H180.8z"/></g><g fill="#7fcf6f"><path d="M403.67 193.833l16.12-25.925-8.3 3.898-7.8 22.027m-.01 0l.803-15.5 5.933-3.486-6.736 18.995"/><path d="M416.085 173.87l2.1 2.682-14.504 17.282 12.414-19.964"/></g><g transform="translate(0 281)"><mask id="L" fill="#fff"><use xlink:href="#E"/></mask><path fill="url(#F)" mask="url(#L)" d="M.365 5.962h315.453V.967H.365z"/></g><path d="M330.385 270.212s-27.02 22.11-16.15 41.716 17.837 3.67 17.837 3.67 8.1 3.126-2.48-20.836c-5-11.295.793-24.55.793-24.55" fill="#bbd070"/><path d="M288.79 233.596s-20.962 21.198 2.446 54.482 18.173 49.556 18.173 49.556 39.942-51.822-20.62-104.038" fill="#97a43c"/><path d="M316.718 328.087c11.805 3.324 3.928-31.74-13.25-43.712s-33.182-14.214-42.483-25.203c0 0-2.397 52.556 55.734 68.915" fill="#48753a"/><path fill="url(#G)" d="M243.2 389.773h257.192v-4.995H243.2z"/><path d="M246.032 239.83c-.933 4.564 1.197 8.854 4.756 9.582s7.2-2.384 8.134-6.95-1.196-8.854-4.756-9.582-7.2 2.383-8.134 6.95" fill="#cfa345"/><path d="M289.867 48.396s-2.6 1.273-1.958 4.733.928 3.928.208 5.28-1.568 7.12-.92 8.214 8.014-4.805 9.035-9.753-.647-7.15-1.237-7.97-2.83-1.67-5.127-.504" fill="#0e2d3d"/><path fill="#78c2ff" d="M252.348 22.695h32.8v28.78l-5.007-5.008h-27.792V22.695"/><path d="M255 25h28v3h-28zm0 7h28v3h-28zm0 8h28v3h-28z" fill="#d8d8d8" fill-rule="nonzero"/><path d="M288.75 122.037s-.263.622-.76 1.27c-.364.475-1.497 2.426-1.995 2.562s-2.04.408-2.177 1.27-.204 1.473 1.315 1.54 2.516.16 3.242-.906 1.882-1.837 1.882-1.837v2.78h.59l.43-3.097c.16-.204.567-2.426-.84-3.582s-1.69 0-1.69 0" fill="#163342"/><g class="B"><path d="M285.997 125.868s1.36.34 1.88 0 2.295-3.336 2.882-3.516c0 0-.57-1.154-2-.315l-2.754 3.83M272.72 74.584s-.944.18-1.266-.263c-.274-.377-.9-.666-1.094-.756-.257-.12-.913-.782-1.066-.458s1.026 1.144 1.24 1.365-1.157.32-1.394.535.054 2.477.988 2.3 1.813-.98 1.984-.98.684-.1.684-.1l-.075-1.644"/><path d="M269.348 74.914s-2.823.73-2.97.935-.1.357.167.3l2.747-.625-3.353 1.566c-.09.083-.015.38.13.363s3.393-1.247 3.393-1.247l-3.076 1.493c-.085.138.054.393.282.31l3.063-1.166s-2.107 1.108-2.1 1.3c-.002.11.053.37.588.068s1.872-.884 1.872-.884l-.734-2.4"/></g><path d="M296.354 123.84s-1.518 2.256-2.13 2.8c0 0-1.36.5-1.496 1.45s-.114 1.587 1.496 1.633 2.665-.244 2.96-1.22.94-1.638.94-1.638v2.04h.363l.114-2.335c.022-.363.26-1.757-.505-2.375s-1.74-.357-1.74-.357" fill="#163342"/><g fill="#1d3b54"><path d="M297.375 80.3s1.918 2.494 2.438 5.452-.307 12.89-.285 14.35 1.384 5.1 1.112 7.856-1.346 16.463-1.346 16.463l-2.94-.583v-15.132l-.58-5.847s-4.317-12.978-4.317-15.1 1.292-10.93 5.917-7.45"/><path d="M287.74 81.275l-3.525 13.693c-.374 1.666-.916 3.04-.916 3.748 0 1.642.61 4.278.61 4.278l4.002 19.138h3.812s-2.124-11.482-2.18-13.727-1.8-5.445-1.45-6.398 5.474-11.936 5.474-11.936 3.888-12.287-5.826-8.796"/></g><path d="M294.224 126.64s1.555.87 2.557-.247c.846-.943 1.314-2.196 1.314-2.196l-1.74-.357-2.13 2.8" class="B"/><path d="M289.04 60.837s-1.3.123-2.28 1.175-1.904 2.73-2.16 3.3-3.862 5.76-4.048 5.876-2 .722-3.2 1.126l-5.566 1.973.737 2.335 8.73-2.715c2.14-.527 7.06-6.842 7.06-6.842s3.67-4.3.725-6.218" class="I"/><path d="M291.31 59.926s-1.683.794-2.268.91-2.852 3.062-3.248 4.137 0 2.688.817 4.582.047 2.524.42 4.417.254 8.976.184 10.028 10.94 2.646 13.114.73c0 0-1.472-6.384-3.214-8.206-.377-.394-.337-3.02-.08-3.674s3.155-5.54 3.155-5.54.213-4.955-1.05-5.937c-1.1-.853-4.093-1.158-4.63-1.344s-2.102-.27-3.2-.105" class="E"/><path d="M290.505 57.984l.108 1.09.07.802.088 2.2s1.75 1.753 3.738-2.045c0 0-.837-1.566-.207-3.698s-3.797 1.65-3.797 1.65" class="B"/><path d="M285.6 70.253s-.42-2.8.027-4.502c0 0 0 1.464.802 3.543l-.83.96" fill="#183c59"/><path d="M295.853 60.3s-1.204 3.553-4.506 3.292-1.566-3-1.566-3 .823-.472 1.055-.517 3.65-.088 3.65-.088l1.366.313" class="B"/><path d="M289.78 60.592s-1.73 4.785-1.73 9.66-.14 12.822-.743 15.33l-2.323 10.267-1.347-.697 3.484-13.275c.244-.893-.185-10.326-.418-11.115s-1.22-4.306-1.067-5.28c.194-1.23 1.344-3.05 3.203-4.613l.94-.278m5.42-.44s-1.075 3.442-1.62 7.85 1.672 24.875 3.158 29.52l5.762-.93s-1.24-14.466-2.924-17.1-2.22-4.962-.402-10.456-.796-8.217-.796-8.217-2.673-.614-3.18-.67" class="I"/><path fill="#616161" d="M288.984 74.75l6.986 12.098 7.764-4.483-6.68-12.274-8.07 4.66"/><path fill="#e0cec7" d="M289.826 75.166l6.204 10.745 6.897-3.982-5.935-10.9-7.166 4.137"/><path fill="#616161" d="M292.115 74.2l-.435-.754 2.788-1.6.544.69-2.897 1.673"/><path d="M292.448 82.785s.318.001.456-.066l.424-.232.142-.063c.142-.05.47-.115.778-.33s1.402-1.48 1.402-1.48l-.515-.785-.38-.805s-2.297.148-2.608.315c-.03.016-.06.034-.085.052-.25.166-.366.395-.487.497-.044.038-.458.443-.443.615.02.24.13.398.274.477 0 0 .06.467.3.685 0 0 .04.433.405.622 0 0 .1.435.346.498" class="B"/><path d="M297.182 60.837s2.12-.607 3.336 1.73 1.2 3.334 1.372 4.476c.153 1.078.845 4.02.916 4.324s1.638 3.927.92 5.194c-.723 1.273-8.065 5.02-8.018 5.3s-1.27-2.833-1.27-2.833 2.97-1.656 3.457-2.166c.8-.828 2.458-1.72 2.115-2.747l-1.892-5.874c-.28-.596-2.722-6.644-.934-7.404" class="I"/><path d="M290.244 48.78s-3.776 1.187-1.726 7.703 7.207-.755 6.668-4.725-4.942-2.978-4.942-2.978" class="C"/><path d="M288.132 52.583s1.876 1.84 5.016 2.07c0 0 1.207 1.415 1.3 1.97 0 0 2.802-4.776-.642-7.64s-6.94 2.417-5.674 3.597" fill="#0e2d3d"/><g transform="translate(395.434 249)"><path d="M35.08 64.12a20.83 20.83 0 0 1-4.893-29.04 20.83 20.83 0 0 1 29.041-4.892c9.37 6.668 11.56 19.67 4.892 29.04s-19.67 11.56-29.04 4.892zm49.447-2.685a39.79 39.79 0 0 0 2.48-10.819l7.3-2.793-2.822-16.75-7.814-.25a39.76 39.76 0 0 0-5.887-9.408l3.185-7.133-13.84-9.847-5.695 5.345a39.75 39.75 0 0 0-10.819-2.479L47.822 0l-16.75 2.823-.247 7.813a39.72 39.72 0 0 0-9.408 5.887l-7.133-3.184-9.848 13.84 5.345 5.695a39.75 39.75 0 0 0-2.479 10.819L0 46.486l2.822 16.75 7.814.248c1.497 3.354 3.464 6.527 5.887 9.408l-3.184 7.133 13.84 9.847 5.696-5.345a39.74 39.74 0 0 0 10.817 2.479l2.794 7.302 16.75-2.822.248-7.814c3.355-1.496 6.528-3.463 9.41-5.887l7.132 3.184 9.85-13.84-5.346-5.695z" fill="url(#H)"/><g fill="#4471b0"><path d="M65.93 55v16.148c0 .664-.538 1.204-1.203 1.204h-9.525c-.664 0-1.203-.54-1.203-1.204v-5.084c4.1-1.42 7.78-4.467 10.424-8.305.57-.825 1.07-1.888 1.507-2.76m7.855 81.284l-.75.073L67 74.072l.75-.072 6.034 62.283"/><path d="M86.785 135.283l-.75.073L80 73.073l.75-.073 6.035 62.283M81.212 87.75l-12.14 1.178-.072-.75L81.14 87l.072.75"/><path d="M82.212 93.75l-12.14 1.178-.072-.75L82.14 93l.073.75m-.001 5l-12.14 1.18-.072-.75L82.138 98l.074.75m1 6l-12.14 1.177-.072-.75L83.138 104l.074.75m0 5l-12.14 1.178-.073-.75L83.14 109l.073.75m1 6l-12.14 1.178-.073-.75L84.14 115l.073.75m-.001 6l-12.14 1.18-.072-.75L84.14 121l.073.75m1 5l-12.14 1.178-.072-.75L85.14 126l.073.75m1 6l-12.14 1.178-.073-.75L86.14 132l.073.75m-6-58l-12.14 1.178-.073-.75L80.14 74l.073.75m-.001 6l-12.14 1.178-.073-.75L80.14 80l.073.75"/></g><path d="M76.983 119.282s-1.643.435-1.68.276L75 118.352c.193-.173 1.982-.352 1.982-.352l.001 1.282" fill="#5c544d"/><path d="M74.722 120.292c.482-.335.942-1.034.942-1.034 1.26-.01 1.712-.258 1.712-.258s.795 2.14.604 2.5-1.236.296-3.355.583c-2.984.4-2.7-.48-2.515-.7.272-.323 2.13-.756 2.612-1.1m-2.816-18.413l1.5-6.027c.883-1.414 8.932-.603 8.932-.603-.652 4.456-3.08 4.513-4.138 6.915l-2.58 5.23c-.905 1.96 2.563 10.783 2.563 10.783l-3.287.527c-.376-1.53-3.984-10.007-3.905-10.882s.63-4.56.905-5.943" class="J"/><g class="B"><path d="M78.89 74.2c.572.3 1.34.847 1.365 1.85s-.485 2.508-1.048 3.548-2.216 1.254-3.316.845-1.198-3.737-.19-5.398 3.2-.846 3.2-.846"/><path d="M76.063 80.01s3.813-2.98 3.368-1.685-.68 2.83-.68 2.83-2.89-.008-2.746-.29.058-.855.058-.855"/></g><path d="M78.25 74.185s2.006.552 1.932 1.694-.364 2.44-.813 3.01c0 0-.2.33-1.015.202s-1.807-1.212-2.148-1.33-.343-.32-.343-.32l-.213.31-.36.023s.33-.97-.168-1.365.516-3.137 3.13-2.224" class="G"/><path d="M76.87 76.263c.186.586-.282 1.374-.543 1.307s-.292-.668-.176-1.154c.046-.19.532-.738.72-.153" class="B"/><path d="M82.926 82c.097.01 2.212 3.908 1.993 6.535-.024.286-.352.596-.574.75a.93.93 0 0 1-.498.163l-.13.005-2.27.077s-1.686-5.45 1.477-7.53" class="K"/><path d="M75.557 119.258c1.26-.01 1.712-.258 1.712-.258s.795 2.14.604 2.5-1.236.296-3.355.583c-.58.077-1.036.107-1.394.102L73 120.92c.62-.215 1.34-.438 1.615-.63.482-.334.942-1.033.942-1.033" class="J"/><path d="M79.008 81.165l.152.14s.305.585-.843.635-2.953.134-2.092-.7c0 0 1.78-.414 2.783-.075" fill="#ffd255"/><path d="M84.982 123.282s-1.643.435-1.68.277L83 122.353c.192-.173 1.98-.353 1.98-.353l.002 1.282" fill="#5c544d"/><path d="M82.427 99.946l.7 7.186 1.06 8.403c.04 1.425 1.24 7.66 1.24 7.66l-3.07.352s-1.995-11.014-2.466-12.14-2.808-9.153-2.887-10.053S81.65 95 81.65 95a34.7 34.7 0 0 0 .777 4.946m.295 25.344c.482-.334.942-1.033.942-1.033 1.258-.01 1.712-.258 1.712-.258s.795 2.14.605 2.5-1.237.297-3.357.583c-2.983.4-2.7-.48-2.514-.7.27-.322 2.13-.756 2.612-1.1" class="J"/><path d="M72.74 82.46c.218-.128.368-.184.368-.184l.596-.25c1.288-.53 2.923-1.027 2.923-1.027h2.628s2 .4 3.192.887c.152.063.296.143.43.237l-.36 7.506-.386 3.17c-.023.355.383 2.266.596 4.02l.744 4.197s-.43 1.74-10.678.275c-.26-.037.65-7.833.58-8.322-.047-.327-.04-2.86-.02-4.44l-.285-1.598c-.158-.115-.37-.25-.625-.395L71 85.77l.126-.848c.138-1.405 1.08-2.148 1.615-2.46" class="K"/><path fill="#877373" d="M64.62 69.2l-.803.01-.002-.207 1.01-.013.03 2.53-4.646.762.01.74-.207.003-.01-.918 4.645-.76-.024-2.144"/><path fill="#e3dddd" d="M63.57 70.376l-7.544.09L56 68.09l7.543-.09.028 2.376"/><path fill="#877373" d="M60 79.96h1.034V73H60z"/><path d="M59.326 75.967c.02-.246.27-.51.27-.51-.024-.126.017-.27.152-.4.097-.093.544-.043.59-.035.12.023.316-.02.538.048l.074.027c.252.105 1.428 1.628 1.428 1.628l-.212.608-.295.753-1.55-.37c-.282-.08-.482-.246-.582-.308l-.108-.053-.348-.142c-.108-.05-.263-.243-.263-.243-.088-.185.13-.452.13-.452-.065-.313.175-.55.175-.55" class="B"/><path d="M62.465 77l5.15 4.495c.794.423 4.717.852 5.797.962l.276.028c1.13 1.54-.366 5.222-.996 4.816-.293-.19-.673-.443-1.985-1.1-2.444-1.222-5.463-3.44-6.037-3.76-.882-.493-3.67-3.898-3.67-3.898.143-.513 1.465-1.542 1.465-1.542" class="K"/><mask fill="#fff"><use xlink:href="#I"/></mask></g><path d="M293.1 54.784c.025-.475.317-1.554 1.022-1.252s-.043 2.5-.51 2.365c0 0-.568.01-.51-1.113" class="C"/><path d="M290.613 59.073l.07.802s1.667-.1 2.78-2.58c-.073.108-1.294 1.902-2.85 1.777" class="F"/><path d="M243.565 1.692l-.095-.9 8.17-.55.026.905-8.102.545zm24.293.303l-8.076-.756.047-.904 8.152.763-.123.897zm-40.25 2.638l-.232-.875 7.987-1.793.164.89-7.92 1.777zm56.024 1.02l-7.798-2.2.204-.883 7.883 2.226-.29.858zm-71.288 4.43l-.38-.823 7.6-3.08.303.853-7.514 3.05zm85.958 2.357a70.29 70.29 0 0 0-7.144-3.802l.38-.823c2.505 1.155 4.94 2.45 7.236 3.853l-.47.772zm-99.868 5.893l-.55-.72c2.097-1.603 4.4-3.14 6.813-4.566l.46.78c-2.392 1.41-4.654 2.925-6.723 4.505zm112.5 4.164c-1.866-1.92-3.883-3.747-5.998-5.428l.564-.71c2.145 1.705 4.19 3.558 6.084 5.506l-.65.63zM187.88 29.105l-.743-.518c1.318-1.895 2.863-3.757 4.59-5.537l.65.63a43.64 43.64 0 0 0-4.497 5.424zm132.707 6.323c-1.334-2.358-2.818-4.638-4.412-6.775l.725-.542a65.26 65.26 0 0 1 4.475 6.871l-.788.446zm8.1 14.153l-4.25-6.974.8-.444 4.215 6.92-.755.5zm10.166 12.782c-1.845-1.907-3.656-3.98-5.38-6.158l.71-.562 5.32 6.1-.65.63zm12.604 10.405a71.84 71.84 0 0 1-6.6-4.845l.578-.698a70.64 70.64 0 0 0 6.515 4.783l-.493.76zm14.55 7.453l-7.45-3.375.4-.808 7.383 3.344-.342.84zm15.365 5.5l-2.682-.913-5.03-1.724.3-.855 5.023 1.722 2.684.913-.293.857zm15.072 5.992l-7.424-3.234.328-.845 7.498 3.267-.402.812zm13.377 8.968c-2-1.81-4.08-3.428-6.364-4.948l.502-.754a55.4 55.4 0 0 1 6.47 5.03l-.608.672zm10.155 12.477c-1.316-2.29-2.86-4.523-4.587-6.634l.7-.574c1.76 2.15 3.332 4.423 4.673 6.758l-.786.45zm5.452 15.108a46.65 46.65 0 0 0-2.063-7.794l.852-.307c.922 2.555 1.63 5.228 2.102 7.945l-.89.156zm1.122 16.223l-.898-.122c.34-2.504.5-5.014.5-7.462l-.003-.602.905-.01.004.612c0 2.488-.174 5.04-.518 7.584zm-4.427 15.798l-.813-.4c.014-.03 1.43-2.935 2.717-7.596l.873.24c-1.31 4.752-2.718 7.635-2.777 7.756z" fill="#7fcf6f"/><path d="M386.76 237.82s11.726-34.39-10.652-45.05-41.377 4.75-44.965 13.09-2.64 23.503.42 34.076 2.616 26.67-4.034 32.054-14.896 14.324-14.487 32.523c.254 11.292 44.43-28.88 44.43-28.88l29.287-37.81" class="L"/><path d="M355.316 278.73s-18.392 4.076-25.693 8.343-23.513 23.89-23.513 32.33 70.9 16.323 70.9 16.323l13.44 49.06s35.836-8.745 40.102-15.998-13.612-59.233-16.67-69.753c-3.12-10.73-15.965-18.214-30.898-20.305s-27.666 0-27.666 0" class="H"/><path d="M381.707 278.56s-.413 22.355-18.143 23.018-14.038-21.44-14.038-21.44 12.968-5.254 32.18-1.577" class="B"/><path d="M389.208 211.1s6.27 35.954-11.59 61.927c-18.496 26.898 11.59-61.927 11.59-61.927" class="L"/><path d="M377.902 262.753s-1.232 10.694.827 17.343-27.1 6.835-27.093 1.366c.02-6.21 2.984-11.4.2-22.047s26.076 3.338 26.076 3.338" class="B"/><path d="M355.278 264.117s9.208 9.594 20.985 1c0 0-.973 6.133-9.443 6.924s-11.542-7.925-11.542-7.925" class="F"/><path d="M366.8 198.634s23.274 6.888 19.95 39.186-18.524 30.636-19.95 30.873-19.474 1.425-25.173-37.76 25.173-32.3 25.173-32.3" class="B"/><path d="M360.803 213.037s12.646 20.116 25.956 24.783c0 0 7.267-33.755-22.75-40.828s-25.316 34.094-23.075 45.072c0 0 6.252-16.15 19.87-29.027" class="L"/><path d="M343.84 210.006s6.657-12.892 17.898-13.467 17.926 9.175 17.926 9.175-4.39-10.98-17.912-10.98-17.912 15.272-17.912 15.272" fill="#88c0ff"/><g class="E"><path d="M387.675 384.778h19.385v-7.375h-19.385z"/><path d="M389.603 311.4l7.892 73.378H293.613L285.72 311.4h103.882"/></g><path d="M348.053 346.903c.933 4.564-1.197 8.855-4.756 9.582s-7.2-2.383-8.134-6.947 1.196-8.856 4.756-9.583 7.2 2.383 8.134 6.948" fill="#cfa345"/></g></svg>