<svg xmlns="http://www.w3.org/2000/svg" xmlns:xlink="http://www.w3.org/1999/xlink" width="1412" height="1103"><style><![CDATA[.B{fill:#fff}.C{fill:#3ababa}.D{fill:#b5d6ca}.E{fill:#d1e7f5}.F{fill:#145566}.G{fill:#ffd559}.H{fill:#739eae}]]></style><defs><path id="A" d="M.12.088h278V369.94H.12z"/><path id="B" d="M432.126 290.734a5.94 5.94 0 0 0-5.929 5.929 5.94 5.94 0 0 0 5.929 5.93 5.94 5.94 0 0 0 5.93-5.93 5.94 5.94 0 0 0-5.93-5.929zm0 13.045c-3.923 0-7.115-3.192-7.115-7.116s3.192-7.115 7.115-7.115 7.116 3.192 7.116 7.115-3.192 7.116-7.116 7.116z"/><path id="C" d="M1179.7 891.28h.62v-.7h-.62v.7zm-41.7 0h.62v-.7h-.62v.7zm-41.7 0h.62v-.7h-.62v.7z"/></defs><g fill="none" fill-rule="evenodd"><path d="M1207.05 533c0 294.12-238.43 532.55-532.55 532.55S141.947 827.12 141.947 533 380.38.447 674.5.447 1207.05 238.88 1207.05 533" class="E"/><path d="M910.4 996.05H411.12V277.67h554.12V949.26c0 25.84-24.56 46.79-54.85 46.79" class="B"/><path d="M410.99 311.023h553.2V277.67h-553.2z" class="F"/><path d="M825.5 672.75c7.46 0 7.46-8.435 0-8.435H547.837c-7.462 0-7.462 8.435 0 8.435H825.5" class="E"/><path d="M675.533 334.155c-44.493 0-84.314 19.704-111.31 50.838l111.31 96.45 111.31-96.45c-26.996-31.134-66.817-50.838-111.31-50.838" fill="#c8d6a1"/><path d="M831.92 459.858l-145.777 20.96v147.288c81.4 0 147.287-65.876 147.287-147.288 0-7.12-.53-14.11-1.5-20.96" class="F"/><path d="M564.38 385.48c-52.47 62.245-44.562 155.073 17.685 207.543 5.444 4.6 11.133 8.688 16.998 12.357l77.932-124.972L564.38 385.48" class="E"/><path d="M676.794 627.895c-27.6.007-55.293-7.698-79.623-23.4l79.638-123.892-.015 147.282" class="C"/><path d="M839.4 451.745c-4.07-28.663-16.4-54.637-34.47-75.49l-111.31 96.45 145.778-20.96" class="D"/><path d="M476.266 963.77h54.108V833.447h-54.108z" class="C"/><path d="M476.266 844.226h54.108v-61.244h-54.108z" class="D"/><path d="M832.47 969.65h54.1V839.327h-54.1z" class="C"/><path d="M832.47 850.106h54.46V729.333h-54.46z" class="D"/><path d="M713.737 966.7h54.108V829.037h-54.108z" class="C"/><path d="M713.737 908.165h54.108V816.79h-54.108z" class="D"/><path d="M595.002 965.98h54.107V781.084h-54.107z" class="C"/><path d="M595.002 857.375h54.107V709.5h-54.107z" class="D"/><g class="B"><use xlink:href="#B"/><use xlink:href="#B" x="21.939"/><path d="M476.005 290.734a5.94 5.94 0 0 0-5.93 5.929 5.94 5.94 0 0 0 5.93 5.93 5.94 5.94 0 0 0 5.929-5.93 5.94 5.94 0 0 0-5.929-5.929zm0 13.045c-3.924 0-7.116-3.192-7.116-7.116s3.192-7.115 7.116-7.115 7.115 3.192 7.115 7.115-3.192 7.116-7.115 7.116z"/></g><path d="M426.04 1016.97H72.83V471.468h72.633c-2.32 20.184-3.516 40.726-3.516 61.532 0 198.312 108.398 371.31 269.173 462.97v.08h.138a532 532 0 0 0 31.284 16.47c-4.847 2.83-10.486 4.45-16.503 4.45" fill="#abccc3"/><path d="M442.542 1012.52a532 532 0 0 1-31.284-16.47h45.362c-2.703 6.95-7.707 12.75-14.078 16.47m-31.422-16.55C250.345 904.31 141.947 731.312 141.947 533c0-20.806 1.195-41.348 3.516-61.532H411.12V995.97" fill="#c5dceb"/><path d="M456.62 996.05h-45.5V471.468h47.718V984.17c0 4.2-.786 8.2-2.218 11.88" fill="#f0f2f4"/><path d="M397.1 1001.7H28.972V430.198H444.9V953.92c0 26.4-21.397 47.8-47.79 47.8" fill="#c8d6a1"/><path d="M73.117 688.748H409.82V475.832H73.117z" class="B"/><path d="M286.4 549.675c1.396 2.816 3.814 5.225 8.4 6.933 8.526 3.183 19.988.885 24.903-6.253 8.216-11.934 5.906-29.012 14.747-41.41 3.587-5.032 9.06-9.113 15.51-10.952s13.85-1.3 19.59 1.86c9.35 5.15 12.584 15.79 12.675 25.448.175 18.548-2.418 37.72-5.76 56.024-1.617 8.856-4.106 17.955-10.525 24.953-8.706 9.5-23.04 13.443-36.75 15.555-34.686 5.346-70.262 2.078-105.282-1.204l-84.507-7.92c-7.94-.744-31.32.457-36.075-5.045-4.642-5.372-.994-23.58 1.72-29.198 6.045-12.515 22.582-19.577 38.102-18.783 35.01 1.792 21.17-34.768 32.375-52.128 5.953-9.222 19.062-15.85 30.353-12.007 10.768 3.666 15.265 14.474 20.572 23.444 2.755 4.657 6.67 9.484 12.558 10.492 10.012 1.712 18.365-8.465 28.558-8.075 6.036.232 11.17 4.305 13.777 9.067 3.545 6.477 2.308 13.634 5.068 19.2" class="E"/><path d="M387.815 677.195c-.015-.001.055-15.325.058-16.167l.107-68.607c.027-21.85 1.828-43.694 1.474-65.5-.158-10.083-4.514-15.353-15.133-12.648-10.454 2.662-20.018 8.867-26.598 17.43-4.457 5.8-8.162 13.06-15.093 15.396-12.388 4.175-22.524-9.778-33.648-16.643-11.98-7.39-28.653-6.147-39.4 2.94-12.99 10.984-15.968 29.974-26.96 42.956-12.1 14.288-34.076 19.125-51.055 11.237-6.975-3.24-12.97-8.3-19.845-11.737-27.268-13.67-65.18 6-69.704 36.163v62.42l295.798 2.75" class="D"/><path fill="#eac5b0" d="M78.62 746.516h25.308v-25.308H78.62z"/><path d="M78.62 783.928h25.308V758.62H78.62z" class="G"/><path d="M124.833 736.613h73.723v-7.702h-73.723zm-1.1 40.713h73.723v-7.703h-73.723zM81.92 835.403h321.3v-8.322H81.92zm0 129.877h143.044V851.255H81.92zm165.05-63.272h156.25v-49.653H246.97zm-1.65 62.722h156.25v-49.655H245.32z" class="B"/><path d="M264.78 194.015H1.904c-1.013 0-1.834.894-1.834 1.998v139.26c0 34.333 25.543 62.165 57.054 62.165H166.12l44.566 62.526c1.192 1.672 3.826.85 3.856-1.202l.915-61.324h49.324c1.013 0 1.834-.895 1.834-1.998V196.013c0-1.104-.82-1.998-1.834-1.998" fill="#7fcf6f"/><path d="M34.494 234.117H198.24v-6.822H34.494zm0 52.023h195.3v-6.823h-195.3zm0 52.024h195.3v-6.823h-195.3z" class="B"/><path d="M435.812 259.307H240.835v-138.21h182.578l39.102 41.3v68.373c0 15.762-11.955 28.54-26.703 28.54" class="C"/><path d="M462.36 162.724l-39.256.987v-42.615l39.256 41.628" class="G"/><path d="M294.305 162.9h124.387v-5.924H294.305zM274.6 191.518h144.092v-5.923H274.6zm0 28.63h144.092v-5.924H274.6z" class="B"/><path d="M828.54 535.95a1.49 1.49 0 0 1-1.48-1.296l-.55-6.12a1.51 1.51 0 0 1 1.44-1.559 1.5 1.5 0 0 1 1.56 1.44l.52 5.83c.1.82-.46 1.578-1.28 1.7l-.2.014m372.95-154.752a1.49 1.49 0 0 1-.81-.239c-.7-.448-.9-1.376-.45-2.073 2.07-3.216 4.07-6.653 5.96-10.215.4-.732 1.3-1 2.03-.622a1.5 1.5 0 0 1 .62 2.029c-1.93 3.636-3.98 7.145-6.1 10.43-.3.445-.77.7-1.26.7m-14.88 18.662a1.49 1.49 0 0 1-1.06-2.561c2.7-2.687 5.32-5.65 7.82-8.8.52-.65 1.46-.76 2.1-.244s.76 1.458.24 2.107a105.36 105.36 0 0 1-8.05 9.06 1.51 1.51 0 0 1-1.06.438m-19.04 14.33a1.5 1.5 0 0 1-.72-2.821 76.52 76.52 0 0 0 9.85-6.344 1.5 1.5 0 0 1 2.1.289 1.5 1.5 0 0 1-.29 2.102c-3.28 2.487-6.73 4.706-10.24 6.595a1.49 1.49 0 0 1-.7.18m-165.58 3.33c-.8 0-1.46-.632-1.5-1.44-.03-.828.6-1.526 1.44-1.56 3.92-.16 7.95-.265 12-.312.8.012 1.5.654 1.5 1.482s-.65 1.508-1.48 1.518l-11.97.3m35.87.033h-.06l-11.92-.322c-.83-.012-1.5-.694-1.48-1.522s.7-1.516 1.52-1.478l12 .324c.83.032 1.48.73 1.44 1.557-.03.808-.7 1.442-1.5 1.442m23.87 1.435l-.12-.004-11.9-.838a1.5 1.5 0 0 1-1.41-1.588c.05-.827.76-1.45 1.6-1.407l11.96.842a1.5 1.5 0 0 1-.12 2.995m-83.58.282a1.52 1.52 0 0 1-1.5-1.338c-.1-.824.5-1.564 1.33-1.653a343.2 343.2 0 0 1 11.96-1.079 1.5 1.5 0 0 1 1.6 1.386 1.5 1.5 0 0 1-1.39 1.606 341.54 341.54 0 0 0-11.85 1.069l-.16.01m107.38 2.02h-.16l-3.56-.388-8.32-.855c-.82-.08-1.42-.813-1.34-1.638s.8-1.43 1.63-1.347l8.35.857 3.56.4c.83.1 1.42.83 1.33 1.654-.08.768-.73 1.337-1.5 1.337m59.55.758c-.7 0-1.33-.498-1.47-1.215-.16-.813.38-1.6 1.2-1.757 3.95-.764 7.76-1.778 11.34-3.014a1.49 1.49 0 0 1 1.9.928c.26.783-.15 1.637-.93 1.907-3.7 1.283-7.66 2.333-11.75 3.124a1.58 1.58 0 0 1-.29.027m-190.58.7a1.49 1.49 0 0 1-1.47-1.221c-.16-.814.38-1.6 1.2-1.753a289.64 289.64 0 0 1 11.85-1.988 1.5 1.5 0 0 1 1.7 1.266c.12.82-.44 1.582-1.26 1.702-3.96.58-7.9 1.243-11.73 1.968a1.65 1.65 0 0 1-.28.026m154.84.794l-.1-.003c-3.57-.233-7.48-.56-11.96-1.004a1.5 1.5 0 0 1-1.35-1.64 1.5 1.5 0 0 1 1.64-1.345l11.87.995a1.51 1.51 0 0 1 1.4 1.594c-.06.794-.72 1.403-1.5 1.403m13.15.46l-1.2-.005a1.51 1.51 0 0 1-1.5-1.5 1.48 1.48 0 0 1 1.5-1.5l1.2.004c3.7 0 7.3-.13 10.63-.4.82-.06 1.55.553 1.6 1.38.07.826-.55 1.548-1.38 1.612-3.42.265-7.07.4-10.86.4m-191.25 4.25a1.5 1.5 0 0 1-.41-2.942c3.8-1.1 7.7-2.113 11.63-3.04a1.48 1.48 0 0 1 1.8 1.115 1.5 1.5 0 0 1-1.12 1.805c-3.88.916-7.75 1.927-11.5 3.003a1.4 1.4 0 0 1-.41.059m-22.6 7.785a1.52 1.52 0 0 1-1.4-.936c-.3-.768.06-1.643.83-1.955a222.06 222.06 0 0 1 11.27-4.22c.78-.27 1.64.148 1.9.93a1.5 1.5 0 0 1-.93 1.906c-3.77 1.294-7.5 2.695-11.12 4.163a1.54 1.54 0 0 1-.57.111m-21.6 10.25c-.53 0-1.04-.28-1.32-.777a1.5 1.5 0 0 1 .6-2.037c3.48-1.916 7.1-3.76 10.72-5.483a1.5 1.5 0 1 1 1.3 2.711 198.57 198.57 0 0 0-10.57 5.4 1.5 1.5 0 0 1-.72.185M867 459.4a1.48 1.48 0 0 1-1.18-.574c-.5-.65-.4-1.594.25-2.106 3.14-2.47 6.45-4.84 9.82-7.05.7-.454 1.62-.26 2.08.433a1.5 1.5 0 0 1-.44 2.076 139.82 139.82 0 0 0-9.61 6.9c-.27.216-.6.32-.92.32m-17.37 16.4a1.47 1.47 0 0 1-.98-.369 1.5 1.5 0 0 1-.15-2.116 125.2 125.2 0 0 1 8.4-8.713 1.5 1.5 0 1 1 2.06 2.184c-2.9 2.74-5.67 5.6-8.2 8.5a1.48 1.48 0 0 1-1.13.514m-13.52 19.656a1.52 1.52 0 0 1-.69-.167c-.73-.38-1.02-1.285-.64-2.02 1.8-3.496 3.9-6.995 6.27-10.4a1.49 1.49 0 0 1 2.08-.379c.68.472.85 1.406.38 2.087-2.28 3.298-4.32 6.685-6.07 10.066a1.49 1.49 0 0 1-1.33.813m-7.5 22.585l-.23-.017a1.51 1.51 0 0 1-1.26-1.708 69.72 69.72 0 0 1 2.9-11.85c.27-.785 1.12-1.207 1.9-.943.8.264 1.2 1.115.95 1.9-1.27 3.76-2.2 7.577-2.77 11.344-.1.743-.75 1.275-1.48 1.275m384.15-157.99c-.2 0-.4-.04-.6-.128-.76-.334-1.1-1.22-.77-1.978l2.3-5.483a1.5 1.5 0 0 1 1.95-.83 1.5 1.5 0 0 1 .83 1.952l-2.35 5.573c-.24.56-.8.894-1.37.894" class="F"/><path d="M1286.9 240.478l-6.27 142.267-46.97-49.316 53.8-95.337-2.05-1.71c1.58-.452-57.16 93.37-57.16 93.37l-65.93-17.083 121.28-74.63 3.3 2.438" class="C"/><path d="M1203.82 901.61h-144.95l10.3-11.03h27.16v.7h.62v-.7H1138v.7h.62v-.7h41.08v.7h.62v-.7h23.5v11.03" fill="#abccc3"/><path d="M1058.87 901.61h-93.63v-11.03h6v.7h.62v-.7h41.07v.7h.62v-.7h41.07v.7h.62v-.7h13.9l-10.3 11.03" fill="#c5dceb"/><path fill="#f0f2f4" d="M965.24 901.61H926.6V701.196h9.48v189.382h29.17v11.03"/><path fill="#7fcf6f" d="M936.07 890.578h279.1v-201h-279.1z"/><path d="M936.07 705.57h278.72v-16H936.07z" class="D"/><use xlink:href="#C" fill="#a7c7be"/><use xlink:href="#C" x="-125.07" fill="#c0d6e5"/><path d="M1180.33 890.578h-.62v-34.645h-41.08v34.645h-.62v-34.645h-41.07v34.645h-.62v-34.645h-41.07v34.645h-.62v-34.645h-41.07v34.645h-.62v-34.645h-41.07v34.645h-.62v-34.645h-34.2v-.62h34.2v-37.986h-34.2v-.62h34.2V778.72h-34.2v-.62h34.2v-37.986h-34.2v-.62h34.2v-33.62h.62v33.62h41.07v-33.62h.62v33.62h41.07v-33.62h.62v33.62h41.07v-33.62h.62v33.62H1138v-33.62h.62v33.62h41.08v-33.62h.62v33.62h34.26v.62h-34.26V778.1h34.26v.62h-34.26v37.986h34.26v.62h-34.26v37.986h34.26v.62h-34.26v34.645zm-41.7-35.265h41.08v-37.986h-41.08v37.986zm-41.7 0H1138v-37.986h-41.07v37.986zm-41.7 0h41.07v-37.986h-41.07v37.986zm-41.7 0h41.07v-37.986h-41.07v37.986zm-41.7 0h41.07v-37.986h-41.07v37.986zm166.76-38.606h41.08V778.72h-41.08v37.986zm-41.7 0H1138V778.72h-41.07v37.986zm-41.7 0h41.07V778.72h-41.07v37.986zm-41.7 0h41.07V778.72h-41.07v37.986zm-41.7 0h41.07V778.72h-41.07v37.986zm166.76-38.606h41.08v-37.986h-41.08V778.1zm-41.7 0H1138v-37.986h-41.07V778.1zm-41.7 0h41.07v-37.986h-41.07V778.1zm-41.7 0h41.07v-37.986h-41.07V778.1zm-41.7 0h41.07v-37.986h-41.07V778.1z" fill="#f8f8f8"/><path d="M1185.14 731.338c-4.7 0-8.52 3.813-8.52 8.516 0 2.373.98 4.518 2.54 6.062l-31.88 27.45c-1.46-1.175-3.3-1.882-5.33-1.882-4.7 0-8.52 3.813-8.52 8.516 0 2.994 1.55 5.62 3.9 7.14l-9.26 22.285c-.62-.144-1.26-.227-1.92-.227-3.15 0-5.9 1.707-7.36 4.24l-49.83-31.493c.4-.98.6-2.043.6-3.162 0-4.703-3.8-8.516-8.5-8.516s-8.52 3.813-8.52 8.516c0 .596.07 1.178.18 1.74l-44.07 17.99c-1.3-3.017-4.3-5.13-7.8-5.13-4.7 0-8.52 3.813-8.52 8.516 0 2.442 1.04 4.637 2.68 6.19l-34.4 39.062a8.48 8.48 0 0 0-4.76-1.456c-4.7 0-8.52 3.813-8.52 8.516s3.8 8.515 8.52 8.515c4.7 0 8.5-3.812 8.5-8.515a8.47 8.47 0 0 0-1.54-4.882l34.83-39.544c1 .403 2.07.63 3.2.63 4.7 0 8.5-3.813 8.5-8.516 0-.114-.01-.226-.01-.34l44.55-18.186c1.52 2.36 4.16 3.928 7.17 3.928a8.47 8.47 0 0 0 6.24-2.737l50.43 31.878c-.06.416-.1.84-.1 1.273 0 4.703 3.8 8.516 8.52 8.516 4.7 0 8.5-3.813 8.5-8.516 0-2.944-1.5-5.538-3.76-7.067l9.27-22.323c.58.124 1.18.192 1.8.192 4.7 0 8.52-3.813 8.52-8.516a8.43 8.43 0 0 0-1.17-4.287l32.53-28.01c1.02.43 2.14.667 3.3.667 4.7 0 8.52-3.813 8.52-8.516s-3.82-8.516-8.52-8.516" class="G"/><path d="M1238.76 600.903l-33.4 53.498-189.52-119.393 33.4-53.498 189.52 119.393" class="B"/><path d="M1304.05 678.406l-.4.617c-10.53 16.875-29.34 24.15-42 16.25L1116.2 605.98l38.23-64.294 145.8 91.857c12.65 7.902 14.37 27.988 3.84 44.864" class="F"/><path fill="#c6dbe9" d="M1038.28 549.665l-5.34-3.885 5.93 3.732-.6.153"/><path d="M1038.87 549.512l-5.93-3.732-2.46-1.79c7.52-8.287 14.4-17.358 20.54-27.182 5.1-8.16 9.5-16.562 13.2-25.126l57.1 36.43-82.45 21.402" fill="#f1f2f2"/><path d="M1028.52 502.758c-47.77 76.508-148.5 99.81-225.017 52.045s-99.81-148.505-52.045-225.012 148.502-99.81 225.012-52.046 99.8 148.506 52.05 225.013m-38-247.515c-88.94-55.522-206.042-28.435-261.564 60.5s-28.436 206.04 60.5 261.564 206.045 28.435 261.565-60.5 28.43-206.042-60.5-261.564" class="C"/><path d="M965.24 561.238V420.95l1.28-.2c.82-.12 1.38-.882 1.26-1.702a1.5 1.5 0 0 0-1.48-1.282 1.48 1.48 0 0 0-.22.016l-.84.124v-95.65c8.3 7.59 15.55 16.457 21.42 26.457 2.36 4.038 6.03 5.715 9.68 5.715 7.82 0 15.6-7.675 10.5-16.327a139.61 139.61 0 0 0-41.61-44.662V277.67h-30.46c-15.32-5.684-31.66-8.69-48.3-8.69-9.55 0-19.2.99-28.8 3.037a131.82 131.82 0 0 0-19.24 5.654h-34.875c26.015-16.195 56.105-24.723 86.565-24.727h.03c29.1.004 58.58 7.786 85.18 24.096l.42.26a1.49 1.49 0 0 0 .13.077l.36.227a5.53 5.53 0 0 1 .23.142c49.28 30.768 76.5 83.525 76.84 137.62l-3.4-.217-.08-.002a1.51 1.51 0 0 0-1.51 1.409 1.5 1.5 0 0 0 1.41 1.588l3.6.228c-.35 28.9-8.37 58.078-24.8 84.387-.03.047-.07.1-.1.147-.05.093-.1.185-.17.28l-.15.237c-.01.023-.03.046-.04.07-16.04 25.388-37.93 44.856-62.82 57.748m24.83-146.045c-.04 0-.08.001-.1.004a343.2 343.2 0 0 0-11.96 1.079c-.83.09-1.42.83-1.33 1.653.08.77.73 1.338 1.5 1.338l.16-.01a341.54 341.54 0 0 1 11.85-1.069 1.5 1.5 0 0 0 1.39-1.606c-.06-.79-.7-1.4-1.5-1.4m35.8-.967c-.8 0-1.45.673-1.46 1.48-.01.828.65 1.5 1.48 1.522l11.98.323c.8 0 1.46-.634 1.5-1.442.04-.828-.6-1.525-1.44-1.557l-12-.324c-.02-.001-.04-.001-.06-.001m-11.93-.02l-12 .312c-.83.034-1.47.732-1.44 1.56.04.807.7 1.44 1.5 1.44l.06-.001a407.59 407.59 0 0 1 11.91-.31c.83-.01 1.5-.69 1.48-1.518s-.7-1.47-1.5-1.482m-1.14-45.453c-5 0-9.9 2.507-12.76 7.07-4.4 7.04-2.25 16.308 4.8 20.703 2.48 1.545 5.23 2.282 7.95 2.282 5 0 9.9-2.506 12.76-7.07 4.4-7.04 2.25-16.308-4.8-20.703-2.48-1.545-5.23-2.282-7.95-2.282" class="E"/><path d="M889.83 579.605c-26.85-.004-54-6.62-78.912-20.435a146.49 146.49 0 0 0 17.772-41.121 1.5 1.5 0 0 0 1.48-1.275c.57-3.767 1.5-7.583 2.77-11.344.26-.785-.16-1.636-.95-1.9-.1-.032-.2-.054-.3-.067a148.28 148.28 0 0 0 1.73-22.645c0-7.12-.53-14.11-1.5-20.96l-94.895 13.644a164.36 164.36 0 0 1-2.337-6.7L839.4 451.745c-4.07-28.663-16.4-54.637-34.47-75.49L772.334 404.5a117.82 117.82 0 0 1 .44-7.327l14.068-12.2c-3.096-3.57-6.358-6.988-9.78-10.246 7.642-25.95 24.067-48.624 46.447-63.724h127.3c5.07 3.35 9.9 7.106 14.42 11.242v95.65c-3.72.557-7.42 1.183-11 1.864-.8.154-1.35.94-1.2 1.753a1.49 1.49 0 0 0 1.47 1.221 1.65 1.65 0 0 0 .28-.026 284.78 284.78 0 0 1 10.45-1.778v140.288a164.14 164.14 0 0 1-75.39 18.367M828 526.974c-.02 0-.04.001-.06.001a1.51 1.51 0 0 0-1.44 1.559c.1 2.036.27 4.096.55 6.12a1.49 1.49 0 0 0 1.48 1.296l.2-.014c.82-.113 1.4-.87 1.28-1.69-.27-1.93-.44-3.89-.52-5.83-.03-.81-.7-1.44-1.5-1.44m14.35-44.743c-.48 0-.94.226-1.23.646-2.36 3.404-4.47 6.903-6.27 10.4-.38.736-.1 1.64.64 2.02a1.52 1.52 0 0 0 .69.167 1.49 1.49 0 0 0 1.33-.813c1.75-3.38 3.8-6.768 6.07-10.066.47-.68.3-1.615-.38-2.087-.26-.18-.55-.267-.85-.267m15.65-18.03a1.5 1.5 0 0 0-1.03.408 125.2 125.2 0 0 0-8.4 8.713 1.5 1.5 0 0 0 .15 2.116 1.47 1.47 0 0 0 .98.369c.42 0 .84-.174 1.13-.514 2.53-2.9 5.3-5.76 8.2-8.5a1.5 1.5 0 0 0 .06-2.12 1.48 1.48 0 0 0-1.09-.472m18.78-14.768c-.28 0-.57.08-.82.245-3.37 2.21-6.68 4.58-9.82 7.05-.65.512-.76 1.455-.25 2.106a1.48 1.48 0 0 0 1.18.574c.32 0 .65-.105.92-.32a139.82 139.82 0 0 1 9.61-6.9 1.5 1.5 0 0 0 .44-2.076c-.3-.44-.77-.678-1.26-.678m20.9-11.58a1.52 1.52 0 0 0-.64.145c-3.63 1.723-7.24 3.567-10.72 5.483a1.5 1.5 0 0 0-.6 2.037c.28.497.8.777 1.32.777a1.5 1.5 0 0 0 .72-.185c3.43-1.887 7-3.704 10.57-5.4.75-.355 1.07-1.25.7-1.998a1.5 1.5 0 0 0-1.36-.858m22.15-9.002c-.16 0-.33.027-.5.082a222.06 222.06 0 0 0-11.27 4.22c-.77.312-1.14 1.187-.83 1.955.24.582.8.936 1.4.936a1.54 1.54 0 0 0 .57-.111c3.6-1.468 7.35-2.87 11.12-4.163a1.5 1.5 0 0 0 .93-1.906 1.51 1.51 0 0 0-1.42-1.013m22.97-6.615c-.12 0-.23.013-.35.04-3.93.927-7.84 1.95-11.63 3.04a1.5 1.5 0 0 0 .41 2.942 1.4 1.4 0 0 0 .41-.059c3.75-1.076 7.62-2.087 11.5-3.003a1.5 1.5 0 0 0 1.12-1.805 1.51 1.51 0 0 0-1.46-1.156M728.758 442.27c-.33-2.05-.626-4.12-.88-6.184l23.663-20.504c1.063 1.485 2.47 2.632 4.054 3.433l-26.838 23.255m29.395-82.776c-5.48-3.72-11.22-7.08-17.196-10.05a164.77 164.77 0 0 1 10.501-19.653l.5-.797.058-.092a164.5 164.5 0 0 1 13.076-17.879h23.337c-13.174 13.824-23.528 30.35-30.277 48.47m207.087-66.045l-1.05-.717v-15.06h-29.4 30.46v15.777" fill="#e8f3fa"/><path d="M950.82 311.023H823.5a113.02 113.02 0 0 1 32.06-14.97c10.28-2.958 20.76-4.38 31.13-4.38 22.83 0 45.2 6.87 64.12 19.35m-162.4 0h-23.337a162.14 162.14 0 0 1 38.462-33.352h34.875c-19.17 7.265-36.144 18.813-50 33.352M964.2 292.73a140.37 140.37 0 0 0-29.41-15.06h29.4v15.06" class="H"/><path d="M727.88 436.085a163.68 163.68 0 0 1-1.223-19.972 162.3 162.3 0 0 1 14.301-66.669c5.975 2.968 11.717 6.328 17.196 10.05-3.877 10.412-6.564 21.35-7.91 32.6-.672 5.617-.838 11.284-.75 16.936.04 2.637.812 4.823 2.05 6.55l-23.663 20.504m44.895-38.902a117.24 117.24 0 0 1 4.289-22.436c3.42 3.258 6.683 6.675 9.78 10.246l-14.068 12.2" fill="#cddfcb"/><path d="M810.918 559.17l-7.415-4.367c-31.744-19.818-54.33-48.757-66.478-81.3l94.895-13.644c.98 6.85 1.5 13.84 1.5 20.96a148.28 148.28 0 0 1-1.73 22.645 1.36 1.36 0 0 0-.18-.012c-.63 0-1.2.396-1.43 1.022-1.32 3.925-2.3 7.912-2.9 11.85-.12.82.44 1.584 1.26 1.708l.23.017a146.49 146.49 0 0 1-17.772 41.121" class="H"/><path d="M734.688 466.802a164.16 164.16 0 0 1-5.93-24.533l26.838-23.255c1.816.92 3.864 1.384 5.887 1.384 5.558.001 10.928-3.503 10.817-10.703-.027-1.735-.015-3.462.034-5.185l32.607-28.254c18.08 20.852 30.4 46.826 34.47 75.49l-104.722 15.057" fill="#c3dfe0"/><path d="M828.54 535.95a1.49 1.49 0 0 1-1.48-1.296l-.55-6.12a1.51 1.51 0 0 1 1.44-1.559l.06-.001a1.5 1.5 0 0 1 1.5 1.44l.52 5.83c.1.82-.46 1.578-1.28 1.7l-.2.014m.15-17.898l-.23-.017c-.82-.124-1.38-.9-1.26-1.708a69.72 69.72 0 0 1 2.9-11.85c.22-.626.8-1.022 1.43-1.022a1.36 1.36 0 0 1 .18.012 1.7 1.7 0 0 1 .3.067c.8.264 1.2 1.115.95 1.9-1.27 3.76-2.2 7.577-2.77 11.344a1.5 1.5 0 0 1-1.48 1.275m7.5-22.585a1.52 1.52 0 0 1-.69-.167c-.73-.38-1.02-1.285-.64-2.02 1.8-3.496 3.9-6.995 6.27-10.4.3-.42.75-.646 1.23-.646.3 0 .6.087.85.267.68.472.85 1.406.38 2.087-2.28 3.298-4.32 6.685-6.07 10.066a1.49 1.49 0 0 1-1.33.813m13.52-19.656a1.47 1.47 0 0 1-.98-.369 1.5 1.5 0 0 1-.15-2.116 125.2 125.2 0 0 1 8.4-8.713 1.5 1.5 0 0 1 1.03-.408 1.48 1.48 0 0 1 1.09.472 1.5 1.5 0 0 1-.06 2.12c-2.9 2.74-5.67 5.6-8.2 8.5a1.48 1.48 0 0 1-1.13.514m17.37-16.4a1.48 1.48 0 0 1-1.18-.574c-.5-.65-.4-1.594.25-2.106 3.14-2.47 6.45-4.84 9.82-7.05.25-.166.54-.245.82-.245a1.49 1.49 0 0 1 1.26.678 1.5 1.5 0 0 1-.44 2.076 139.82 139.82 0 0 0-9.61 6.9c-.27.216-.6.32-.92.32m19.98-13.114c-.53 0-1.04-.28-1.32-.777a1.5 1.5 0 0 1 .6-2.037c3.48-1.916 7.1-3.76 10.72-5.483a1.52 1.52 0 0 1 .64-.145 1.5 1.5 0 0 1 .66 2.856 198.57 198.57 0 0 0-10.57 5.4 1.5 1.5 0 0 1-.72.185m21.6-10.25a1.52 1.52 0 0 1-1.4-.936c-.3-.768.06-1.643.83-1.955a222.06 222.06 0 0 1 11.27-4.22 1.54 1.54 0 0 1 .5-.082 1.51 1.51 0 0 1 1.42 1.013 1.5 1.5 0 0 1-.93 1.906c-3.77 1.294-7.5 2.695-11.12 4.163a1.54 1.54 0 0 1-.57.111m22.6-7.785a1.5 1.5 0 0 1-.41-2.942c3.8-1.1 7.7-2.113 11.63-3.04a1.49 1.49 0 0 1 .35-.04 1.51 1.51 0 0 1 1.46 1.156 1.5 1.5 0 0 1-1.12 1.805c-3.88.916-7.75 1.927-11.5 3.003a1.4 1.4 0 0 1-.41.059m23.26-5.505a1.49 1.49 0 0 1-1.47-1.221c-.16-.814.38-1.6 1.2-1.753 3.6-.68 7.3-1.307 11-1.864l.84-.124a1.48 1.48 0 0 1 .22-.016 1.5 1.5 0 0 1 1.48 1.282c.12.82-.44 1.582-1.26 1.702l-1.28.2a284.78 284.78 0 0 0-10.45 1.778 1.65 1.65 0 0 1-.28.026m23.65-3.487a1.52 1.52 0 0 1-1.5-1.338c-.1-.824.5-1.564 1.33-1.653a343.2 343.2 0 0 1 11.96-1.079c.03-.003.07-.004.1-.004.78 0 1.43.6 1.5 1.4a1.5 1.5 0 0 1-1.39 1.606 341.54 341.54 0 0 0-11.85 1.069l-.16.01m75.15-.896l-3.6-.228a1.5 1.5 0 0 1-1.41-1.588 1.51 1.51 0 0 1 1.51-1.409 2.82 2.82 0 0 1 .08.002l3.4.217a38.24 38.24 0 0 1 .01 1.07l-.01 1.935m-15.44-.82h-.06l-11.92-.322c-.83-.012-1.5-.694-1.48-1.522.01-.806.65-1.48 1.46-1.48a1.2 1.2 0 0 1 .06.001l12 .324c.83.032 1.48.73 1.44 1.557-.03.808-.7 1.442-1.5 1.442m-35.87-.033c-.8 0-1.46-.632-1.5-1.44-.03-.828.6-1.526 1.44-1.56 3.92-.16 7.95-.265 12-.312.8.012 1.5.654 1.5 1.482s-.65 1.508-1.48 1.518l-11.97.3" class="H"/><path d="M889.85 579.605a164.14 164.14 0 0 0 75.39-18.367c24.9-12.892 46.78-32.36 62.82-57.748-31.04 49.145-84 76.112-138.2 76.115m-86.347-24.802c-49.6-30.972-76.85-84.22-76.847-138.7a163.68 163.68 0 0 0 1.223 19.972c.253 2.063.548 4.133.88 6.184a164.16 164.16 0 0 0 5.93 24.533 164.36 164.36 0 0 0 2.337 6.7c12.15 32.544 34.734 61.483 66.478 81.3M1028.1 503.42l.15-.237-.15.237m.32-.516c.03-.047.07-.1.1-.147 16.42-26.31 24.44-55.487 24.8-84.387l.01-1.935c0 29.533-8 59.425-24.8 86.322-.03.047-.07.1-.1.147M751.458 329.79l.5-.797-.5.797m.56-.89c31.048-49.04 83.973-75.955 138.103-75.958-30.46.004-60.55 8.532-86.565 24.727a162.14 162.14 0 0 0-38.462 33.352 164.5 164.5 0 0 0-13.076 17.879m224.223-51.3l-.36-.227.36.227m-.5-.304l-.42-.26.42.26" fill="#86d1d8"/><path d="M996.34 354.437c-3.65 0-7.32-1.677-9.68-5.715-5.87-10-13.12-18.868-21.42-26.457v-28.817a139.61 139.61 0 0 1 41.61 44.662c5.08 8.652-2.7 16.327-10.5 16.327m-61.56-76.766h-96.35a131.82 131.82 0 0 1 19.24-5.654c9.6-2.046 19.26-3.037 28.8-3.037 16.64 0 32.98 3.007 48.3 8.69" fill="#dbecf7"/><path d="M755.596 419.014c-1.583-.8-2.99-1.948-4.054-3.433l21.232-18.398-.44 7.327-16.738 14.504m21.467-44.267a148.14 148.14 0 0 0-18.91-15.254c6.75-18.12 17.103-34.646 30.277-48.47h35.08c-22.38 15.1-38.805 37.773-46.447 63.724m188.177-52.482c-4.52-4.136-9.35-7.89-14.42-11.242h13.37V292.73l1.05.717v28.817" fill="#edf6fb"/><path d="M964.2 311.023h-13.37c-18.92-12.48-41.3-19.35-64.12-19.35-10.37 0-20.85 1.42-31.13 4.38a113.02 113.02 0 0 0-32.06 14.97h-35.08c13.856-14.54 30.83-26.087 50-33.352h96.35a140.37 140.37 0 0 1 29.41 15.06v18.292" fill="#92b3c0"/><path d="M751.542 415.58c-1.238-1.728-2.01-3.914-2.05-6.55-.088-5.652.078-11.32.75-16.936 1.347-11.252 4.034-22.19 7.91-32.6a148.14 148.14 0 0 1 18.91 15.254 117.24 117.24 0 0 0-4.289 22.436l-21.232 18.398" fill="#d8e6d6"/><path d="M761.483 420.398c-2.023 0-4.07-.465-5.887-1.384l16.738-14.504-.034 5.185c.11 7.2-5.26 10.704-10.817 10.703" fill="#d0e6e7"/><path d="M1012.78 398.81c-2.72 0-5.47-.737-7.95-2.282-7.04-4.395-9.18-13.663-4.8-20.703 2.85-4.564 7.75-7.07 12.76-7.07 2.72 0 5.47.737 7.95 2.282 7.04 4.395 9.18 13.664 4.8 20.703-2.85 4.565-7.75 7.07-12.76 7.07" fill="#dfeef8"/><path d="M1118.12 603.85l36.38-61.17a4.77 4.77 0 0 0-1.26-6.262l-.64-.472a4.76 4.76 0 0 0-6.95 1.433l-35.82 61.597c-1.34 2.306-.53 5.263 1.8 6.558l.1.046c2.25 1.25 5.1.485 6.4-1.73" class="C"/><path d="M1049.3 417.442c-.14 39.252-14.4 77.298-40.32 106.813-25.58 29.136-61.2 47.945-99.52 53.377-39.18 5.553-79.62-4.384-112.35-26.335-31.88-21.38-55.144-54.36-65.344-91.27-10.576-38.274-6.198-80.015 11.63-115.428 17.175-34.114 46.7-61.57 81.933-76.32 36.76-15.4 78.5-16.325 116.1-3.308 36.2 12.535 66.94 38.596 86.2 71.567 14.3 24.49 21.58 52.597 21.68 80.905.02 5.602 8.7 5.604 8.7 0-.14-39.325-13.75-77.19-38.44-107.75-24.12-29.835-58.67-50.697-96.1-58.775-38.82-8.38-79.87-2.543-115.03 15.773-33.793 17.606-61.046 47.074-76.474 81.844C715.82 384.88 713.158 426.38 724 464.59c10.486 36.922 33.933 69.22 64.958 91.604 31.902 23.014 71.752 33.795 110.892 31.1 38.8-2.67 75.7-19.083 104.15-45.485 34.38-31.89 53.8-77.608 53.97-124.367.02-5.604-8.67-5.602-8.7 0" class="B"/><path d="M1281.55 714.232c6.14-16.11 15.03-47.96 20.14-63.42-11.2-37.663-34.25-100.574-36.64-101.266l-40.34-11.764c-.64-.185-4.72 20.644-5.37 20.46-.52-.15-.73-4.3-.9-9.073v-.006l-2.68-27.073c-.08-2.263-1.64-4.205-3.83-4.775-8.16-2.12-25.78-6.255-26.54-4.976-.3.47-1.8 23.973-3.07 30.687l-2.94-1.534-3.84-43.857s-30.47-7.678-31.07-6.265c-.7 1.662-7.48 38.87-7.48 38.87l-13.13 95.107c-1.96 9.245-8.13 17.528-7.24 26.746 1 10.294 5.5 19.85 9.95 29.223l32.25 67.88c2.35 15.358 4.8 50.538 8.34 65.655 39.76-8.023 79.7-14.094 123.95-28.18 1.25-.398-12.22-65.494-9.57-72.44" fill="#edd0b3"/><g transform="translate(1133 733)"><mask id="D" class="B"><use xlink:href="#A"/></mask><path fill="#efefef" mask="url(#D)" d="M23.24 139.66l-9.18-80.71L173.03.088l27.63 98.398L23.8 151.292l-.55-11.632"/><path d="M206.77 47.74S43.27 141.175 9.46 150.023L.12 370h278L206.77 47.74" mask="url(#D)" class="F"/></g><path d="M1180.85 824.8c-1.3 4.838-6.25 7.72-11.1 6.437a9.06 9.06 0 1 1 4.65-17.519c4.84 1.282 7.72 6.244 6.44 11.082" fill="#59595b"/><path d="M1107.5 655.037l-21.2-33.44-30.7-28.584s-5.96-17.232 13.27-17.708c19.24-.477 32.18 15.604 40.7 28.367 3.74 5.613 21.84 21.95 35.88 31.944 18.38 13.074-.82 70.64-.82 70.64l-37.13-51.22" fill="#edd0b3"/></g></svg>