<?xml version="1.0" encoding="UTF-8"?>
<svg width="278px" height="274px" viewBox="0 0 278 274" version="1.1" xmlns="http://www.w3.org/2000/svg" xmlns:xlink="http://www.w3.org/1999/xlink">
    <!-- Generator: Sketch 52.2 (67145) - http://www.bohemiancoding.com/sketch -->
    <title>493643-PHDQDE-731</title>
    <desc>Created with Sketch.</desc>
    <defs>
        <path d="M25.726,12.8146667 C25.726,19.7726667 20.086,25.4126667 13.1286667,25.4126667 C6.17066667,25.4126667 0.530666667,19.7726667 0.530666667,12.8146667 C0.530666667,5.85733333 6.17066667,0.217333333 13.1286667,0.217333333 C20.086,0.217333333 25.726,5.85733333 25.726,12.8146667" id="path-1"></path>
        <path d="M150.328,97.5693333 L5.672,97.5693333 C2.78066667,97.5693333 0.436666667,95.3366667 0.436666667,92.582 L0.436666667,5.60066667 C0.436666667,2.84666667 2.78066667,0.613333333 5.672,0.613333333 L150.328,0.613333333 C153.219333,0.613333333 155.563333,2.84666667 155.563333,5.60066667 L155.563333,92.582 C155.563333,95.3366667 153.219333,97.5693333 150.328,97.5693333" id="path-3"></path>
    </defs>
    <g id="Page-1" stroke="none" stroke-width="1" fill="none" fill-rule="evenodd">
        <g id="493643-PHDQDE-731">
            <path d="M241.524112,101.877866 L198.750326,115.823013 C196.868799,116.436513 194.847974,115.403889 194.236276,113.516819 L186.17653,88.6501563 C185.564832,86.7630867 186.59375,84.7363093 188.47595,84.1228092 L231.249736,70.1769875 C233.13059,69.5634874 235.152088,70.5961113 235.763786,72.4831808 L243.823532,97.3498437 C244.435231,99.2369133 243.40564,101.264366 241.524112,101.877866" id="Fill-4" fill="#7FCF6F"></path>
            <polyline id="Fill-5" fill="#3A3B39" points="189.065315 98 238 82.277181 235.936013 76 187 91.7234754 189.065315 98"></polyline>
            <path d="M237.876771,96.727409 C238.303735,98.0403992 237.585604,99.450055 236.272688,99.8770437 C234.959771,100.303439 233.550194,99.5852681 233.123229,98.2728709 C232.696265,96.9598806 233.414396,95.5496319 234.727312,95.1232362 C236.039636,94.6962475 237.449806,95.4144188 237.876771,96.727409" id="Fill-6" fill="#3A3B39"></path>
            <polyline id="Fill-7" fill="#E5E6E3" points="79 109.186686 45.6766409 143 0 97.8858939 28.8276688 68.6341461 32.7949265 68.3368273 37.2986436 68 79 109.186686"></polyline>
            <polyline id="Fill-8" fill="#9EA0A0" points="29 68.5560775 33.2242577 72 38 68 29 68.5560775"></polyline>
            <polyline id="Fill-9" fill="#CCCDC9" points="28 100.435613 18.5640525 110 9 100.564387 18.4359475 91 28 100.435613"></polyline>
            <polyline id="Fill-10" fill="#CCCDC9" points="35 77.1393888 22.1677256 90 21 88.8606112 33.8322744 76 35 77.1393888"></polyline>
            <polyline id="Fill-11" fill="#CCCDC9" points="37 79.139335 24.1677256 92 23 90.860665 35.8322744 78 37 79.139335"></polyline>
            <polyline id="Fill-12" fill="#CCCDC9" points="41 81.1393888 28.1683386 94 27 92.8606112 39.8316614 80 41 81.1393888"></polyline>
            <polyline id="Fill-13" fill="#CCCDC9" points="43 84.1393888 30.1677256 97 29 95.8606112 41.8322744 83 43 84.1393888"></polyline>
            <polyline id="Fill-14" fill="#CCCDC9" points="41 113.435947 31.5643874 123 22 113.564053 31.4362869 104 41 113.435947"></polyline>
            <polyline id="Fill-15" fill="#CCCDC9" points="48 89.1393888 35.1676698 102 34 100.860611 46.8316614 88 48 89.1393888"></polyline>
            <polyline id="Fill-16" fill="#CCCDC9" points="50 92.1393888 37.1683386 105 36 103.860611 48.8323302 91 50 92.1393888"></polyline>
            <polyline id="Fill-17" fill="#CCCDC9" points="54 94.1399962 41.1683386 107 40 105.860665 52.8316614 93 54 94.1399962"></polyline>
            <polyline id="Fill-18" fill="#CCCDC9" points="56 97.1393888 43.1683386 110 42 108.860611 54.8316614 96 56 97.1393888"></polyline>
            <polyline id="Fill-19" fill="#CCCDC9" points="53 125.435947 43.5640525 135 34 125.564053 43.4359475 116 53 125.435947"></polyline>
            <polyline id="Fill-20" fill="#CCCDC9" points="61 102.139996 48.1676698 115 47 113.860665 59.8316614 101 61 102.139996"></polyline>
            <polyline id="Fill-21" fill="#CCCDC9" points="63 104.139389 50.1677256 117 49 115.860611 61.8322744 103 63 104.139389"></polyline>
            <polyline id="Fill-22" fill="#CCCDC9" points="66 106.139389 53.1683386 119 52 117.860611 64.8316614 105 66 106.139389"></polyline>
            <polyline id="Fill-23" fill="#CCCDC9" points="68 110.139996 55.1676698 123 54 121.860665 66.8316614 109 68 110.139996"></polyline>
            <polyline id="Fill-24" fill="#FCFBFC" points="79 106.17636 43.0631735 137 2 87.666017 33.0890493 61 37.0334645 61.0639634 41.5111419 61.1366797 79 106.17636"></polyline>
            <polyline id="Fill-25" fill="#9EA0A0" points="33 61 36.8195779 65 42 61.1267053 33 61"></polyline>
            <polyline id="Fill-26" fill="#CCCDC9" points="29 92.2983762 18.7016238 101 10 90.7016238 20.2983762 82 29 92.2983762"></polyline>
            <polyline id="Fill-27" fill="#CCCDC9" points="39 69.2482826 25.0576366 81 24 79.751051 37.9423634 68 39 69.2482826"></polyline>
            <polyline id="Fill-28" fill="#CCCDC9" points="41 71.248949 27.0582576 83 26 81.751051 39.9417424 70 41 71.248949"></polyline>
            <polyline id="Fill-29" fill="#CCCDC9" points="44 74.248885 30.0576366 86 29 84.751115 42.9423634 73 44 74.248885"></polyline>
            <polyline id="Fill-30" fill="#CCCDC9" points="46 77.248949 32.0576366 89 31 87.751051 44.9423634 76 46 77.248949"></polyline>
            <polyline id="Fill-31" fill="#CCCDC9" points="41 106.298376 30.7016238 115 22 104.701624 32.2983762 96 41 106.298376"></polyline>
            <polyline id="Fill-32" fill="#CCCDC9" points="50 83.248949 36.0575895 95 35 93.751051 48.9417424 82 50 83.248949"></polyline>
            <polyline id="Fill-33" fill="#CCCDC9" points="52 85.248949 38.0582576 97 37 95.751051 50.9424105 84 52 85.248949"></polyline>
            <polyline id="Fill-34" fill="#CCCDC9" points="56 88.248885 42.0582576 100 41 98.751115 54.9424105 87 56 88.248885"></polyline>
            <polyline id="Fill-35" fill="#CCCDC9" points="58 90.248949 44.0576366 102 43 100.751051 56.9423634 89 58 90.248949"></polyline>
            <polyline id="Fill-36" fill="#CCCDC9" points="52 120.298376 41.7016238 129 33 118.701624 43.2990528 110 52 120.298376"></polyline>
            <polyline id="Fill-37" fill="#CCCDC9" points="62 97.248949 48.0582576 109 47 107.751051 60.9417424 96 62 97.248949"></polyline>
            <polyline id="Fill-38" fill="#CCCDC9" points="64 99.248885 50.0576366 111 49 109.751115 62.9423634 98 64 99.248885"></polyline>
            <polyline id="Fill-39" fill="#CCCDC9" points="67 102.248949 53.0576366 114 52 112.751051 65.9423634 101 67 102.248949"></polyline>
            <polyline id="Fill-40" fill="#CCCDC9" points="70 104.248949 56.0582576 116 55 114.751051 68.9424105 103 70 104.248949"></polyline>
            <path d="M30.9671099,99.7516242 L26.5836013,92.0985318 C25.3853366,90.0065886 26.0914805,87.3288746 28.1597092,86.1172574 L56.3816835,69.5901045 C58.4505727,68.3784873 61.0987773,69.0924999 62.2970421,71.1837752 L93.416254,125.514185 C94.6145187,127.606129 93.9090354,130.283843 91.8401461,131.49546 L56.1267054,152.410216 C54.0578162,153.621166 51.4096116,152.907821 50.2113469,150.815878 L27.8148943,111.714841 C26.6166296,109.622898 27.3221129,106.945184 29.3910021,105.733566 C31.4598914,104.521949 32.1653747,101.843567 30.9671099,99.7516242" id="Fill-41" fill="#7FCF6F"></path>
            <path d="M53.3316728,150 L29.9427737,109.493031 L32.0526962,108.267503 C33.9974597,107.137116 35.0839272,105.091907 35.0839272,102.988816 C35.0839272,101.952905 34.8199382,100.903023 34.2647652,99.940963 L28,89.0915116 L59.1414217,71 L75,98.4659379 L74.7320312,98.4659379 L59.0565207,71.3186906 L28.3177155,89.1760079 L34.4657418,99.8245311 C35.04214,100.822518 35.3160784,101.912986 35.3160784,102.988816 C35.3160784,105.171746 34.188487,107.296128 32.1694351,108.468431 L30.2598259,109.578193 L53.4159105,149.681975 L59.8458347,145.946176 L59.8458347,146.215633 L53.3316728,150" id="Fill-42" fill="#FBD986"></path>
            <path d="M64.1111641,99 L55.3530578,83.92081 C54.628258,82.6724833 55.0550701,81.0750922 56.3068788,80.3523084 C56.7200277,80.1135432 57.1715637,80 57.617244,80 C58.5209666,80 59.4006159,80.4671493 59.8859846,81.3028275 L70,98.7171151 L65.8405339,98.7171151 C65.2354497,98.7171151 64.653788,98.8163844 64.1111641,99" id="Fill-43" fill="#FAD477"></path>
            <path d="M132.82544,24 C132.938469,23.5118343 133,23.0031862 133,22.4795175 C133,18.7783341 130.060569,15.7776513 126.434937,15.7776513 C125.463153,15.7776513 124.543536,15.9995448 123.714208,16.3859809 C123.448021,13.919208 121.401455,12 118.914141,12 C116.864231,12 115.116624,13.3054165 114.41504,15.1447428 C113.986331,15.0368685 113.540902,14.9733728 113.079421,14.9733728 C110.909125,14.9733728 109.033775,16.2453345 108.118171,18.0962676 C107.920202,18.0785162 107.720896,18.0655439 107.518915,18.0655439 C104.147431,18.0655439 101.373197,20.6606736 101,24 L132.82544,24" id="Fill-44" fill="#CBE7F1"></path>
            <path d="M118.535446,12 C117.996291,12 117.480025,12.0940224 117,12.2615193 C118.627636,12.8268991 119.83374,14.2627646 120.028929,16 C120.817951,15.6475716 121.692169,15.4452055 122.616615,15.4452055 C122.745682,15.4452055 122.872841,15.4570361 123,15.4645081 C122.523154,13.4794521 120.707958,12 118.535446,12" id="Fill-45" fill="#85CDE7"></path>
            <path d="M125.769948,15 C125.157869,15 124.56715,15.0874367 124,15.2346591 C127.128161,16.0425143 129.444635,18.9107365 129.444635,22.3357137 C129.444635,22.9089097 129.376872,23.4656647 129.252394,24 L132.807758,24 C132.932237,23.4656647 133,22.9089097 133,22.3357137 C133,18.2844806 129.762828,15 125.769948,15" id="Fill-46" fill="#85CDE7"></path>
            <path d="M123.085165,15.93 C123.376374,15.688 123.684066,15.501 124,15.353 C123.676923,15.204 123.343407,15.108 123,15.07 C123.036264,15.351 123.067033,15.637 123.085165,15.93" id="Fill-47" fill="#CBE7F1"></path>
            <path d="M98.959066,23 C98.985908,22.7357912 99,22.4675176 99,22.1965343 C99,17.9061898 95.5843604,14.4267632 91.34937,14.3657919 C90.2280471,12.6870498 88.488688,11.4703345 86.4788962,11.0482778 C86.0870036,7.08988804 82.7794029,4 78.756464,4 C75.2656669,4 72.3143933,6.3257149 71.3373459,9.52670613 C70.6716653,9.33837267 69.9724322,9.23065678 69.2463572,9.23065678 C65.7025472,9.23065678 62.7197343,11.6302146 61.7896604,14.9064038 C60.6146535,14.1835556 59.239003,13.7594666 57.7620241,13.7594666 C53.4753629,13.7594666 50,17.268024 50,21.5963061 C50,22.0759467 50.0496576,22.5440705 50.1315256,23 L98.959066,23" id="Fill-48" fill="#CBE7F1"></path>
            <path d="M67.608,10.5675 L67.655,10.4325 C67.552,10.4565 67.447,10.4755 67.345,10.5025 L67.608,10.5675" id="Fill-49" fill="#CBE7F1"></path>
            <path d="M91.4149631,14.3657919 C90.3032539,12.6870498 88.5788073,11.4703345 86.5862465,11.0482778 C86.1977138,7.0905655 82.918471,4 78.930023,4 C78.2633966,4 77.6167292,4.0880696 77,4.25065963 C80.0843111,5.05209299 82.4261522,7.74431291 82.7501512,11.0482778 C84.742712,11.4703345 86.4678239,12.6870498 87.5788678,14.3657919 C91.7775493,14.4267632 95.1639047,17.9061898 95.1639047,22.1965343 C95.1639047,22.4675176 95.1499335,22.7357912 95.1239869,23 L98.959417,23 C98.9860288,22.7357912 99,22.4675176 99,22.1965343 C99,17.9061898 95.6136446,14.4267632 91.4149631,14.3657919" id="Fill-50" fill="#85CDE7"></path>
            <path d="M57,14.222091 C57.5947537,14.3927939 58.1552463,14.6556409 58.6675589,15 C58.7553533,14.6615475 58.867773,14.3349084 59,14.019492 C58.8485011,14.007088 58.6953961,14 58.5406852,14 C58.00803,14 57.493576,14.0821028 57,14.222091" id="Fill-51" fill="#CBE7F1"></path>
            <path d="M120.928445,29 C120.972582,28.753459 121,28.5017816 121,28.243684 C121,25.7769895 118.917558,23.7776957 116.348946,23.7776957 L113.262733,23.7776957 C113.314225,23.4509005 113.349,23.1189689 113.349,22.7780489 C113.349,19.3707746 110.690108,16.5650862 107.256821,16.1554685 C106.085197,12.0323264 102.158383,9 97.4919484,9 C92.6957789,9 88.6820297,12.2024654 87.6367965,16.5015248 C86.8991815,16.2453533 86.1067302,16.0983275 85.2768297,16.0983275 C81.4349454,16.0983275 78.3193077,19.0889217 78.3193077,22.7780489 C78.3193077,23.1189689 78.3547507,23.4509005 78.4055746,23.7776957 L75.6517227,23.7776957 C73.0824417,23.7776957 71,25.7769895 71,28.243684 C71,28.5017816 71.0280869,28.753459 71.0722234,29 L120.928445,29" id="Fill-52" stroke="#85CDE7" fill="#FFFFFE"></path>
            <path d="M105.941397,15.2631099 C104.77623,11.0779424 100.871059,8 96.2303419,8 C95.8126907,8 95.4043502,8.0332363 95,8.08146153 C99.0873954,8.57153408 102.418629,11.4546205 103.478718,15.2631099 C106.893083,15.6788895 109.537321,18.5267846 109.537321,21.9853152 C109.537321,22.3313638 109.502738,22.6682887 109.45153,23 L111.914209,23 C111.965417,22.6682887 112,22.3313638 112,21.9853152 C112,18.5267846 109.355762,15.6788895 105.941397,15.2631099" id="Fill-53" fill="#85CDE7"></path>
            <path d="M118.568158,28.275879 C118.568158,28.5229899 118.540576,28.7639538 118.497889,29 L120.929731,29 C120.973074,28.7639538 121,28.5229899 121,28.275879 C121,25.9141874 118.954968,24 116.432498,24 L114,24 C116.523126,24 118.568158,25.9141874 118.568158,28.275879" id="Fill-54" fill="#85CDE7"></path>
            <path d="M218.465922,207 L65.5340779,207 C62.4778955,207 60,204.512524 60,201.444524 L60,104.556145 C60,101.487476 62.4778955,99 65.5340779,99 L218.465922,99 C221.522771,99 224,101.487476 224,104.556145 L224,201.444524 C224,204.512524 221.522771,207 218.465922,207" id="Fill-55" fill="#2C312F"></path>
            <path d="M213.768942,201 L69.2310585,201 C66.342086,201 64,198.76632 64,196.010403 L64,108.989597 C64,106.234347 66.342086,104 69.2310585,104 L213.768942,104 C216.657914,104 219,106.234347 219,108.989597 L219,196.010403 C219,198.76632 216.657914,201 213.768942,201" id="Fill-56" fill="#67A9D0"></path>
            <path d="M141.500328,231.711694 C137.722207,231.711694 134.659912,228.577957 134.659912,224.711022 C134.659912,220.844758 137.722207,217.711022 141.500328,217.711022 C145.27845,217.711022 148.341402,220.844758 148.341402,224.711022 C148.341402,228.577957 145.27845,231.711694 141.500328,231.711694 Z M131,240 L152,240 L152,207 L131,207 L131,240 Z" id="Fill-57" fill="#2C312F"></path>
            <polygon id="Fill-58" fill="#2C312F" points="109 246 174 246 174 240 109 240"></polygon>
            <polygon id="Fill-59" fill="#FFFFFE" points="235 153 236 153 236 152 235 152"></polygon>
            <path d="M239,153 L242.333333,153 L242.333333,152 L239,152 L239,153 Z M245.666667,153 L249,153 L249,152 L245.666667,152 L245.666667,153 Z" id="Fill-60" fill="#FFFFFE"></path>
            <polyline id="Fill-61" fill="#FFFFFE" points="252 153 254 153 254 151 253.221053 151 253.220273 152.22088 252 152.22088 252 153"></polyline>
            <path d="M253,148 L254,148 L254,145.205316 L253,145.205316 L253,148 Z M253,142.410632 L254,142.410632 L254,139.615282 L253,139.615282 L253,142.410632 Z M253,136.820598 L254,136.820598 L254,134.025914 L253,134.025914 L253,136.820598 Z M253,131.230565 L254,131.230565 L254,128.43588 L253,128.43588 L253,131.230565 Z M253,125.641196 L254,125.641196 L254,122.845847 L253,122.845847 L253,125.641196 Z M253,120.051163 L254,120.051163 L254,117.256478 L253,117.256478 L253,120.051163 Z M253,114.461129 L254,114.461129 L254,111.666445 L253,111.666445 L253,114.461129 Z M253,108.871761 L254,108.871761 L254,106.077077 L253,106.077077 L253,108.871761 Z M253,103.281727 L254,103.281727 L254,100.487043 L253,100.487043 L253,103.281727 Z M253,97.6923589 L254,97.6923589 L254,94.8970095 L253,94.8970095 L253,97.6923589 Z M253,92.1023253 L254,92.1023253 L254,89.3076411 L253,89.3076411 L253,92.1023253 Z M253,86.5122917 L254,86.5122917 L254,83.7176076 L253,83.7176076 L253,86.5122917 Z M253,80.9229234 L254,80.9229234 L254,78.127574 L253,78.127574 L253,80.9229234 Z M253,75.3328898 L254,75.3328898 L254,72.5382057 L253,72.5382057 L253,75.3328898 Z M253,69.7435215 L254,69.7435215 L254,66.9481721 L253,66.9481721 L253,69.7435215 Z M253,64.1534879 L254,64.1534879 L254,61.3588038 L253,61.3588038 L253,64.1534879 Z M253,58.5634544 L254,58.5634544 L254,55.7687702 L253,55.7687702 L253,58.5634544 Z M253,52.9740861 L254,52.9740861 L254,50.1787366 L253,50.1787366 L253,52.9740861 Z M253,47.3840525 L254,47.3840525 L254,44.5893683 L253,44.5893683 L253,47.3840525 Z M253,41.7946842 L254,41.7946842 L254,39 L253,39 L253,41.7946842 Z" id="Fill-62" fill="#FFFFFE"></path>
            <polyline id="Fill-63" fill="#FFFFFE" points="254 37 254 35 252 35 252 35.7797271 253.220273 35.7797271 253.220273 37 254 37"></polyline>
            <path d="M246.216307,36 L249,36 L249,35 L246.216307,35 L246.216307,36 Z M240.64892,36 L243.432613,36 L243.432613,35 L240.64892,35 L240.64892,36 Z M235.080864,36 L237.864558,36 L237.864558,35 L235.080864,35 L235.080864,36 Z M229.513477,36 L232.297171,36 L232.297171,35 L229.513477,35 L229.513477,36 Z M223.946091,36 L226.729784,36 L226.729784,35 L223.946091,35 L223.946091,36 Z M218.378035,36 L221.162397,36 L221.162397,35 L218.378035,35 L218.378035,36 Z M212.810648,36 L215.594342,36 L215.594342,35 L212.810648,35 L212.810648,36 Z M207.243261,36 L210.026955,36 L210.026955,35 L207.243261,35 L207.243261,36 Z M201.675875,36 L204.459568,36 L204.459568,35 L201.675875,35 L201.675875,36 Z M196.107819,36 L198.891512,36 L198.891512,35 L196.107819,35 L196.107819,36 Z M190.540432,36 L193.324125,36 L193.324125,35 L190.540432,35 L190.540432,36 Z M184.973045,36 L187.756739,36 L187.756739,35 L184.973045,35 L184.973045,36 Z M179.405658,36 L182.189352,36 L182.189352,35 L179.405658,35 L179.405658,36 Z M173.837603,36 L176.621296,36 L176.621296,35 L173.837603,35 L173.837603,36 Z M168.270216,36 L171.053909,36 L171.053909,35 L168.270216,35 L168.270216,36 Z M162.702829,36 L165.486523,36 L165.486523,35 L162.702829,35 L162.702829,36 Z M157.135442,36 L159.919136,36 L159.919136,35 L157.135442,35 L157.135442,36 Z M151.567387,36 L154.35108,36 L154.35108,35 L151.567387,35 L151.567387,36 Z M146,36 L148.783693,36 L148.783693,35 L146,35 L146,36 Z" id="Fill-64" fill="#FFFFFE"></path>
            <polygon id="Fill-65" fill="#FFFFFE" points="142 36 143 36 143 35 142 35"></polygon>
            <path d="M237,154 C237,155.6566 235.6572,157 234,157 C232.3434,157 231,155.6566 231,154 C231,152.3428 232.3434,151 234,151 C235.6572,151 237,152.3428 237,154" id="Fill-66" fill="#FFFFFE"></path>
            <path d="M142,35 C142,36.6566 140.6572,38 139,38 C137.3434,38 136,36.6566 136,35 C136,33.3428 137.3434,32 139,32 C140.6572,32 142,33.3428 142,35" id="Fill-67" fill="#FFFFFE"></path>
            <path d="M110.553759,133.073035 C113.277862,131.996231 116.706931,131.269405 118.884312,133.213429 C120.022581,134.229776 120.5238,135.757992 120.888508,137.231124 C121.616566,140.169328 121.990782,143.180752 122.33919,146.185458 C122.850596,150.59881 123.309028,155.065901 122.731064,159.471863 C122.152421,163.877154 120.440264,168.27304 117.183021,171.330814 C116.406744,172.059656 115.509576,172.724681 114.459597,172.927548 C113.700298,173.074659 112.91655,172.969196 112.14978,172.86306 C109.532305,172.500991 106.91415,172.138921 104.296675,171.776852 C103.408336,171.654595 102.509131,171.528307 101.681237,171.185718 C100.481844,170.688628 99.5140435,169.76834 98.6583042,168.799015 C93.211456,162.624353 91.6806336,153.70495 94.1371486,145.965798 C96.3063796,139.1335 104.264075,135.559156 110.553759,133.073035" id="Fill-68" fill="#EFA278"></path>
            <path d="M103,145 L106,143.481656 L106,144.495823 L103,145 M106,143.481656 L106,143 L106,143.481656" id="Fill-69" fill="#E78F64"></path>
            <polygon id="Fill-70" fill="#FCFBFC" points="105 176 182 176 182 76 105 76"></polygon>
            <polygon id="Fill-71" fill="#2C312F" points="105 82 182 82 182 76 105 76"></polygon>
            <path d="M178,79 C178,79.552 177.552571,80 177,80 C176.448,80 176,79.552 176,79 C176,78.4474286 176.448,78 177,78 C177.552571,78 178,78.4474286 178,79" id="Fill-72" fill="#E05E55"></path>
            <path d="M173,79 C173,79.552 172.552571,80 172,80 C171.448,80 171,79.552 171,79 C171,78.4474286 171.448,78 172,78 C172.552571,78 173,78.4474286 173,79" id="Fill-73" fill="#E5E6E3"></path>
            <path d="M169,79 C169,79.552 168.552571,80 168,80 C167.448,80 167,79.552 167,79 C167,78.4474286 167.448,78 168,78 C168.552571,78 169,78.4474286 169,79" id="Fill-74" fill="#E5E6E3"></path>
            <path d="M126.336574,257 L39.6634261,257 C38.7445495,257 38,257.672 38,258.5 C38,259.3286 38.7445495,260 39.6634261,260 L126.336574,260 C127.254785,260 128,259.3286 128,258.5 C128,257.672 127.254785,257 126.336574,257" id="Fill-75" fill="#7FCF6F"></path>
            <path d="M181.328681,60 L127.671319,60 C126.748082,60 126,60.6714 126,61.5 C126,62.328 126.748082,63 127.671319,63 L181.328681,63 C182.251918,63 183,62.328 183,61.5 C183,60.6714 182.251918,60 181.328681,60" id="Fill-76" fill="#7FCF6F"></path>
            <path d="M255.328681,271 L201.671319,271 C200.748082,271 200,271.6714 200,272.5 C200,273.328 200.748082,274 201.671319,274 L255.328681,274 C256.251918,274 257,273.328 257,272.5 C257,271.6714 256.251918,271 255.328681,271" id="Fill-77" fill="#7FCF6F"></path>
            <path d="M59.2623193,237 L58.5246385,237 C58.5228681,237.841629 57.8418413,238.522723 57.0002951,238.524493 C56.1581587,238.522723 55.4771319,237.841629 55.4753615,237 C55.4771319,236.157781 56.1581587,235.476687 57.0002951,235.475507 C57.8418413,235.476687 58.5228681,236.157781 58.5246385,237 L60,237 C59.9994099,235.342711 58.6574211,234 57.0002951,234 C55.3431691,234 54.0005901,235.342711 54,237 C54.0005901,238.657289 55.3431691,239.99941 57.0002951,240 C58.6574211,239.99941 59.9994099,238.657289 60,237 L59.2623193,237" id="Fill-78" fill="#7FCF6F"></path>
            <path d="M186.909972,49.5 L185.819943,49.5 C185.817763,50.7810431 184.78151,51.8179396 183.500363,51.8201195 C182.219217,51.8179396 181.182237,50.7810431 181.180057,49.5 C181.182237,48.2196835 182.219217,47.1820604 183.500363,47.1798805 C184.780783,47.1820604 185.817763,48.2189569 185.819943,49.5 L188,49.5 C187.999273,47.0149362 185.986354,45.0007266 183.500363,45 C181.014372,45.0007266 179.000727,47.0142096 179,49.5 C179.000727,51.9857904 181.014372,53.9992734 183.500363,54 C185.986354,53.9992734 187.999273,51.9857904 188,49.5 L186.909972,49.5" id="Fill-79" fill="#7FCF6F"></path>
            <path d="M255.909972,254.500363 L254.819943,254.500363 C254.817763,255.78151 253.78151,256.817763 252.500363,256.819943 C251.219217,256.817763 250.182237,255.780783 250.17933,254.500363 C250.182237,253.219217 251.219217,252.182237 252.500363,252.180057 C253.780783,252.182237 254.817763,253.219217 254.819943,254.500363 L257,254.500363 C256.999273,252.014372 254.986354,250.000727 252.500363,250 C250.014372,250.000727 248.000727,252.014372 248,254.500363 C248.000727,256.986354 250.014372,258.999273 252.500363,259 C254.986354,258.999273 256.999273,256.986354 257,254.500363 L255.909972,254.500363" id="Fill-80" fill="#7FCF6F"></path>
            <path d="M215.91006,4.5 L214.820119,4.5 C214.81794,5.78104311 213.781043,6.81793961 212.5,6.82011949 C211.218957,6.81793961 210.182787,5.78104311 210.179881,4.5 C210.182787,3.21895689 211.218957,2.18206039 212.5,2.17988051 C213.781043,2.18206039 214.81794,3.21895689 214.820119,4.5 L217,4.5 C216.999273,2.01420959 214.985064,0.000726626837 212.5,0 C210.01421,0.000726626837 208.000727,2.01420959 208,4.5 C208.000727,6.98506378 210.01421,8.99927337 212.5,9 C214.985064,8.99927337 216.999273,6.98579041 217,4.5 L215.91006,4.5" id="Fill-81" fill="#7FCF6F"></path>
            <path d="M137,102.000339 C137,109.179549 131.179701,115 124,115 C116.820976,115 111,109.179549 111,102.000339 C111,94.8204507 116.820976,89 124,89 C131.179701,89 137,94.8204507 137,102.000339" id="Fill-82" fill="#8A8D8B"></path>
            <g id="Group-114" transform="translate(111.000000, 90.000000)">
                <mask id="mask-2" fill="white">
                    <use xlink:href="#path-1"></use>
                </mask>
                <g id="Clip-84"></g>
                <path d="M14.8666667,18.932 L16.0153333,19.1873333 C18.136,19.658 19.644,21.5386667 19.644,23.7106667 L19.644,25.3746667 C19.644,25.6506667 19.4206667,25.8746667 19.144,25.8746667 L7.20666667,25.8746667 C6.93066667,25.8746667 6.70666667,25.6506667 6.70666667,25.3746667 L6.70666667,23.7106667 C6.70666667,21.5386667 8.21533333,19.658 10.3353333,19.1873333 L11.3126667,18.97 L11.354,18.9626667 L12.5046667,18.8073333 L12.5713333,18.8026667 L14.0146667,18.8026667 L14.0926667,18.8086667 L14.836,18.926 L14.8666667,18.932" id="Fill-83" fill="#F3D6B6" mask="url(#mask-2)"></path>
                <path d="M16.8506667,19.3726667 L14.8513333,18.9286667 L14.3513333,18.8493333 L14.3353333,20.0926667 L14.3353333,20.09 L14.34,19.9966667 L14.3353333,20.09 L14.3353333,20.0953333 L14.3353333,20.0926667 C14.2866667,20.694 13.7833333,21.1666667 13.1693333,21.1666667 C12.5233333,21.1666667 11.9993333,20.6426667 11.9993333,19.9966667 L11.9993333,18.8753333 L11.3333333,18.9653333 L9.50066667,19.3726667 C9.03666667,19.4753333 8.61133333,19.6666667 8.23933333,19.9246667 L8.23933333,25.8746667 L18.16,25.8746667 L18.16,19.96 C17.7766667,19.684 17.3346667,19.48 16.8506667,19.3726667" id="Fill-85" fill="#37A1CE" mask="url(#mask-2)"></path>
                <path d="M8.23933333,23.5186667 L6.70666667,23.5186667 C6.70666667,23.5186667 6.32,21.2266667 8.23933333,19.9246667 L8.23933333,23.5186667" id="Fill-86" fill="#37A1CE" mask="url(#mask-2)"></path>
                <path d="M18.18,23.5186667 L19.7126667,23.5186667 C19.7126667,23.5186667 20.0993333,21.2266667 18.18,19.9246667 L18.18,23.5186667" id="Fill-87" fill="#37A1CE" mask="url(#mask-2)"></path>
                <path d="M14.3513333,18.8173333 L14.3353333,20.0953333 L14.34,19.9966667 C14.34,20.6426667 13.816,21.1666667 13.1693333,21.1666667 C12.5233333,21.1666667 11.9993333,20.6426667 11.9993333,19.9966667 L11.9993333,18.1413333 L12.2893333,17.8753333 L12.4826667,17.8753333 L13.626,17.6266667 L13.9626667,17.696 L14.3513333,17.8346667 L14.3513333,18.8173333" id="Fill-88" fill="#F3D6B6" mask="url(#mask-2)"></path>
                <path d="M13.626,17.6266667 L12.4826667,17.8753333 L12.2893333,17.8753333 L11.9993333,18.1413333 L11.9993333,19.036 C12.3433333,19.264 12.756,19.3966667 13.2,19.3966667 C13.6213333,19.3966667 14.0146667,19.2766667 14.3486667,19.0693333 L14.3513333,18.8173333 L14.3513333,17.8346667 L13.9626667,17.696 L13.626,17.6266667" id="Fill-89" fill="#ED9E93" mask="url(#mask-2)"></path>
                <path d="M13.184,18.556 C10.602,18.556 8.50933333,16.4633333 8.50933333,13.8813333 L8.50933333,8.67866667 C8.50933333,6.09666667 10.602,4.00333333 13.184,4.00333333 C15.766,4.00333333 17.8593333,6.09666667 17.8593333,8.67866667 L17.8593333,13.8813333 C17.8593333,16.4633333 15.766,18.556 13.184,18.556" id="Fill-90" fill="#F3D6B6" mask="url(#mask-2)"></path>
                <path d="M15.7886667,10.9526667 C15.7886667,11.2233333 15.5693333,11.4426667 15.2986667,11.4426667 C15.028,11.4426667 14.8086667,11.2233333 14.8086667,10.9526667 C14.8086667,10.682 15.028,10.4626667 15.2986667,10.4626667 C15.5693333,10.4626667 15.7886667,10.682 15.7886667,10.9526667" id="Fill-91" fill="#242624" mask="url(#mask-2)"></path>
                <path d="M11.6873333,10.9526667 C11.6873333,11.2233333 11.468,11.4426667 11.1973333,11.4426667 C10.9266667,11.4426667 10.7073333,11.2233333 10.7073333,10.9526667 C10.7073333,10.682 10.9266667,10.4626667 11.1973333,10.4626667 C11.468,10.4626667 11.6873333,10.682 11.6873333,10.9526667" id="Fill-92" fill="#242624" mask="url(#mask-2)"></path>
                <path d="M13.2633333,15.6726667 C12.632,15.674 12.0246667,15.4766667 11.5806667,15.1813333 L11.548,15.034 L11.6986667,15.0106667 C12.1113333,15.284 12.676,15.4666667 13.2633333,15.4653333 C13.856,15.4686667 14.4246667,15.2846667 14.8386667,15.0086667 L14.9893333,15.0313333 L14.958,15.1793333 C14.5113333,15.4773333 13.9,15.6766667 13.2633333,15.6726667" id="Fill-93" fill="#EEA07F" mask="url(#mask-2)"></path>
                <path d="M12.7406667,17.3713333 L12.6473333,17.3126667 L12.6953333,17.174 C12.842,17.1026667 13.0153333,17.0646667 13.1966667,17.0646667 C13.3646667,17.0646667 13.528,17.098 13.668,17.16 L13.7206667,17.2966667 L13.5833333,17.3493333 C13.47,17.2986667 13.336,17.272 13.1966667,17.272 C13.0466667,17.272 12.9046667,17.3026667 12.786,17.3606667 L12.7406667,17.3713333" id="Fill-94" fill="#EEA07F" mask="url(#mask-2)"></path>
                <path d="M17.8593333,10.844 C18.358,10.844 18.7626667,11.2486667 18.7626667,11.7473333 L18.7626667,12.2706667 C18.7626667,12.77 18.358,13.1746667 17.8593333,13.1746667 L17.8593333,10.844" id="Fill-95" fill="#ED9E93" mask="url(#mask-2)"></path>
                <path d="M8.50933333,10.844 C8.01,10.844 7.60533333,11.2486667 7.60533333,11.7473333 L7.60533333,12.2706667 C7.60533333,12.77 8.01,13.1746667 8.50933333,13.1746667 L8.50933333,10.844" id="Fill-96" fill="#ED9E93" mask="url(#mask-2)"></path>
                <path d="M13.126,11.1793333 L12.7626667,12.6753333 C12.682,13.0033333 12.9313333,13.32 13.2693333,13.32 C13.6073333,13.32 13.856,13.0033333 13.776,12.6746667 L13.412,11.1793333 C13.3753333,11.0293333 13.1626667,11.0293333 13.126,11.1793333" id="Fill-97" fill="#ED9E93" mask="url(#mask-2)"></path>
                <path d="M11.884,9.702 L11.754,9.656 C11.0893333,9.12 10.6806667,9.60466667 10.664,9.626 C10.5913333,9.714 10.4606667,9.72733333 10.372,9.65466667 C10.2833333,9.58266667 10.27,9.452 10.3426667,9.36266667 C10.5773333,9.076 11.2286667,8.7 12.014,9.33266667 C12.104,9.40466667 12.118,9.53533333 12.046,9.62466667 C12.0046667,9.67533333 11.9446667,9.702 11.884,9.702" id="Fill-98" fill="#222322" mask="url(#mask-2)"></path>
                <path d="M14.5733333,9.702 C14.5126667,9.702 14.4526667,9.67533333 14.4113333,9.62466667 C14.34,9.53533333 14.354,9.40466667 14.4433333,9.33266667 C15.2286667,8.7 15.88,9.076 16.1146667,9.36266667 C16.1873333,9.452 16.174,9.58266667 16.0853333,9.65466667 C15.9973333,9.72733333 15.8673333,9.714 15.7946667,9.62666667 C15.75,9.574 15.3473333,9.13666667 14.7033333,9.656 L14.5733333,9.702" id="Fill-99" fill="#222322" mask="url(#mask-2)"></path>
                <polyline id="Fill-100" fill="#F3D6B6" mask="url(#mask-2)" points="15.3786667 17.218 15.3746667 17.35 15.3786667 17.218"></polyline>
                <polygon id="Fill-101" fill="#ED9E93" mask="url(#mask-2)" points="18.18 25.4126667 18.7626667 25.4126667 18.7626667 23.5186667 18.18 23.5186667"></polygon>
                <polygon id="Fill-102" fill="#ED9E93" mask="url(#mask-2)" points="7.65666667 25.4126667 8.23933333 25.4126667 8.23933333 23.5186667 7.65666667 23.5186667"></polygon>
                <path d="M14.3513333,18.416 L14.3513333,18.4093333 C16.3686667,17.8906667 17.8593333,16.06 17.8593333,13.8813333 L17.8593333,10.6886667 C17.87,10.5846667 17.8733333,10.5266667 17.8733333,10.5266667 L17.8873333,10.558 L17.8873333,10.8446667 C17.878,10.844 17.8686667,10.844 17.8593333,10.844 L17.8593333,13.1746667 C17.8686667,13.1746667 17.878,13.1746667 17.8873333,13.174 L17.8873333,13.8813333 C17.8873333,16.07 16.3826667,17.9073333 14.3513333,18.416 M11.9993333,18.4046667 C9.99066667,17.8806667 8.50866667,16.054 8.50866667,13.8813333 L8.50866667,13.1746667 C8.50866667,13.1746667 8.50866667,13.1746667 8.50933333,13.1746667 L8.50933333,13.8813333 C8.50933333,16.054 9.99133333,17.88 11.9993333,18.4046667" id="Fill-103" fill="#9D9088" mask="url(#mask-2)"></path>
                <path d="M13.212,18.556 L13.1833333,18.556 C12.7746667,18.556 12.3773333,18.5033333 11.9993333,18.4046667 C12.378,18.5033333 12.7746667,18.556 13.184,18.556 C13.5873333,18.556 13.9786667,18.5053333 14.3513333,18.4093333 L14.3513333,18.416 C13.9866667,18.5073333 13.6053333,18.556 13.212,18.556" id="Fill-104" fill="#ED9E8E" mask="url(#mask-2)"></path>
                <path d="M8.50866667,10.844 L8.50866667,10.558 L8.50933333,10.5566667 L8.50933333,10.844 C8.50866667,10.844 8.50866667,10.844 8.50866667,10.844" id="Fill-105" fill="#9D9088" mask="url(#mask-2)"></path>
                <path d="M13.184,18.556 C12.7746667,18.556 12.378,18.5033333 11.9993333,18.4046667 C9.99133333,17.88 8.50933333,16.054 8.50933333,13.8813333 L8.50933333,10.5566667 L8.52266667,10.5266667 C8.52266667,10.5266667 8.79133333,15.1446667 12.3906667,16.5466667 C12.6493333,16.6473333 12.924,16.698 13.198,16.698 C13.472,16.698 13.746,16.6473333 14.0046667,16.5466667 C17.202,15.3013333 17.772,11.5186667 17.8593333,10.6886667 L17.8593333,13.8813333 C17.8593333,16.06 16.3686667,17.8906667 14.3513333,18.4093333 C13.9786667,18.5053333 13.5873333,18.556 13.184,18.556 M13.1966667,17.0646667 C13.0153333,17.0646667 12.842,17.1026667 12.6953333,17.174 L12.6473333,17.3126667 L12.7406667,17.3713333 L12.786,17.3606667 C12.9046667,17.3026667 13.0466667,17.272 13.1966667,17.272 C13.336,17.272 13.47,17.2986667 13.5833333,17.3493333 L13.7206667,17.2966667 L13.668,17.16 C13.528,17.098 13.3646667,17.0646667 13.1966667,17.0646667 M15.3786667,17.218 L15.3746667,17.35 L15.3786667,17.218" id="Fill-106" fill="#F2CCAB" mask="url(#mask-2)"></path>
                <path d="M12.7406667,17.3713333 L12.6473333,17.3126667 L12.6953333,17.174 C12.842,17.1026667 13.0153333,17.0646667 13.1966667,17.0646667 C13.3646667,17.0646667 13.528,17.098 13.668,17.16 L13.7206667,17.2966667 L13.5833333,17.3493333 C13.47,17.2986667 13.336,17.272 13.1966667,17.272 C13.0466667,17.272 12.9046667,17.3026667 12.786,17.3606667 L12.7406667,17.3713333" id="Fill-107" fill="#EEA07F" mask="url(#mask-2)"></path>
                <path d="M17.8593333,13.1746667 L17.8593333,10.844 C17.8686667,10.844 17.878,10.844 17.8873333,10.8446667 L17.8873333,13.174 C17.878,13.1746667 17.8686667,13.1746667 17.8593333,13.1746667" id="Fill-108" fill="#ED9E8E" mask="url(#mask-2)"></path>
                <path d="M8.50933333,13.1746667 C8.50866667,13.1746667 8.50866667,13.1746667 8.50866667,13.1746667 L8.50866667,10.844 C8.50866667,10.844 8.50866667,10.844 8.50933333,10.844 L8.50933333,13.1746667" id="Fill-109" fill="#ED9E8E" mask="url(#mask-2)"></path>
                <polyline id="Fill-110" fill="#F2CCAB" mask="url(#mask-2)" points="15.3746667 17.35 15.3786667 17.218 15.3746667 17.35"></polyline>
                <path d="M17.4826667,4.944 C16.814,3.38066667 15.2446667,2.04866667 11.6873333,2.648 C11.6286667,2.746 10.778,2.77933333 10.21,3.73 C9.16466667,3.85866667 7.78266667,4.908 8.50933333,10.3186667 C8.50933333,10.3186667 9.29266667,4.23066667 11.33,6.46866667 L11.3293333,6.468 C11.992,7.22666667 13.742,8.582 17.8373333,8.678 C17.8946667,9.56933333 17.864,10.3146667 17.864,10.3146667 C19.1293333,6.22933333 18.09,5.202 17.4826667,4.944" id="Fill-111" fill="#222322" mask="url(#mask-2)"></path>
                <path d="M18.37,8.196 C15.9353333,8.09866667 14.362,7.62333333 13.4353333,7.20733333 C12.8413333,6.94133333 12.3226667,6.49733333 11.894,5.88866667 C11.512,5.34666667 11.0006667,5.26333333 10.7226667,5.26333333 C10.6086667,5.26333333 10.5333333,5.278 10.524,5.27933333 L10.49,5.11333333 C10.4926667,5.11266667 10.576,5.09666667 10.708,5.09666667 C11.0213333,5.09666667 11.6073333,5.18666667 12.0333333,5.79133333 C12.444,6.37466667 12.9393333,6.79866667 13.5046667,7.05266667 C14.42,7.46266667 15.9773333,7.93266667 18.3946667,8.02666667 L18.37,8.196" id="Fill-112" fill="#363836" mask="url(#mask-2)"></path>
                <path d="M18.4506667,6.73533333 C15.426,6.67866667 13.538,6.15466667 13.104,5.23866667 L13.0946667,5.21933333 C12.498,4.40466667 11.778,4.22266667 11.2546667,4.22266667 C10.838,4.22266667 10.5453333,4.338 10.5393333,4.34066667 L10.4746667,4.18333333 C10.482,4.18066667 10.8,4.05466667 11.2526667,4.05466667 C11.8186667,4.05466667 12.5953333,4.25133333 13.238,5.12933333 L13.258,5.16666667 C13.4513333,5.57466667 14.3393333,6.48533333 18.4353333,6.56466667 L18.4506667,6.73533333" id="Fill-113" fill="#363836" mask="url(#mask-2)"></path>
            </g>
            <path d="M126.899773,101 L126.80005,101 C126.799043,101.441814 126.441954,101.799496 125.999748,101.8 C125.558046,101.799496 125.200957,101.441814 125.19995,101 C125.200957,100.558186 125.558046,100.201008 125.999748,100.2 C126.441954,100.201008 126.799043,100.558186 126.80005,101 L127,101 C126.999496,100.447859 126.552254,100 125.999748,100 C125.447746,100 125,100.447859 125,101 C125,101.552141 125.447746,102 125.999748,102 C126.552254,102 126.999496,101.552141 127,101 L126.899773,101" id="Fill-115" fill="#222322"></path>
            <polygon id="Fill-116" fill="#222322" points="127 100.6985 128 100.6985 128 100.3015 127 100.3015"></polygon>
            <path d="M121.100252,101 L121,101 C121,101.552141 121.447859,102 122,102 C122.552645,102 123,101.552141 123,101 C123,100.447859 122.552645,100 122,100 C121.447859,100 121,100.447859 121,101 L121.2,101 C121.201008,100.558186 121.558186,100.201008 122,100.2 C122.441814,100.201008 122.799496,100.558186 122.8,101 C122.799496,101.441814 122.441814,101.799496 122,101.8 C121.558186,101.799496 121.201008,101.441814 121.2,101 L121.100252,101" id="Fill-117" fill="#222322"></path>
            <polygon id="Fill-118" fill="#222322" points="120 100.6985 121 100.6985 121 100.3015 120 100.3015"></polygon>
            <polygon id="Fill-119" fill="#222322" points="123 100.6985 125 100.6985 125 100.3015 123 100.3015"></polygon>
            <polygon id="Fill-120" fill="#CCCDC9" points="142 98 174 98 174 94 142 94"></polygon>
            <polygon id="Fill-121" fill="#CCCDC9" points="142 106 174 106 174 102 142 102"></polygon>
            <polygon id="Fill-122" fill="#CCCDC9" points="142 115 174 115 174 111 142 111"></polygon>
            <polygon id="Fill-123" fill="#CCCDC9" points="126 128 175 128 175 124 126 124"></polygon>
            <polygon id="Fill-124" fill="#CCCDC9" points="126 141 175 141 175 137 126 137"></polygon>
            <polygon id="Fill-125" fill="#CCCDC9" points="126 152 175 152 175 148 126 148"></polygon>
            <polygon id="Fill-126" fill="#CCCDC9" points="126 165 175 165 175 161 126 161"></polygon>
            <polyline id="Fill-127" fill="#515251" points="119.671233 127.69697 119.671233 127.393939 114.657534 127.393939 114.657534 123.606061 119.342466 123.606061 119.342466 127.69697 119.671233 127.69697 119.671233 127.393939 119.671233 127.69697 120 127.69697 120 123 114 123 114 128 120 128 120 127.69697 119.671233 127.69697"></polyline>
            <polyline id="Fill-128" fill="#515251" points="119.671233 140.69697 119.671233 140.393939 114.657534 140.393939 114.657534 136.606061 119.342466 136.606061 119.342466 140.69697 119.671233 140.69697 119.671233 140.393939 119.671233 140.69697 120 140.69697 120 136 114 136 114 141 120 141 120 140.69697 119.671233 140.69697"></polyline>
            <polyline id="Fill-129" fill="#515251" points="119.671233 152.69697 119.671233 152.393939 114.657534 152.393939 114.657534 148.606061 119.342466 148.606061 119.342466 152.69697 119.671233 152.69697 119.671233 152.393939 119.671233 152.69697 120 152.69697 120 148 114 148 114 153 120 153 120 152.69697 119.671233 152.69697"></polyline>
            <polyline id="Fill-130" fill="#515251" points="119.671233 166.69697 119.671233 166.393939 114.657534 166.393939 114.657534 162.606061 119.342466 162.606061 119.342466 166.69697 119.671233 166.69697 119.671233 166.393939 119.671233 166.69697 120 166.69697 120 162 114 162 114 167 120 167 120 166.69697 119.671233 166.69697"></polyline>
            <g id="Group-173" transform="translate(63.000000, 105.000000)">
                <mask id="mask-4" fill="white">
                    <use xlink:href="#path-3"></use>
                </mask>
                <g id="Clip-132"></g>
                <path d="M42.3093333,62.706 C41.1213333,61.826 40.7666667,60.3933333 40.6933333,58.8633333 C39.8233333,62.778 37.2846667,62.63 36.6626667,62.9626667 L36.5693333,63.0293333 L36.6626667,62.9626667 C40.416,60.376 40.7393333,55.8326667 40.766,55.1946667 C40.804,50.4066667 39.378,45.6146667 36.714,41.6346667 C34.954,39.006 32.3973333,36.0933333 34.6006667,32.932 C35.168,32.1193333 36.0513333,31.598 36.848,31.0086667 C38.6933333,29.644 40.1933333,27.7653333 40.9133333,25.586 C41.2553333,24.55 42.066,18.8006667 39.88,19.184 C39.5233333,19.2466667 39.2166667,19.4673333 38.9226667,19.68 C36.614,21.3453333 34.204,22.8693333 31.7093333,24.2413333 C29.5273333,25.4413333 28.08,25.8113333 27.248,28.268 C24.5346667,36.282 21.5626667,43.9133333 23.1986667,52.518 C24.2253333,57.92 21.1066667,63.6833333 18.2446667,68.3786667 C17.7606667,69.1733333 17.2253333,69.9653333 17.0306667,70.8746667 C21.1786667,75.7753333 25.5466667,80.718 30.796,84.4153333 C32.7333333,81.7373333 34.6933333,79.0346667 37.1886667,76.8673333 C39.412,74.9366667 39.588,73.8793333 42.156,72.4393333 L42.156,67.704 L42.3093333,62.706" id="Fill-131" fill="#F3B98B" mask="url(#mask-4)"></path>
                <path d="M34.076,26.5306667 C34.1153333,26.5913333 34.16,26.6553333 34.228,26.6806667 C34.3173333,26.7133333 34.414,26.67 34.4986667,26.6266667 C35.3686667,26.1846667 36.2113333,25.6906667 37.0226667,25.148 C37.386,24.904 37.7473333,24.6466667 38.024,24.3086667 C38.4153333,23.832 38.6126667,23.2233333 38.718,22.616 C38.8746667,21.714 38.84,20.78 38.626,19.89 C36.842,21.1633333 34.998,22.352 33.102,23.452 C33.1426667,24.5586667 33.6013333,25.7906667 34.076,26.5306667" id="Fill-133" fill="#EFCAAD" mask="url(#mask-4)"></path>
                <path d="M32.492,27.2893333 C32.0653333,26.9593333 31.9306667,25.566 31.8646667,25.0646667 C31.826,24.7693333 31.8086667,24.4773333 31.8066667,24.1866667 L31.7093333,24.2413333 C31.5666667,24.32 31.4266667,24.3946667 31.29,24.4673333 C31.2586667,25.5406667 31.6866667,26.6673333 32.492,27.2893333" id="Fill-134" fill="#EFA278" mask="url(#mask-4)"></path>
                <path d="M31.2866667,27.2893333 C30.86,26.9593333 30.7246667,25.566 30.6593333,25.0646667 C30.648,24.9793333 30.6393333,24.8946667 30.632,24.81 C30.4533333,24.9026667 30.2806667,24.9926667 30.1146667,25.0826667 C30.2286667,25.9513333 30.6346667,26.7853333 31.2866667,27.2893333" id="Fill-135" fill="#EFA278" mask="url(#mask-4)"></path>
                <path d="M19.9853333,72.0693333 C19.192,70.9126667 18.5066667,69.838 17.9306667,68.8893333 C18.0353333,68.7186667 18.1413333,68.5486667 18.2446667,68.3786667 C20.7266667,64.3073333 23.402,59.432 23.3986667,54.686 C23.398,53.9593333 23.3346667,53.2353333 23.1986667,52.518 C22.3686667,48.1513333 22.726,44.0353333 23.6333333,39.992 C23.68,40.2293333 23.726,40.466 23.7713333,40.702 C24.7113333,45.6213333 27.526,50.1586667 27.6273333,55.24 C27.7393333,60.8153333 24.4053333,65.8 21.2066667,70.3673333 C20.8086667,70.9353333 20.4046667,71.508 19.9853333,72.0693333" id="Fill-136" fill="#F1AF83" mask="url(#mask-4)"></path>
                <path d="M31.3793333,33.4173333 C32.52,33.2873333 33.684,33.0913333 34.7673333,32.718 C34.916,32.5366667 35.0786667,32.3686667 35.2533333,32.212 C35.0126667,32.292 34.788,32.372 34.6033333,32.4566667 C33.448,32.988 32.2286667,33.342 30.9606667,33.4633333 C31.1006667,33.448 31.24,33.4333333 31.3793333,33.4173333" id="Fill-137" fill="#EFA278" mask="url(#mask-4)"></path>
                <path d="M31.508,83.434 C31.8833333,82.9193333 32.264,82.4066667 32.65,81.8993333 C32.304,81.488 31.942,81.0946667 31.5506667,80.7273333 C28.5626667,77.9273333 25.3613333,75.1466667 22.922,71.8266667 C25.128,74.8286667 27.334,77.8313333 29.54,80.8333333 C30.1833333,81.7086667 30.83,82.5853333 31.508,83.434" id="Fill-138" fill="#EFA278" mask="url(#mask-4)"></path>
                <path d="M15.7086667,64.8793333 C15.7086667,64.8793333 21.634,77.394 32.65,85.5886667 C32.8206667,86.07 30.7006667,89.2006667 30.7006667,89.2006667 C30.7006667,89.2006667 16.6726667,80.5133333 11.8526667,67.8666667 C12.334,66.548 15.7086667,64.8793333 15.7086667,64.8793333" id="Fill-139" fill="#FCFBFC" mask="url(#mask-4)"></path>
                <path d="M10.8886667,64.8793333 C10.8886667,64.8793333 13.0573333,78.2773333 35.9586667,90.226 C35.0133333,89.584 11.8526667,121.396 11.8526667,121.396 L-23.7533333,93.1373333 L10.8886667,64.8793333" id="Fill-140" fill="#464644" mask="url(#mask-4)"></path>
                <path d="M35.9033333,90.1966667 C35.872,90.1806667 35.8426667,90.1653333 35.812,90.1493333 C35.842,90.1653333 35.8726667,90.1813333 35.9033333,90.1966667 M35.8033333,90.1446667 C35.7713333,90.128 35.7413333,90.1126667 35.7093333,90.0953333 C35.7406667,90.112 35.772,90.1286667 35.8033333,90.1446667 M35.7053333,90.0933333 C35.6733333,90.0766667 35.6393333,90.0586667 35.6073333,90.042 C35.64,90.0586667 35.6726667,90.076 35.7053333,90.0933333 M35.6073333,90.0413333 C34.1946667,89.2966667 32.8626667,88.5466667 31.6053333,87.7953333 L31.6053333,87.7946667 C32.8626667,88.5466667 34.1946667,89.2966667 35.6073333,90.0413333" id="Fill-141" fill="#589ECA" mask="url(#mask-4)"></path>
                <path d="M31.6053333,87.7953333 C29.1713333,86.3393333 27.0206667,84.8773333 25.1206667,83.434 C27.0213333,84.8766667 29.172,86.3393333 31.6053333,87.7946667 L31.6053333,87.7953333" id="Fill-142" fill="#E4E5E5" mask="url(#mask-4)"></path>
                <path d="M29.6386667,97.5693333 L5.672,97.5693333 C4.47733333,97.5693333 3.37666667,97.1886667 2.496,96.5473333 L23.2586667,83.434 L25.1206667,83.434 C27.0206667,84.8773333 29.1713333,86.3393333 31.6053333,87.7953333 C32.8626667,88.5466667 34.1946667,89.2966667 35.6073333,90.0413333 L35.6073333,90.042 C35.6393333,90.0586667 35.6733333,90.0766667 35.7053333,90.0933333 C35.7066667,90.094 35.708,90.0946667 35.7093333,90.0953333 C35.7413333,90.1126667 35.7713333,90.128 35.8033333,90.1446667 C35.8066667,90.1466667 35.8086667,90.1473333 35.812,90.1493333 C35.8426667,90.1653333 35.872,90.1806667 35.9033333,90.1966667 C35.9066667,90.1986667 35.91,90.2006667 35.9133333,90.2026667 C35.926,90.2093333 35.936,90.214 35.948,90.2206667 C35.9413333,90.218 35.9326667,90.2166667 35.924,90.2166667 C35.4906667,90.2166667 32.9353333,93.32 29.6386667,97.5693333" id="Fill-143" fill="#434442" mask="url(#mask-4)"></path>
                <path d="M35.9586667,90.226 C35.9553333,90.224 35.952,90.222 35.9486667,90.2206667 C35.952,90.222 35.9553333,90.224 35.9586667,90.226" id="Fill-144" fill="#589ECA" mask="url(#mask-4)"></path>
                <path d="M35.9586667,90.226 C35.9553333,90.224 35.952,90.2226667 35.9486667,90.2206667 C35.952,90.222 35.9553333,90.224 35.9586667,90.226" id="Fill-145" fill="#434442" mask="url(#mask-4)"></path>
                <path d="M29.396,91.7246667 C29.396,93.1193333 28.266,94.2493333 26.872,94.2493333 C25.4773333,94.2493333 24.3473333,93.1193333 24.3473333,91.7246667 C24.3473333,90.3306667 25.4773333,89.2006667 26.872,89.2006667 C28.266,89.2006667 29.396,90.3306667 29.396,91.7246667" id="Fill-146" fill="#F9CA5B" mask="url(#mask-4)"></path>
                <path d="M118.152,30.6953333 C118.794667,31.5353333 119.231333,32.5126667 119.648,33.486 C120.448667,35.3566667 121.200667,37.2493333 121.903333,39.1593333 C122.652,41.1973333 123.347333,43.2746667 123.598,45.4313333 C123.761333,46.8313333 123.734667,48.2453333 123.707333,49.6546667 C123.586667,55.828 123.466,62.0013333 123.346667,68.1746667 C122.426667,67.0786667 121.886667,65.722 121.380667,64.384 C118.854667,57.6986667 116.798667,50.8353333 115.233333,43.862 C114.722667,41.5866667 114.261333,39.2906667 113.469333,37.0973333 C112.936667,35.624 112.258667,34.2073333 111.582,32.794 C110.536667,30.6106667 109.536,28.398 108.431333,26.2446667 C109.948,25.6846667 111.647333,26.9106667 113.064667,27.4393333 C114.979333,28.154 116.875333,29.0293333 118.152,30.6953333" id="Fill-147" fill="#EE9E74" mask="url(#mask-4)"></path>
                <path d="M91.4626667,32.176 C91.8786667,32.5166667 92.4013333,32.7873333 92.6646667,32.8493333 C93.656,33.0813333 94.584,32.1746667 95.4986667,31.9473333 C96.086,31.8013333 96.6946667,31.772 97.2986667,31.7426667 C98.7186667,31.6746667 100.138667,31.6066667 101.558667,31.538 C101.75,31.5293333 101.951333,31.5213333 102.123333,31.606 C102.306667,31.696 102.426667,31.8746667 102.542,32.0426667 C103.09,32.842 103.729333,33.5793333 104.443333,34.2346667 C104.684,34.456 104.944,34.684 105.044,34.996 C105.204667,35.4973333 104.902667,36.014 104.665333,36.484 C104.056,37.6926667 103.828,39.09 104.022,40.43 C104.053333,40.6453333 104.094667,40.8693333 104.028,41.0766667 C103.943333,41.3393333 103.706,41.5173333 103.492,41.6926667 C102.038667,42.8873333 101.183333,44.7766667 101.246667,46.6566667 C103.226667,46.766 105.230667,46.4146667 107.054667,45.6393333 C108.073333,45.2066667 109.056667,44.626 109.761333,43.772 C110.56,42.804 110.944,41.5466667 111.059333,40.2966667 C111.174667,39.046 111.04,37.788 110.904667,36.54 C110.779333,35.3773333 110.646667,34.188 110.13,33.1393333 C109.624,32.1113333 108.775333,31.282 107.826,30.64 C106.526,29.762 105.027333,29.2066667 103.492667,28.8766667 C100.800667,28.298 97.852,27.9566667 95.284,29.0646667 C93.9333333,29.6473333 92.5833333,30.2293333 91.2333333,30.812 C91.112,30.864 90.984,30.9226667 90.9166667,31.036 C90.7093333,31.3886667 91.0286667,31.8206667 91.4626667,32.176" id="Fill-148" fill="#D77245" mask="url(#mask-4)"></path>
                <path d="M105.841333,40.912 C105.836667,40.238 105.7,39.5546667 105.879333,38.9073333 C106.097333,38.1253333 106.731333,37.5446667 107.231333,36.9053333 C107.328667,36.78 107.426667,36.64 107.43,36.4806667 C107.433333,36.3433333 107.365333,36.2146667 107.299333,36.094 C105.946667,33.614 105.973333,31.144 102.898667,30.2326667 C99.7553333,29.3006667 95.9506667,29.8973333 92.696,29.97 C91.6326667,29.9933333 90.38,29.8206667 90.134,28.508 C90.1186667,28.4253333 90.1106667,28.3373333 90.1433333,28.2606667 C90.1793333,28.178 90.2566667,28.122 90.3326667,28.074 C90.8653333,27.744 91.5066667,27.656 92.112,27.4926667 C93.7673333,27.0453333 95.266,26.3626667 96.9613333,26.0373333 C99.5973333,25.5326667 102.232,25.0273333 104.867333,24.522 C105.241333,24.4506667 105.63,24.3786667 106.000667,24.47 C106.386,24.564 106.706667,24.8226667 107.013333,25.0746667 C108.458667,26.2613333 109.903333,27.448 111.348,28.6346667 C112.378667,29.4806667 113.452,30.384 113.927333,31.63 C114.33,32.686 114.250667,33.8566667 114.182667,34.9853333 C113.926,39.2346667 113.909333,43.4986667 114.134,47.7493333 C114.198667,48.9786667 114.253333,50.5073333 113.391333,51.4993333 C111.77,53.3666667 107.098,51.7846667 105.336,50.7653333 C102.949333,49.3846667 102.139333,47.02 103.864,44.7333333 C104.653333,43.6853333 105.658667,42.6806667 105.817333,41.3786667 C105.836,41.224 105.842,41.0686667 105.841333,40.912" id="Fill-149" fill="#EE9E74" mask="url(#mask-4)"></path>
                <path d="M124.117333,59.358 C123.643333,54.4466667 123.391333,49.74 122.460667,44.8946667 C122.453333,44.8533333 122.486667,45.1393333 122.524,45.426 C122.562,45.712 122.603333,45.998 122.611333,45.9573333 C122.934,44.364 122.436667,42.7073333 121.684,41.266 C120.931333,39.8253333 119.929333,38.53 119.13,37.114 C117.246,33.7713333 116.55,29.854 114.596667,26.552 C114.125333,25.756 113.554667,24.9746667 112.738,24.5406667 C112.092,24.196 111.347333,24.0993333 110.62,24.008 C108.184,23.7026667 105.748667,23.3973333 103.313333,23.092 C101.719333,22.892 100.115333,22.692 98.5113333,22.778 C95.9953333,22.9133333 93.716,23.6053333 91.2753333,22.982 C90.7706667,22.8533333 90.2826667,23.37 90.258,23.89 C90.2333333,24.41 90.5306667,24.8886667 90.858,25.2926667 C92.0386667,26.752 93.7753333,27.7486667 95.6306667,28.0306667 C96.9853333,28.2373333 98.3773333,28.0753333 99.73,28.2953333 C100.934,28.4906667 102.068,28.982 103.181333,29.48 C105.172667,30.3713333 107.147333,31.2993333 109.103333,32.2633333 C109.738,32.576 110.448,32.9933333 110.553333,33.6933333 C110.648,34.3226667 110.206,34.8893333 109.836,35.408 C108.093333,37.856 107.522667,41.102 108.328,43.9973333 C108.756667,45.5386667 106.884667,46.0753333 105.587333,46.2953333 C104.161333,46.5386667 103.308,45.6226667 102.560667,44.4113333 C101.226667,42.25 100.704667,39.704 99.938,37.2826667 C99.906,37.1173333 99.8273333,36.948 99.77,36.79 C99.3193333,35.5446667 98.7373333,34.338 98.06,33.2006667 C97.6853333,32.572 97.276,31.9613333 96.8133333,31.3933333 C95.868,30.2333333 94.2953333,29.802 92.902,30.31 C92.0506667,30.6206667 91.3986667,31.3413333 90.9933333,32.1513333 C90.1033333,33.9286667 90.6293333,35.6506667 90.9433333,37.492 C91.128,38.578 91.31,39.664 91.4873333,40.7513333 C91.856,43.006 92.3706667,45.264 93.366,47.3326667 C94.9473333,50.6186667 95.8286667,53.9073333 96.792,57.344 C97.8073333,60.9633333 100.144667,64.4893333 102.158667,67.62 C106.377333,74.1753333 111.414,80.258 114.68,87.3873333 C116.442667,91.234 117.639333,95.3073333 118.586,99.4233333 C118.981333,101.142667 119.596,109.778 121.244,110.274 C121.997333,110.500667 123.857333,108.913333 124.586,108.636667 C126.559333,107.887333 128.832667,107.562 130.891333,107.101333 C132.192667,106.810667 142.665333,103.96 143.236,104.809333 C134.39,91.6433333 125.663333,75.3613333 124.117333,59.358" id="Fill-150" fill="#F3B98B" mask="url(#mask-4)"></path>
                <path d="M90.9766667,34.576 C90.9766667,34.576 90.6513333,29.742 95.8826667,32.1346667 C96.084,32.2006667 97.1813333,35.7726667 97.1173333,36.6433333 C96.9826667,36.376 94.9833333,38.4066667 92.238,38.6173333 C92.158,38.7246667 90.9766667,34.576 90.9766667,34.576" id="Fill-151" fill="#EFCAAD" mask="url(#mask-4)"></path>
                <path d="M92.1693333,24.11 C93.3093333,24.47 94.534,24.5606667 95.7146667,24.3726667 C95.62,23.95 95.5246667,23.5273333 95.43,23.1046667 C94.18,23.2473333 92.948,23.3253333 91.6786667,23.072 C91.728,23.468 91.8093333,23.8486667 91.9526667,23.998 C92.0093333,24.0566667 92.0906667,24.0846667 92.1693333,24.11" id="Fill-152" fill="#EFCAAD" mask="url(#mask-4)"></path>
                <path d="M96.876,24.85 C96.8,24.2146667 96.7873333,23.574 96.822,22.9353333 C96.7226667,22.9473333 96.624,22.9593333 96.5253333,22.972 C96.584,23.6066667 96.6986667,24.2373333 96.876,24.85" id="Fill-153" fill="#EFA577" mask="url(#mask-4)"></path>
                <path d="M97.8306667,24.174 C97.7846667,23.7233333 97.8346667,23.2706667 97.9053333,22.8213333 C97.8226667,22.8286667 97.74,22.836 97.6573333,22.844 L97.658,23.0046667 C97.6873333,23.3973333 97.7453333,23.7886667 97.8306667,24.174" id="Fill-154" fill="#EFA577" mask="url(#mask-4)"></path>
                <path d="M99.038,28.2153333 C99.2906667,28.0446667 99.5353333,27.8706667 99.7693333,27.7053333 C100.18,27.416 100.595333,27.122 100.914,26.7353333 C100.389333,27.3686667 99.1586667,27.8346667 98.3873333,28.1773333 C98.6046667,28.1846667 98.8213333,28.1973333 99.038,28.2153333" id="Fill-155" fill="#EFA577" mask="url(#mask-4)"></path>
                <path d="M106.012667,30.7786667 C106.612667,30.5966667 107.196,30.356 107.776,30.1133333 C107.063333,30.4086667 106.334,30.5473333 105.580667,30.5806667 C105.724,30.6473333 105.869333,30.7113333 106.012667,30.7786667" id="Fill-156" fill="#EFA577" mask="url(#mask-4)"></path>
                <path d="M111.658667,26.9853333 C111.514,26.0453333 111.57,25.1093333 111.74,24.188 C111.589333,24.154 111.436,24.1266667 111.282,24.102 C111.074,25.1473333 111.506,25.996 111.658667,26.9853333" id="Fill-157" fill="#EFA577" mask="url(#mask-4)"></path>
                <path d="M103.201333,45.312 C103.571333,47.2466667 103.698667,49.2293333 103.569333,51.196 C103.770667,49.4273333 103.841333,47.6113333 103.720667,45.8206667 C103.536667,45.6753333 103.364,45.504 103.201333,45.312" id="Fill-158" fill="#EE9E74" mask="url(#mask-4)"></path>
                <path d="M114.774667,34.2926667 C113.219333,34.0493333 111.692667,33.6253333 110.232667,33.0373333 C110.396667,33.2246667 110.514667,33.44 110.553333,33.6933333 C110.575333,33.842 110.566,33.9866667 110.536667,34.1286667 C111.915333,34.494 113.374,34.5613333 114.774667,34.2926667" id="Fill-159" fill="#EFA577" mask="url(#mask-4)"></path>
                <path d="M98.232,37.4853333 C96.6386667,38.578 94.7493333,39.4153333 92.8313333,39.7126667 C93.6326667,39.296 94.1606667,38.8806667 95.0593333,38.6466667 C96.0706667,38.3826667 97.3573333,38.084 98.232,37.4853333" id="Fill-160" fill="#EFA577" mask="url(#mask-4)"></path>
                <path d="M93.2826667,40.5446667 C94.174,40.754 95.1186667,40.76 95.9993333,40.512 C96.8526667,40.2713333 97.7033333,39.776 98.2433333,39.0613333 C97.5786667,39.44 96.8166667,39.616 96.122,39.934 C95.228,40.3433333 94.2513333,40.4546667 93.2826667,40.5446667" id="Fill-161" fill="#EFA577" mask="url(#mask-4)"></path>
                <path d="M106.678667,77.6306667 L106.678667,80.8926667 C106.678667,80.8926667 126.306667,76.302 129.199333,71.8266667 C128.877333,72.0113333 127.270667,69.28 127.270667,69.28 C127.270667,69.28 125.290667,73.9313333 106.678667,77.6306667" id="Fill-162" fill="#FCFBFC" mask="url(#mask-4)"></path>
                <path d="M132.894667,68.48 C132.894667,68.48 123.881333,78.1166667 102.358667,81.732 C102.286,81.9733333 112.504,118.366 112.504,118.366 C112.504,118.366 151.934,104.146667 151.693333,103.784667 C151.452667,103.423333 132.894667,68.48 132.894667,68.48" id="Fill-163" fill="#464644" mask="url(#mask-4)"></path>
                <path d="M102.525333,81.7033333 C102.563333,81.6973333 102.601333,81.6906667 102.64,81.684 C102.602,81.6906667 102.563333,81.6973333 102.525333,81.7033333 M102.650667,81.682 C104.592667,81.3493333 106.432,80.9673333 108.172,80.548 C108.173333,80.548 108.174667,80.5473333 108.176,80.5473333 C106.434667,80.9673333 104.594667,81.3493333 102.650667,81.682" id="Fill-164" fill="#589ECA" mask="url(#mask-4)"></path>
                <path d="M127.759333,97.5693333 L106.688,97.5693333 C104.421333,89.43 102.357333,81.9546667 102.358667,81.7353333 C102.358667,81.734 102.358667,81.7326667 102.358667,81.732 C102.377333,81.7286667 102.396,81.7253333 102.414667,81.7226667 C102.420667,81.7213333 102.428667,81.72 102.435333,81.7186667 C102.446667,81.7166667 102.458667,81.7146667 102.47,81.7126667 C102.479333,81.7113333 102.486667,81.71 102.496,81.7086667 C102.506,81.7066667 102.515333,81.7053333 102.525333,81.7033333 C102.563333,81.6973333 102.602,81.6906667 102.64,81.684 C102.643333,81.6833333 102.646667,81.6826667 102.650667,81.682 C104.594667,81.3493333 106.434667,80.9673333 108.176,80.5473333 C112.298667,79.6333333 117.488667,78.3146667 119.776667,77.04 C119.778667,77.0373333 119.780667,77.036 119.783333,77.036 C120.025333,77.036 123.993333,87.496 127.759333,97.5693333" id="Fill-165" fill="#434442" mask="url(#mask-4)"></path>
                <path d="M82.9553333,22.3266667 C82.9553333,22.3266667 105.601333,31.8413333 126.868,47.6993333 C127.006,48.0653333 127.696,49.8953333 124.52,50.7486667 C124.382,50.8713333 89.7213333,29.402 82.9553333,22.3266667" id="Fill-166" fill="#2C312F" mask="url(#mask-4)"></path>
                <path d="M82.9553333,22.3266667 C82.9553333,22.3266667 84.9026667,24.2113333 86.688,25.592 C86.7093333,25.6086667 88.02,25.7093333 87.7853333,24.5093333 C87.7026667,24.4706667 82.9553333,22.3266667 82.9553333,22.3266667" id="Fill-167" fill="#91928E" mask="url(#mask-4)"></path>
                <path d="M82.9553333,22.3266667 L84.5646667,23.812 C84.5646667,23.812 85.202,23.7973333 85.1326667,23.2793333 L82.9553333,22.3266667" id="Fill-168" fill="#131412" mask="url(#mask-4)"></path>
                <path d="M115.547333,39.8733333 C115.236,40.9886667 114.498667,42.272 112.900667,43.5526667 C113.016667,43.6273333 113.132,43.7006667 113.247333,43.774 C114.811333,42.5073333 115.572667,41.2333333 115.916,40.11 C115.792667,40.03 115.670667,39.952 115.547333,39.8733333" id="Fill-169" fill="#131412" mask="url(#mask-4)"></path>
                <path d="M113.476,40.9973333 L89.5173333,25.8713333 C89.5173333,25.8713333 107.814667,35.142 114.098,40.1433333 C114.098,40.3266667 113.476,40.9973333 113.476,40.9973333" id="Fill-170" fill="#515452" mask="url(#mask-4)"></path>
                <path d="M125.627333,49.2926667 L115.916,42.4313333 L116.152,41.5153333 L126.300667,48.012 C126.596,48.9613333 125.627333,49.2926667 125.627333,49.2926667" id="Fill-171" fill="#515452" mask="url(#mask-4)"></path>
                <path d="M113.479333,86.9393333 C113.479333,88.334 112.348667,89.464 110.955333,89.464 C109.560667,89.464 108.431333,88.334 108.431333,86.9393333 C108.431333,85.5453333 109.560667,84.4153333 110.955333,84.4153333 C112.348667,84.4153333 113.479333,85.5453333 113.479333,86.9393333" id="Fill-172" fill="#F9CA5B" mask="url(#mask-4)"></path>
            </g>
            <path d="M197,173 C197,173 193.663069,173.161952 192.003709,174.450996 C191.916546,174.3249 193.394423,176 193.394423,176 L197,173" id="Fill-174" fill="#2C312F"></path>
            <path d="M166,185 C166,185 166.804938,182.578543 170,182.00907 C170,181.83816 170,184.139296 170,184.139296 L166,185" id="Fill-175" fill="#2C312F"></path>
            <path d="M75,169.004766 C75,169.004766 76.3373494,168.840332 77,170.443227 C76.9857612,170.455927 76.0279299,171.26339 75.7918949,172 C75.7918949,172 75.0301205,169.809555 75,169.004766" id="Fill-176" fill="#2C312F"></path>
            <path d="M95.8490865,190 C95.8490865,190 99.0956647,192.249543 98.9978325,194 C98.9978325,194 95.7603129,192.050174 95,191.54112 C95.141917,191.419505 95.8490865,190 95.8490865,190" id="Fill-177" fill="#2C312F"></path>
            <polyline id="Fill-178" fill="#3FAE6A" points="111 121.29043 115.327311 127 125 119.718414 123.769863 118 115.727192 124.053538 112.6418 119.982075 111 121.29043"></polyline>
            <polyline id="Fill-179" fill="#3FAE6A" points="111 134.29043 115.327311 140 125 132.719125 123.769863 131 115.727192 137.054248 112.6418 132.982075 111 134.29043"></polyline>
            <polyline id="Fill-180" fill="#3FAE6A" points="111 147.290689 115.326832 153 125 145.71855 123.769802 144 115.726733 150.053305 112.641188 145.982232 111 147.290689"></polyline>
            <polyline id="Fill-181" fill="#3FAE6A" points="111 161.289719 115.327311 167 125 159.718414 123.769863 158 115.727192 164.053538 112.6418 159.982075 111 161.289719"></polyline>
            <polyline id="Fill-183" fill="#7FCF6F" points="236 196 268 207.507081 259.443337 217 236 196"></polyline>
            <polyline id="Fill-184" fill="#7FCF6F" points="225 204 232 218.927411 225 220 225 204"></polyline>
            <polyline id="Fill-185" fill="#FCFBFC" points="54 205 33.6185075 223 28 216.039308 54 205"></polyline>
            <polyline id="Fill-186" fill="#FCFBFC" points="51 200.950181 31.9267127 206 31 197 51 200.950181"></polyline>
            <path d="M265.167212,190 L217.833455,190 C210.746044,190 205,184.179761 205,177.000676 L205,177 C205,169.820239 210.746044,164 217.833455,164 L265.167212,164 C272.254623,164 278,169.820239 278,177 L278,177.000676 C278,184.179761 272.254623,190 265.167212,190" id="Fill-187" fill="#7FCF6F"></path>
            <text id="REGISTER" font-family="LucidaGrande, Lucida Grande" font-size="9" font-weight="normal" letter-spacing="0.0745500028" fill="#FCFBFC">
                <tspan x="220" y="182">R</tspan>
                <tspan x="225.765468" y="182" letter-spacing="0.067095004">EGISTER</tspan>
            </text>
            <path d="M218.686463,21 L271.313537,21 C272.245139,21 273,20.328 273,19.5 C273,18.6714 272.245139,18 271.313537,18 L218.686463,18 C217.754861,18 217,18.6714 217,19.5 C217,20.328 217.754861,21 218.686463,21" id="Fill-188" fill="#7FCF6F"></path>
        </g>
    </g>
</svg>